<mxfile host="app.diagrams.net" modified="2023-12-12T23:48:51.193Z" agent="Mozilla/5.0 (Windows NT 10.0; Win64; x64) AppleWebKit/537.36 (KHTML, like Gecko) Chrome/118.0.0.0 Safari/537.36 OPR/104.0.0.0 (Edition std-1)" etag="UNYGZvS4KnUrMWfqu-QD" version="22.1.8" type="github">
  <diagram name="PÃ¡gina-1" id="dFBG1IE7LyAnuhY3Vc1b">
    <mxGraphModel dx="839" dy="477" grid="1" gridSize="10" guides="1" tooltips="1" connect="1" arrows="1" fold="1" page="1" pageScale="1" pageWidth="827" pageHeight="1169" math="0" shadow="0">
      <root>
        <mxCell id="0" />
        <mxCell id="1" parent="0" />
        <mxCell id="ILJUOrgNbJTJBXLJUpU8-2" value="Base de datos" style="label;whiteSpace=wrap;html=1;image=data:image/png,iVBORw0KGgoAAAANSUhEUgAAAEAAAABACAYAAACqaXHeAAAACXBIWXMAAAHYAAAB2AH6XKZyAAAAGXRFWHRTb2Z0d2FyZQB3d3cuaW5rc2NhcGUub3Jnm+48GgAAEldJREFUeJzNm3d8XNWVx7/3TdNo1Eaj3oslWTYuyFguYNPsACbxhhKHliUbQoAlWVI22c2STfhsSFkSdiGQLNkUiIFscGih2jiAwQZbLrItZMm2JFRHdVRG0vR57+4fT8W2kGZU/Nn9fT7vI81995x3znn33nfKvYLzAyNQAJQApWNXIZAGxI5dCUAcoADDgA/wj/3vBFqA5rG/dcBJQC60oGKB+CjAcuAK4EpgI7py0yIuPglzTAwCQcDvw+cdRVXDM5EMAgfGrreBD1kAg8zXAJXA7cDngNTxRmtsnFxUvlJk5RWRlVtMZm4hWblF2B1pWGJiMVtiPpGZpql4PSMM9HXT09lGt7OFns42WpvqOV17RPq8o2fK2wbsAP4EHJmrAnM1wGbgAWA9gNFklktWrBHLV29g+UUbKFlyIQaDca4yfSI0TaWloY664wc4vG83xw7uQdO08dsHgJ8Cf5kt37kYIEEI0S+lNOYXl7Plxi+x4VPXERefNAdWc4d70MW+3S/z+ovb6fi4brx5D3AXcDpaPrMywBvVXanhsPHxPTtf2JZod7Cy8jKEWKhlZG6QmsYrr77EK3/4GX0djQghfFLKL6FPjYiIVvrPJ9lTb/3DzhMrhVBy5y7u+UFIldQ6Pfz12YfY9/J/ISUS5J3A7yLRRmOAShAfmM0Ww/Zd9SLWFj9/ic8DTvX68QUl9VW72PHwPWhqOCylXAccnonOEAXvZ4Ci27/6fbFs1SULIuz5wJBXJahKUnMWYY1L4vSRdxSgGNg+E50SgW8acGlGTgF/c/PdCyXrgkNK8IUmXYLKq79AUloOwOVAyky0kQxQAIjisuUIJVLX/zu4PGFUbdIAQihkFS8HXb+imWgjaWUG6OvumKeI5w/eoEaXOzSl3d07IbN5JvqoXmtD3VFO1hyctXDnGyN+lUZXEO0ch7i17iDOppqoeERlACklP/veXbh6nLMW8nwgrEk6hkI0uYJo52jvdjl5/pGvRc0rKgMIxUBfdzvfvH0TNYf3zk7aBYQqJV3uMHVdflyjUwOnppq9PPHtT+N2dSKUaD5wkT+DecCXclZuIbV0LV0n97PnzecZdg9SVLYMa6xt9lrMEpoEt1+lezhMx2CI0YA2JQQcHepj9zM/5c3fPUDQ72HRxr8l1p7NcHcDwJPogdMnIioDJOWUU7Hth1iTMnB9fJj6Yx/yxvO/p29gCEd6Lkn2ZBbKI5YSPCGNIa9Kz2gY52CIQa+KPyynKN7f1czeF3/JC4/eR9vJw5isCay44fuUbbqLrtq3cXeegggGmFXIVrD2RrKWbaJ+12M0f/gcu3b8il07fkX2ohVUXHYdy9duJjuvCLNBYDIIjAoIIVAUfa7JsUtTQQM0TRJSJQFVElQ1giGJXx2zwjTo7/yYU0fe5qO9f8HZeBwAxWCkeMOtlF/1Ncy22QVls45ZzbYkVlz/r5RtvofWqhdpObADZ+NxnI3HefW3DxCXlEJu2UXkL6kkLbcUe1ouSWm5GIymWT1HDYcY6m1nsLed3rbTtNYfpO3kYTxu10QfW0oeBWtvJL/yemLiZ/R3psWcg/aY+BTKNn2F0iu/zFBHHd1179FT/z6D7bXUV+2kvmrnRF8hFBIcGcTb07BY4zHFWDGaLMTYEgDwe4YJhwKE/D4CvhFGBnsZ7u9GSu2sZwrFQHL+CjKWXEp6+UbsOUuZ79ybtQHCQR9Gs/Us5ey5F2DPvYDyq+5FDflxO08y2F7LcHcDHlc7o65Whge6cbs6o3qGUAxY7ZnEpeRhS8kjIaMUe+5SErMXYzB9cjZprpiVAfqbj/L+Y7eSWrKGJVu+TnL+iil9DKYYkgtWklywcsq9oGeIgGcANeAj6BtmPKUnhIIpJh6DJRaLLQmzzR61TL6hbpr2Ps2iS79ITEJqZIJzEMkAQQA1FAAg1p5BfHoRvaf309twgPSySyhYeyOZSy9HMc7ocQL6+jHbRSoS+puPcPqd35FSvJqMJZdNtI/LDAQ+iW4ckSaQA+i1JmUoV//r2wjFgNRU2o68Sv3Ox/AO6J6h2ZZE5tLLSSu7hLTSdVjikues0HQIB7x89MpDFKy5Hnve8skbUjLqaiMuNX+iSVPD7PrhlfjcPSp6snZwOr6R/IAgcF/YPxpjtNhwFFYghEJS9mKKN9yGo2AlWjjIcOdphjpO0FnzFo17nqSj+nX6m6vxuNpQTBasiWnzUh7AM9BO9Z/uJy6tEEfBhZM3hJgyqk6+9Su6TrwL4AYeZIb0eaQRsAQ4AfrCVHHTj8hf/dkpnUL+UfoaDtBzch99DfsZ7Ws9S8AtP3iPmAUwQmCkH0u8Y8Y+LVUvcHTH95GaeqYO9dP1j2SAi4F9xCZDYATUEIXrtrH8+vsxGC3TEoV8www5T+J21iMU3Uk53wgHvNS98QiN728Hgxks8eDtB7gE+GA6ukgGuATYK6x2DFt+iPrG95C+IaxJmSzefDf5a65HMczOwTkfcB7bSc3LP8Hn7kFYkzBseRD1jfuRPjfABmDfdLRRxQKE/WCyYtjyI/D0EnLW0F33Lm2HXyHkH8WamL7gq3u08A33sefRmwn7PSjlWzBs/Tna8eeRzmPjXeYfDAHInnpETDyGK/8JJX8NcqSHUM8pXI1VNO19hu769/AP9yE1FUucA2WWrm8kqEE/rqZDtB58iaZ9z2BMLcVJPCe8RsIxyRjW3IFScRPa4afRjjxzJumMBohqCiRkLMI31EPIP4IovBjj1Q9ArAPpdqJ99BLy1G7kUPskU8VAYvZiEjJKsDlysCXnYHPkEpOYhtFiw2CyYLScHUpLqRH2jeIf7Scw4sLn7sU70IG78zQjPY0M9zQhzyieGrb+HKXkikkGHhfhnT9AtuzHZE3AmpjGcHcjRJgCURkg76KtlG26iw9/cw+e/jaEJQ5x4c0YKm4Ba6KuwGAbsnkf0nkM2V2HHI7s9hrMVhTFSMg/ErEvNgdK9oWI3IsQeasRyYV6u28I9cizyKN/QgY92FLyWH/nE5za/QRth1+JaICoXeH49GKu+McXOLX7CRrffxrtwG+Q1X9ElF+DUrYZkbMKUXELVNwyIZjsb0IOtiPdHTDcjfQNgW8A/COghVFDPlRAJGTpQY0lDmISEXGpYEtBJGQiHIWIlBKwnrHGSA3Zdgjt1C60kzsh6EUxmim54suUbb4bU8yMlfm5GQDAFBPPBZ/5NoXrPs+pd35LR/VrhI8/j3b8eYTNgSi+FJG1ApG1HGHP142Ss2o2j5gWcqAF2VWDdB5HNr2P1D9xGC2x5KzbRtmVd2JzzL5qN6dw2JaSR8W2f2PZ1u/QUf0azuO7cDUdRqt5EWpe1DtZkxCpJYjEbERiNiRkIuLTwRQLJisYTAiLXmaTYz4GIR+EvMiRHhjuQrqdSLcT+hr00TMGxWgmtXQ92SuvJrfi2inryXk3wDhMMXEUrr+JwvU3EQ546T39Af0fVzPYXstQRx3htkNIDs3nEbqQFhtJxaux516Ao2gVaaXrMVpi580XZmmAkH+Uxj1PkbHkUux5y84RMpasZZvJWrYZ0Fd170Annv42PK52fENd+Ef6CXoGCQe8hPwjEwkPIQyYYuIwWmIx2+xY4pKJtWdhS8nF5sgjNjkLIaZPYKvhwIye6UyIZACpK6PHEgPN1dTvepz6t35J1gWbKL/q70nMLv9EQiEU/RPoyNG3SJ0ndNW+Q9VT/8C6O39NetnFk4JP5hVn3EcUyRGKB+612OzkV15HXEoesck5uDvqGGg9TvOHz9FV9y5SDWO1Zy3YsJwOQa/7EzJCEr+7h9xVWzFZJ0v3H+99Zjxcfxjom45nJD/AALiEYkja/N03iUvJA0ALB2mpep7mD58bTz2DECRmlpJWdjGOwgqSssuJTc6erY7TYqSnib/++2dYcu3XKbvyKzP2He1rYfdPr0Vq6hB6dVidrm9UCRFAsectZ+O92zGYz34Dg+21tB9+hZ6TexnpbT7rnsmaQFrpOi667aE5z9FxhIM+al58kOINt0077cb77X38Cwy214KueDrQP13/SAaoBKrGfyTlLGHNFx+d9nvrHeyk99SHDLbX4nbW4+46hcFo4ar7d2OKTYjwqPnD42qj6qmvM+SsO7O5Eqb/FEUXDicXQlwqsu0gJmsCy7Z+h/zK6yLW36SmIjU1qnzhfCA1ldaqF/jolZ/p8Ur+GhjpQQ60wIKEwz43xi0PgsmK2nGUrtq3aa9+DXNsAvFpRdMaQggl6iLlXKCFg7RXv0bVU/fRduhlNDWMUnEzhpXb0A5N7IyZfzQIIOLTMdzyB/C4UPc8jOw4CoDJGk/2iqvIrfg0KcWrz6vCoL/tvsaDugda8xYhnx5IiZxVGC77FsTaUf94O3K0d5xk/tEgQoCUiKRcDNf+GJGxVA9Gal5Aa3xXd2PRnaHk/JU4iipwFFSQkFkyp1z9mfC7e3F3NzDQfJT+5moGWo8RDnj1mwYzSsnlKMuvR+SuRnbVor7xL8ihDsZlXhADZK+8GoMphrZDL4NixLD2DpRVt4HZBr5BtMb3kM370FqrIOg5i4FitBCXkktscg4xiWmYLDYUoxlTTBwGs+43qEEvIf8oWjhIKODBP5YLGHW1o4XPSetb4lDy1yIK1qMsukyPEoMe1EPb0Q4+CVqY/NWfJRzy4zy2c94GSDGYrCdW3PC9tII1N9Cw50nq3nwUNehHxCSirLoFZcXnJkNVLYzsO63nA3rqkK4m/W34pk3Lz4zYZERSDiJlESJ9iX6llsD4NPMNoR17Dq36f5D+YQzmGJZccx8ll/0dh5/9TlT5gIiVxeseqf+0kOLV8d++oW5OvP4ftB15VR9iigGRV4lS9imU4kvPjtvHEfQgR7r1HIF3Mh9AcGwoW2wgDGBNRFiT9JxAQqY+ws6FbwitcQ/a6d3ItoN6rV0I8lZ9hqXXfhNrUgZA1AaYdTRoTcrgolsfYvFVX6Vl/w5aD75EoGU/ast+VAQiuQCRtUzPC6SWIhKzwGpHOIqBWW5O9g0i3Z36qOo8juysQQ60Mu7eW+Id5FdeT8Haz014qbNFJHlExrLLH1u+9bv3TvcATQ3hajpEd9379NS/N8UbBMAUqxsiLg1htk3kA4gZ8939k/kAGfTAaC/S3Qkh7xRW8WlFY+XxDaQUV6JMsy1/oabAKuBwfuV1rLr5JxG66giMDjDUXjtWHm/E42pj1NVGyDccFf04TNYEbCm5xKXkk5BRgj3vApJylkZdd1yoKWAFJspMg+21vP+LW8lYeilLrrmP+PTiKQSWuGTSyzeSXr7xrPZwwENgpJ+AZ5BwwEM44EGqOl9hMGC02DBabFhsdizxjqizPIGRfpoP/Jmi9Z+fVVl9HNGVx8NBAMzWBCzxDpzH36Lzo7fJXnE1BWtvILVk7YwJC2BCQdsc5+p06G3YT90bj5CYWULmBVdOtI/LPK7DdIimOvwtLegXxRtvw2xLoujimzHH2fVh3lZD2+G/0HbwRbyDXSAl1sT0aeflfKCG/NS/+Qssccln7QdKSC8mc+nlpCyqnDi8IaVGrR4XaMD9wNTFZAyRDOAFNoZ8w0Ux8SnY85ZN7NMp3ngbCRklhP2juDtPMdByjPYjr9Kw5/d01+1hsL0Wv7t3YljPF6N9LRx6+lvEJmeRUjSZaRZCwZqYftbJlY/3PUvH0dcB/gr8eia+0XyVLgL2KwaTofL2/xRZyzZN6eB399Jz6oOJ8nhgdGDyAYqBa36wZ94uMcBoXyu2lNwZp1tnzW6qtn9DSlUNg1wLVM/EM9rP8h3Af4NQSq+4g6XXfmPGoMc74GTIWY/beRKhKCzefM+8d3NFgtRUal97mIZ3nwSkBnwZPRKcEbOR6ibgt4AtPq2I8qvvJXvlNREXv/MNKTWcx96kfufjug8ixCj6oak/R0M/29dSCjyBfhKDhIwSCtdtI/vCa+a8UXGu8I+4cB59k+YDOxjuahhvfhu4G2iMls9cx+VW4J+BdaAvRKmla8lccjmOwgoSsxcveF5AaipDznr6m6vpPrGHvoYDZ26k3A/8GHhttnznOzEr0KfGNmBim5bRHCvt+ctFQmYJNkfuOeXx2Gl3lWhqiHDAi9/di6e/Hc9AB57+doa7GhhsrZHhoPdMeVuZPDo740I3ExZqZRLAGmATsHbsmnY3kxAKRmscRpO+4zQc8hH2jU7ZGnsO+tGPyO5HH+pV/D84PD0T3zKgHP3gVeHYlQnYAQuTR+hBPzLvRd/UOAB0MfX4/GnOw/H5/wXTTWOxGASjRQAAAABJRU5ErkJggg==;arcSize=20;" vertex="1" parent="1">
          <mxGeometry x="380" y="40" width="140" height="60" as="geometry" />
        </mxCell>
        <mxCell id="ILJUOrgNbJTJBXLJUpU8-11" style="edgeStyle=orthogonalEdgeStyle;rounded=0;orthogonalLoop=1;jettySize=auto;html=1;entryX=0;entryY=0.5;entryDx=0;entryDy=0;" edge="1" parent="1" source="ILJUOrgNbJTJBXLJUpU8-3" target="ILJUOrgNbJTJBXLJUpU8-6">
          <mxGeometry relative="1" as="geometry" />
        </mxCell>
        <mxCell id="ILJUOrgNbJTJBXLJUpU8-20" value="&lt;font style=&quot;font-size: 16px;&quot;&gt;&lt;b&gt;1&lt;/b&gt;&lt;/font&gt;" style="edgeLabel;html=1;align=center;verticalAlign=middle;resizable=0;points=[];" vertex="1" connectable="0" parent="ILJUOrgNbJTJBXLJUpU8-11">
          <mxGeometry x="0.0286" relative="1" as="geometry">
            <mxPoint as="offset" />
          </mxGeometry>
        </mxCell>
        <mxCell id="ILJUOrgNbJTJBXLJUpU8-26" style="edgeStyle=orthogonalEdgeStyle;rounded=0;orthogonalLoop=1;jettySize=auto;html=1;entryX=0;entryY=0.5;entryDx=0;entryDy=0;" edge="1" parent="1" source="ILJUOrgNbJTJBXLJUpU8-3" target="ILJUOrgNbJTJBXLJUpU8-2">
          <mxGeometry relative="1" as="geometry">
            <Array as="points">
              <mxPoint x="120" y="70" />
            </Array>
          </mxGeometry>
        </mxCell>
        <mxCell id="ILJUOrgNbJTJBXLJUpU8-27" value="&lt;font style=&quot;font-size: 16px;&quot;&gt;&lt;b&gt;6&lt;/b&gt;&lt;/font&gt;" style="edgeLabel;html=1;align=center;verticalAlign=middle;resizable=0;points=[];" vertex="1" connectable="0" parent="ILJUOrgNbJTJBXLJUpU8-26">
          <mxGeometry x="-0.7122" relative="1" as="geometry">
            <mxPoint as="offset" />
          </mxGeometry>
        </mxCell>
        <mxCell id="ILJUOrgNbJTJBXLJUpU8-3" value="Proyecto Node-red" style="label;whiteSpace=wrap;html=1;image=data:image/png,iVBORw0KGgoAAAANSUhEUgAAAeAAAAHgCAYAAAB91L6VAAAABHNCSVQICAgIfAhkiAAAAAlwSFlzAAAN1wAADdcBQiibeAAAABl0RVh0U29mdHdhcmUAd3d3Lmlua3NjYXBlLm9yZ5vuPBoAAAATdEVYdFRpdGxlAE5vZGUtUkVEIEljb263ONMiAAAAE3RFWHRBdXRob3IATmljayBPJ0xlYXJ5shBIkAAAAER0RVh0Q29weXJpZ2h0AENDIEF0dHJpYnV0aW9uIGh0dHA6Ly9jcmVhdGl2ZWNvbW1vbnMub3JnL2xpY2Vuc2VzL2J5LzMuMC/0x+/kAAAgAElEQVR4nO3dd3xV9f3H8fe9mZABSdhbVsJekSEggopQQFQEFAGttlpbFXGhdaF11AmO9le1rcWAAxwoS1SG7KmgQgJYVthCAlmQde/vj6APsci655zvufe+no8HD8Rf/Xze7c/knXPuGRIAAAAAAAAAAAAAAAAAAAAAAAAAAAAAAAAAAAAAAAAAAAAAAAAAAAAAAAAAADgdj+kAJoyXIpOk8/xSql9K80vNPVJDSVUkxfmlOI9UVVK8pCijYQEgeJVKKvBLhz1SoSp+HfFLOyRt8kqbPNKmXGnbeKnMaFIDwqKA/y4lFUu9/FJvj3SRpBaiWAHALUolZfqlhZLmx0qL/ijlGs5ku5At4InS+X5pmKQ+ktpL8hqOBAA4Mz5JX/ul+RHSe2OktaYD2SGkCvhFqa6kqz3SDaooXQBAkPNIWX7pvUhp0u3SNtN5rBL0BeyXPBOkgR7pTlWcXuZIFwBCk88vLfBKE8dIszyS33SgQARtAY+XvInSAI/0iKR003kAAI761iM9X0eaMkwqNx3mXARdAY+XvFWk0ZIekNTccBwAgFmb/NLTeVLG+IrPjoNGUBXwBKmjR/qbX+pqOgsAwFW+8kl/ultaYTrImQqKAp4gVfVLj3mkP0mKMJ0HAOBKPklTyqW77pEOmg5zOq4v4BelER5poqTqprMAAILCAb805i7pXdNBTsW1BTxeik2UnvFId5jOAgAIShll0q33VjyBy3VcWcATKx4ROVVSW9NZAABBLdMrDRsjfWc6yC+57p7ZCdIof8VTTyhfAECgWvik5ROlkaaD/JKrLmiaKI2T9DdJ0aazAABCRrSkq/pJleZKX5gO8yNXFLBf8lSVXpD0sOksAICQ1aOfVL2b9OlCFzxFy/hnwOOl6KrSJL90jeksAIDQ55E+OiyNGC8dM5zDnPFSdBXpE0mXmcwBAAg7c49Il4+XSkwFMHYKenzFIyWnSBpsKgMAIGw1jZWad5M+XGjodLSxq6CrSC+q4n29AACYMLyK9Kqp5UaOgCdWvMHofhO7AQD4mfMvk0rnSoudXuz4Z8ATpFGS3nJ6LwAAv8Iv6bqx0jtOLnW0gF+QmnulNZISnNwLAMBpFEjqPFbKdGqhY58Bj5divRWPl6R8AQBuEy9p6otSJacWOlbAVSqecNXOqX0AAJyl1h5pglPLHDkFffyVglOc2AUAQCD80vC7Ks7Y2sr2Av67lFQsbRLv8wUABIf9ktLGSoftXGL7Kehi6WlRvgCA4FHTL/3F7iW2HgG/JHXySSvlkpc+AABwhnx+qdtd0iq7Fth2BDxe8voqLryifAEAwcbrkV4db2NP2ja4ijRaUhe75gMAYLPzq0oj7BpuyynoqVLEbmmjpOZ2zAcAwAkeKeuw1Gq85LN6ti1HwHukq0X5AgCCnF9KqypdacdsywvYL3n80n1WzwUAwAS/9JDfhjPGll8gVUUa5JHusnouAACG1FomrfpM2mLlUMuPgD3SnVbPBADAJK801uqZlh5SvyjV9Ug7xK1HAIDQ4ouQGt4h7bJqoNVHwNeL8gUAhB6vT7rW0oFWDvPYeL8UAAAm+SsOMi1jWQFPlM6X1MqqeQAAuEyrCVJ7q4ZZVsB+aZhVswAAcCOPNNyqWZYVsEe62KpZAAC4kV/qY9UsS66CflFK9kg/yIHXGwIAYFC5pGpWvCvYqsLsZeEsAADcKsIv9bRikCWl6ZF6WzEHAAC381rUeVYeAQMAEPL8FhVwwJ8Bj5ciq0hFkqICjwMAgOuVHJHixktlgQwJ+Ag4QWosyhcAED6ik6WGgQ4JuIA9UmqgMwAACCalFnQfBQwAwFmyovusuAiLAgYAhBW3FHADC2YAABBMGgU6wIpT0ImBzgAAIJj4pYRAZwRcwFaEAAAgmHjcUMCS4i2YAQBAMHFFAXMEDAAIN64oYI6AAQDhxhUFHG3BDAAAgknA3ccrBAEAMIACBgDAAAoYAAADKGAAAAyggAEAMIACBgDAAAoYAAADKGAAAAyggAEAMIACBgDAAAoYAAADKGAAAAyggAEAMIACBgDAAAoYAAADKGAAAAyggAEAMIACBgDAAAoYAAADIk0HAGBGdEKCanXtquQWLZSUmqrk1FTF1a2rqMqVFZ2QoOgqVeTx8jM6rOEvL1dJXp6K8/JUVlSk/OxsHd68WTlZWcrJzNS+lStVWlhoOqajPIEOmCD5rQgCwGYej2p366bzBgxQ/d69VfP88+WN5GdwuEN5SYn2r1ql7PnztXXGDO1fs8Z0pNMaG2CHUsBAiEts1EgtRo9Wi1GjVLVpU9NxgDOSk5mpzIwMZWZkqGDXLtNxTooCBnBSKa1bK/2++5R67bUc6SJo+UpLtendd7X6qaeUk5VlOs4JKGAAJ6jarJl6PvusmgweLHkC/hIHXMHv82nz1Klaev/9ytuxw3QcSYEXMFdYACEiMjZWXceP18hvvlGTK66gfBFSPF6vUq+5RqMzM9V1/HhFxMSYjhQwjoCBEFCrc2f1f/ttVWnSxHQUwBE5GzdqzogR+mH9emMZOAIGwpnHow5jxmjo4sWUL8JKcsuWGr5ihTqMGWM6yjmjgIEgFVm5sgZ+8IF6TZyoiOho03EAx0XGxqrXxInql5ERlF8DFDAQhGKqVtVVc+eq6ZVXmo4CGJc2cqSu+PRTRScmmo5yVihgIMjE1a6toYsWqU6PHqajAK5Rv3dvDZk3T5WqVTMd5YxRwEAQialSRVfMnq1qbdqYjgK4Ts30dF0xZ46iExJMRzkjFDAQJCIrVdLlM2aoevv2pqMArlUzPV2DPv44KG5TooCBYODxqF9Ghur27Gk6CeB69Xv31iVvvGE6xmlRwEAQ6DBmjJoOGWI6BhA0Wowapda/+53pGKdEAQMuVzM9XT2eecZ0DCDoXPTKK67+yIYCBlwsMjZW/d9+OyjvcQRMi4yNVb+MDHmjokxHOSkKGHCx9PvvV9VmzUzHAIJWSuvWrn1aFgUMuFSVJk2UPm6c6RhA0Ov22GNKbNjQdIz/QQEDLtXzuecUGRtrOgYQ9CIrV9YFTzxhOsb/oIABF0pu0aLifb4ALJF67bWu+ziHAgZcqPODD8rj5csTsIonIkLp995rOsYJ+AoHXCaxYUM1Hz7cdAwg5LS4/nrF1a5tOsZPKGDAZVqMHi1vZKTpGEDIiYiOVtp115mO8RMKGHAZN32DAEJNyxtuMB3hJ/yYDbhIrS5dlJSa6vje8uJi7Zw3TzvmztXeZctUuG+fjh44oPKSEsezIDRFxsaqUvXqiq9fX/V69dJ5AwaozgUXSB6PozlSWrVS9Xbt9MP69Y7uPRkKGHCRxoMGObqvrKhI37z2mtY+/7wK9+xxdDfCS9mxY8rPzlZ+drb2Llum1U8/rZrp6brgySfVsG9fR7OcN2iQKwqYU9CAi9Tv08exXYc2bNA7nTtr0V13Ub4wYv+aNfrosss075Zb5CstdWxv/d69Hdt1KhQw4BJR8fGqmZ7uyK7vP/hA76Sn69CGDY7sA07l29df1yeDB8tXVubIvtoXXOCKh9xQwIBL1O7WzZGHxu/84gvNue46lR07Zvsu4ExtnzNHi+6+25FdkbGxqtm5syO7ToUCBlwiuUUL23cUHTigWUOHqry42PZdwNla9/LLyp4/35FdTny9nQ4FDLhEclqa7TuW3n+/ig8ftn0PcK6WPvCA5PfbvsfE3Qa/RAEDLpHUvLmt8/N37tTGSZNs3QEEat+qVdq3erXteyhgAD+Jr1fP1vmbp02T3+ezdQdghe2zZ9u+I8Hmr7czQQEDLhEVH2/rfCe+qQFW2LVwoe07ohMSbN9xOhQw4BJ2f0M4sm2brfMBq+Tv2mX7jigKGMCPouLi7Bvu96to71775gMWKtq/3/YdHAEDkCR5vF55IiJsm+/3+bjvF0Gj7OhR23c4cc/9aTOYDgAAQDiigAEAMIACBgDAAAoYAAADKGAAAAyggAEAMIACBgDAgEjTAYBwEJOUpMSGDRVXu7Zik5IUc/xX7M9+BxBeKGDAIjFJSarRvr1S2rRRlcaNldio0U+/YqpUMR0PgMtQwMA5iE1JUd0ePVS9QwdVb99e1du3V2LDhqZjAQgiFDBwBqLi4lS7Wzc1uOQSNbjkElXv0EEeL5dQADh3FDDwK+Lr1lWzq69W0yFDVLtbN3kj+XIBYB2+owA/82PpNhs6VLW7deMoF4BtKGDA41GDiy9Wm5tvVpMrr+RIF4Aj+E6DsBWdmKjUa65RhzFjlNyypek4AMIMBYywE5OUpE733KMOd9yhqPh403EAhCkKGGEjKi5O7W67TeePG6cYHnwBwDAKGCHPExGhtrfeqq6PPKJK1aubjgMAkihghLhqbdvqktdfV60uXUxHAYATUMAISZGVKil93Did/8ADioiONh0HAP4HBYyQU6NDB/1m6lRVbdrUdBQA+FU8ZQAhpcXo0Rq2ZAnlC8D1OAJGSIiKj9fFr72mtBEjTEcBgDNCASPoJaeladD06UpKTTUdBQDOGAWMoFbz/PN1xaxZ3F4EIOjwGTCCVv2LL9aQefMoXwBBiSNgBKW0kSPV99//ljcqynSUc1JaWKji3Fwdy8nRsdxcFefmqskVV5iOBcBBFDCCTttbb1Wfv/1N8nhMR/lV5SUlOrRhg3IyM5W3bZvytm//6Vd+drbKi4tP+M97vF6NKS83lBaACRQwgkraddep96uvuqt8/X798M032v3llzrw9df6Yd06HdqwQb7SUtPJALgYBYyg0XjQIPV98015vOYvXSjYtUvbZs9W9rx5yl6wQEd/+MF0JABBhgJGUKjfu7d+M3Wq0c98jx48qO1z5ijzrbeUPX++/D6fsSwAgh8FDNdLad1agz7+WJGxsc4v9/u14/PPte6VV7R99mxKF4BlKGC4Wmxysi6fPl3RCQmO7i0vKdHGN9/U1xMnKicry9HdAMIDBQzX8ni96jd5sqo0aeLYTr/Pp+8/+EBL//xnHf7+e8f2Agg/FDBcq8czz6hR//6O7du9eLHm33qrDm3Y4NhOAOGLAoYrNRs6VJ3uuceRXcW5uVo8bpy+++c/Jb/fkZ2/5Pf55C8vlyciwpb5Hq9XkbGxKjt2zJb5gJUiK1WyfYcbbhM0fz8H8AsJDRroktdec2TX7sWLldGmjb574w1j5fujkoIC+4Z7PIqrW9e++YCF4mrVsn1HSX6+7TtOhwKGq3i8Xl321luKSUqyd5Hfr9V//as+6NNHBbt327vrDJXaWcCSEhs1snU+YJV4B35YLKWAgROljxuner162bqjtKBAHw8apKUPPCBfWZmtu86G3T+RnzdggK3zAavU693b9h0cAQM/U6NTJ3V77DFbdxz94Qe937u3ts2aZeuec1Gwa5et85tdfbUrniIGnI4TPyzm2/z1dib4aoQreCMjdckbb9j6pKu8HTs0tWdP7V+zxrYdgcjdvNnW+Qn166vVjTfaugMIVJ3u3VUzPd32PbmbNtm+43QoYLhCp3vuUY0OHWybn7djh6b17OmKL7pf40S27k89pdjkZNv3AOfqgieecGTPYZt/4D0TFDCMq9q0qbo88oht84sOHNBHffsqPzvbth1WyMnMtH1HperVNeD99xURE2P7LuBsdRw7VvUuusiRXU58vZ0OBQyzPB5d/Prrtt33V3zkiKb362f76V0r7Fu50pGLwur37q3+77zjyL2WwJk6b8AA9Xj2WUd2lRcXa9/q1Y7sOhUKGEY1HzZM9W264tFfXq7Zw4bpwNdf2zLfaiV5eTqwdq0ju5peeaWuWbFCyWlpjuwDTqXDnXdq0PTp8kY682yofatWqayoyJFdp0IBw5jISpXU08afeJc88IB2fPaZbfPtkL1ggWO7qrVtqxFffaWLXn5ZCfXrO7YX+FHtrl01ZN489ZowwbHylaRdDn6dnYon0AETJLOPD0LQ6vLww+r2+OO2zN783nuafe21xp9udbbqXnihhn75peN7y0tKtGvhQu2YO1d7ly1TwZ49OnrgAI+uhGUiK1VS5Vq1FF+3rur37q3zBgxQrS5djGR5t2tX7Vu5MuA5YwPsUAoYRsTXravrN21SVFyc5bNzN23S2506qbSw0PLZdvN4vfrt1q1KbNjQdBQgJB3eskX/SU215IfzQAuYU9Awosczz9hSvr6yMs29/vqgLF+p4qUMm955x3QMIGRlvf22a86MUcBwXK0uXZQ2YoQts5c/8oglp5ZMyszIcM03CCCU+H0+ZU2ebDrGTyhgOMvjUa+JEyVPwJ9+/I89S5ZozTPPWD7XaTkbN2r73LmmYwAhZ+snn+jw99+bjvETChiOajFypGp37Wr53PLiYn1xyy3y+3yWzzYhFH6QANxmjUP3GZ8pChiOiaxcWd2fesqW2auefFI5GzfaMtuEXQsXau+KFaZjACEje/587V2+3HSME1DAcEynu+9WfL16ls/Nycpy3U+2Vlh87718FgxYwO/zaemf/2w6xv+ggOGIyjVqqNM999gye/4f/qDy4mJbZpu0Z8kSbXrvPdMxgKC38c03XXlxJgUMR3R7/HFFJyZaPnfLtGnaZeDBFU5ZfM89Ki0oMB0DCFoleXla9tBDpmOcVEDP/vL7/SFb4MW5uSotKlJpYaGK9u1T7ubNFb82bdK+FStUdOCA6YhBI7lFC7W66SbL55YdO6bF48ZZPtdNCnbv1pJx49T7b38zHQUISgvHjFHhvn2mY5xUQPeCHC/gcouyBA+/X4c2btSuBQu0fe5c7Zg7V77SUtOpXGvwjBk6b+BAy+eueuopLXvwQcvnuo7Ho0EffaQmgwebTgIElU3vvqs5115r23yjj6IM2wL+haMHD2rzu+8qMyND+1atMh3HVer37q0h8+dbPrdwzx79JzU1bE7PxqakaOT69YqvW9d0FCAo5G3bpikdOqj4yBHbdvAoSheoVK2a2t12m65ZuVLDlixR40GDbHnQRLDxeL3q+dxztsxe8sADYVO+knTs0CHNuOKKoH3EJuCkkvx8zbjqKlvL1woUsMXqdO+uyz/5RCPWrLHtPbfBosWoUarRqZPlc/evXu2qx8k5Zf+aNZozYoT85WF/0gn4Vb7SUs26+mr9sG6d6SinRQHbpEbHjhoyf776v/OO4urUMR3HcTFVqqiHHU9z8vu18M47Q+aJV2dr6yefaOEdd3B/MHAyfr++uPnmoHkPOAVss9RrrtH1WVlqMXq06SiO6jp+vCrXrGn53C0ffKC9y5ZZPjeYrP/73zX/j38M2x9CgJPxl5frs9/+Vhv/8x/TUc4YF2E5KDMjQ/P/+MeQ/+wyuWVLjVy3Tt6oKEvn+kpL9VarVjq8ZYulc4NV6rXX6rJJkyz/3xkINuUlJfr0uuu05f33Hd3LRVhBpMWoUbp21SolNmpkOoqter/6qi2l8O1rr1G+P7PpnXf0yeWX61hOjukogDFF+/fro759HS9fK1DADktu0ULDly9X9fbtTUexRfPhw225+KwkP18rn3jC8rnBbvunn2pK+/bc/oawtH/NGr3bpUvQPg2PAjYgrlYtXb1gger06GE6iqWi4uJ04fPP2zJ7zTPPqGj/fltmB7v87Gy9f9FFWv/qq3wujLDgKyvT2uee09Tu3ZW3Y4fpOOeMAjYkpmpVDZ45U9XbtTMdxTKdH3rIlrcdFezera8mTLB8bigpO3pUC26/XVN79NCh774zHQewzYGvvtK7Xbpo8X33qbykxHScgFDABsVUqaIr5sxRlcaNTUcJWI1OnWx729HyRx5RWVGRLbNDzd7lyzWlY0ctuvtunleOkFK4Z48W3Hab3u3SRQe++sp0HEtwFbQL5G7erHfS01WSn286yjmJiInRiDVrlNK6teWzD333nSa3b8/DJ85BVFyc2v3pT+p0zz2qVL266TjAOSncu1drnnlG3772msqOHTMd5wQ8CzpEbJ46VbOHDzcd45x0f+opnf/AA7bM/qhfP+2YO9eW2eEiIiZGjS+/XC1Hj1aj/v3liYgwHQk4Jb/Pp+z585WZkaEt06ap7OhR05FOigIOIfP+8Ad9+9prpmOclTo9eujqBQvkjQzozZYntW3mTH08aJDlc8NZYsOGOm/QIDXs21f1e/dWVHy86UiAJKn4yBFlz5+vnZ99pq0zZqhg927TkU6LAg4hZUVFeqtVK+Vt3246yhmJTUnRyHXrbLnwyldaqow2bZS7aZPls1HBGxWlmp06KaV1ayWlpSmlZUvF162r6IQExVStqujERI6WYRlfWZlK8/N1LDdXJfn5KsjOVk5mpnKysnTw22/1w9dfy1dWZjrmWQm0gK0/bME5i6xcWX3+/ndN/81vTEc5PY9Hl/7rX7aUrySte/VVytdmvtJS7V2xQntXrDAdBQhLXAXtMo369694naHLnX///ba9IL5o/36tfPxxW2YDgFtQwC7U49ln5fG69/81TYcM0QU2PpVq0T33qPjwYdvmA4AbuPe7fBhLTktT06uuMh3jpGp06qTLJk2y7QeE3YsXK2vKFFtmA4CbUMAudf6f/yx5Avp833JVmzXT4JkzFRUXZ8v88pISzfvDH3jXLYCwQAG7VI0OHWx5qcG5qtq0qa5esEBxtWrZtmPts88qZ+NG2+YDgJtQwC6WNnKk6QiSjpfvwoWKr1vXth0/rF+vlX/5i23zAcBtKGAXazZkiCIrVTKaoUaHDraXr6+0VJ/dcEPQP1gdAM5GQPcBezweXyi+o8YbFaVK1asrrmZN1ezcWQ0vu0wN+/a17bPPXxOdmKjGgwZp89Spju79UZMrrlC/yZNt/++96skn9cO6dbbuAAC3CfgqnwlSWFwxE5uSoo533ql2t9+umCpVHNu74V//0ue/+51j+yTJExGh8x94QN0ee8z226H2r16t97p3l6+01NY9AGC1QJ+ExSnoM3Ts0CEte/hhZbRurT1Llzq2t95FFzm2S5IS6tfXkC++0AV/+Yvt5Vt8+LBmDR9O+QIISxTwWSrYtUvv9+6tzLfecmRflSZNlNCggf2LPB6lXXedRq5f70zp+/367Le/Vd62bfbvAgAXooDPga+0VJ/fdJO2zZ7tyL5aXbrYOr9a27a6esEC9Zs8WTFJSbbu+tFXEyfqv9OnO7ILANyIAj5HvrIyzbn2WhXu22f7rqRmzWyZG1+3rnq/+qpGrF2rer162bLjZPYuW6Yl48Y5tg8A3IgCDkBJXp6W2vQi+p+ranEBJzZsqIteekk3bNmidn/6ky3v8v01edu2acaVV/K5L4CwRwEHaOOkScrPzrZ1hxUF7PF61eCSS9T/7bd1w5Ytan/HHY7fY3wsJ0cf9e+vogMHHN0LAG7E+4AD5ffr+w8+UIc777RtRaVq1c75n63arJnSrrtOLW+4QYkNG1qY6uyUFxdr5lVX8Y5fADiOArbA9k8/tbWAo+Ljz/g/642MVN2ePdVowAA1HjhQSamptuU6U36fT5/feKN2ffml6SgA4BoUsAXytm+3df6pCjg2JUW1unRR7S5dKn7v1k3RiYm25jkbfp9Pn990k7Leftt0FABwFQrYAgW7d9s6PyouTnG1ayspNVVJzZuravPmSk5NVVJamqo2bWrr7kD8eOS7cdIk01EAwHUoYAuUFRXZOt8bGanf79lj6w6rUb4AcGoUMCznKy3VZzfeqKzJk01HAQDX4jYkWMvv14Lbb1fWlCmmkwCAq/E2JAt4vF6NKS83HcNVyktKVLBrl3I2btShDRt0ZOtWHdq4UQfXr1dJfr7peAAQsEDfhkQBW4ACPjv5O3cqd/Nm5WzcqANffaUDX32lnMxM+crKTEcDgDMWaAHzGTAcl9CggRIaNFCDSy756e/5Skt1eMsW7V+7VgfWrv3p97KjRw0mBQD7cARsAY6A7VFeUqJD332nvStWaM+SJdq9aJHtt3wBwJniFLQLUMDOKdy7V3uWLNGepUu1e8kSHfjqK8kf9v8KAjCAAnYBCticwn37tGfxYu2cN0/b58xR/s6dpiMBCBMUsAtQwO5xZOtWbZs5U1tnzNDuRYtUXlJiOhKAEEUBuwAF7E4leXna+fnn2jZnjrbPnq3CvXtNRwIQQihgF6CA3c/v82nv8uXaMm2aNk+bpsIge7QnAPehgF2AAg4uJ5Txe++pcN8+05EABCEK2AUo4ODlLy/XroULlfX229o8dapKCwpMRwIQJChgF6CAQ0PZsWPaNmOGvn39de2cN4/bmwCcUqAFzMsYgOMiY2PVbOhQXfX55xq9caPSx41TperVTccCEKIoYOAkktPS1OOvf9XvsrP1m3ffVe1u3UxHAhBiKGDgFCJiYtR8+HANX7ZMI9asUYvRo+WN5BHqAAJHAQNnqEanTrps0iTdtHOnuo4fr5ikJNORAAQxLsKygN0XYfl9Pr3TubOi4uIUER2tiJgYRVauLG9kpKITEiTppzKITkyUNyJCkZUrKyImRhExMYqOj1dMUpJikpIUe/z3mCpVbMsbLkry8vTtG29o7XPPqWj/ftNxADiMq6BdwIkCfikiwtKZHq/3hEI+2e+Va9ZUfL16iqtTR4kNGiiycmVLM4SKsqIiffOPf2jNs89SxEAYoYBdIBgL+FzEVK2q+Lp1FV+vnuLr1FF8/foVfz7+1wn16ik2JcV0TGPKioq0/v/+jyNiIExQwC4QLgV8JmJTUpTUvLmS09KUlJqqqsf/ukqTJoqIjjYdzxE/FvHqp5/WsUOHTMcBYBMK2AUo4NPzRkYqsVEjJaWm/lTOKW3aqHr79oqMjTUdzxbFubla9eSTWvfqqyovLjYdB4DFKGAXoIDPnTcyUkmpqarRqZNqduqkGsd/hVIp52dna9lDDykzI4OnawEhhAJ2AQrYWhHR0arWrp1qpqerZnq6anXurJRWrSRPwP+6GrV3+XItuvtu7V2+3HQUABaggF2AArZfperVVe+ii9Tgkp/lFr4AABrUSURBVEtUt0cPJbdsaTrSufH7lTl5shbfc4+KDhwwnQZAAChgF6CAnRdXu7bq9OihBpdcokb9+yuhfn3Tkc5KcW6uVjz2mNa98or8Pp/pOADOAQXsAhSweSmtWqnxoEFqetVVqpmeHjSnq/csXar5t96qg99+azoKgLNEAbsABewuCQ0aqOlVV6npVVepTvfu8njd/cRVX2mp1r7wglaMH8/V0kAQoYBdgAJ2r0rVqqnRb36j5kOHqkHfvq6+Fzln40bNveEG7V+92nQUAGeA9wEDp3D04EFlvvWWPh40SP+sV0+L7r5bORs3mo51UsktW2r4smW64IknXP2DAgBrcARsAY6Ag0+d7t3V6qab1HzYMEXFxZmO8z8OfvONPrvhBh34+mvTUQD8Co6AgXOwZ+lSfX7jjXqjTh3Nvf567fziC9ORTlCtbVtds2qVuo4f7/rPsAGcG76yEdZK8vKU+dZb+vDSS/V2ero2v/ee/DaezTgb3shIdX30UV0xZ47iatUyHQeAxShg4LgDa9dq9jXX6M1mzbTu5ZdVVlRkOpIkqWHfvhr5zTc6b+BA01EAWIgCtoDd78n1lZbaOh8nytu2TQvHjNG/zztPq554QsdyckxHUqXq1TX4k0904YsvyhsVZToOAAtQwBaIr1vX1vkl+fm2zsfJFR04oGUPP6x/NWyoRXffraMHD5oN5PGo49ixGrpwoe3/zgGwHwVsgYQGDWydX0oBG1VaUKCvXnxRbzZpolVPPmn81HTtCy7QiK++Uv0+fYzmABAYCtgCDS+91Nb5HAG7Q0lenpY99JDebNZM377+unxlZcayVK5RQ1d99pk6//nPQfPYTQAnooAt0HjwYFvn5+/aZet8nJ3CPXs075ZbNLlNG33/4YfG3vHriYjQBU8+qUEffaTohAQjGQCcOwo4QA379lVS8+a27sjdtMnW+Tg3OVlZmjlkiN7v00c5mZnGcjQZPFjDly9XlSZNjGUAcPYo4AB4vF51f/pp2/cc3rzZ9h04d7sWLtTkdu305Z13qrSgwEiGlFatdO2qVWpg88chAKxDAQeg/R13qEbHjrbvMXl0hTPjKy3V1y+9pMnt2mn7p58ayRCbnKwrZs9WhzFjjOwHcHYo4HNUv08f9XzuOdv3lBcXa9+qVbbvgTWObN2q6f37a9awYSrcu9fx/d7ISPWaOFEX/+Mf8kZGOr4fwJmjgM9B/d69NfD99x35Brd3xQqVHT1q+x5Ya8u0acpo3Vqb33vPyP42t9yiwTNnKjox0ch+AKdHAZ8Nj0dtbrlFV86dq5ikJEdW7lq40JE9sN6xnBzNvuYazRkxQsW5uY7vb3jZZRq2ZInt96kDODcU8Bmq1aWLhi9dWnFqz8FHAW6dMcOxXbDHpnfeUUbbttr5+eeO767Wpo2uWbFCNdPTHd8N4NR4H/BJRERHK652bSU0aKC6vXqp2ZAhqt6+veM5cjIz9VbLlo7vhU08HrX705/U89lnFVmpkqOry4qK9OnIkfr+o48c3QuEskDfBxzQP+z3+72S3PHuthC07KGHtOrJJ03HgMWqt2unAdOmqWqzZo7u9ft8WnLffVr7wguO7kXoioyNVc3zz1dKq1aq2qyZklJTldiwoaLi4hRTtaoi4+IUER1tOqYt/D6fvBERFHAo8pWV6T9Nmypvxw7TUWCD6MREXfrPf6rZ0KGO7/7mH//QwttvN/ooTQSvGh07qvHll6veRRepVpcuioyNNR3JCAo4hGVNnqxPR40yHQM2a3/77er5/POOHyVs//RTzR42jOeM44wkNmyotFGjlDZihJJbtDAdxxUo4BDl9/k0uW1bHdqwwXQUOKBW5876zdSpSmzY0NG9P6xbp48HDlTB7t2O7kXwqN6unTrdd5+aDxvGfeW/QAGHqO8//FAzhwwxHQMOqlStmgZMm6Z6F13k6N787Gx9PGCADn77raN74W7JaWnq+fzzOu83v+FtW7+CAg5B5cXFmty2rXJ5/nPY8UZG6oInnlD6uHGO7i0tKNCs4cO1ffZsR/fCfaLi4tTp3nt1/v33KyImxnQcV7OigLkP2GXWPPMM5RumfGVlWnL//fri5ptVXlLi2N6o+HhdPn26Wt14o2M74T71+/TR9Zs2qeujj1K+DuEI2EWObN2qjNatefQkVKd7dw384ANVrlnT0b0r//IXLX/0UWPvOIbzvFFR6vb440q/7z55vByTnSlOQYcQX2mppl14ofauWGE6ClwioUEDDZ45U9XatHF0b2ZGhr743e8cPQqHGbHJyRo0fbrq9uxpOkrQ4RR0CFn64IOUL06Qv3On3rvgAm2bNcvRvS1GjdKQ+fNVqVo1R/fCWYmNGmnY0qWUr0EcAbvA1hkz9MngwZz2w0l5IyPV5+9/V+vf/97RvTkbN2r6wIHK27bN0b2wX0qrVrrq888VV7u26ShBi1PQIWD/6tV6v08flRYUmI4Cl+swZowufPFFRz+nO3bokGZefTVv5QohVZo00bBFixRXp47pKEGNAg5yR/77X73XvbuK9u83HQVBoumQIeqXkeHoyxzKS0o0/w9/0IY333RsJ+wRV6eOhi9ZosTzzjMdJejxGXAQy928WR9cfDHli7Py/Qcf6IOLL9bRH35wbGdEdLQu/fe/1fPZZ7lKNohFxsZq8IwZlK+L8NVkwP41azS1Rw9etIBzsnf5cr3brZtyN21ydG+ne+/VoOnTFZ2Y6OheWOOil19WjY4dTcfAz3AK2mHb58zR7OHDeQg+AhabnKyBH36oer16Obo3d9MmzbjqKuVs3OjoXpy7FqNH67JJk0zHCCmcgg4i/vJyLXvoIX08cCDlC0scy8nRR337KjMjw9G9SampunblSjW7+mpH9+LcxNWpo96vvGI6Bk6CAnZAfna2PrjkEq168kn5fT7TcRBCyktKNPf667Vi/HhHb2OLio/XgKlTKz4XjohwbC/O3kUvvcTHBi7FKWgb+UpL9fVLL2nFY49xmxFsl3bddbr0X/9y/Dm+2fPn69ORI1W4d6+je3F65w0YoMEzZ5qOEZK4DcnFtn/6qRbfe68Offed6SgII3V79tSgjz5SbEqKo3uP/vCDPvvtbx1/ahd+ncfr1cj165XSurXpKCGJz4Ddxu/Xtpkz9W7Xrprevz/lC8ftXrxY73TurJysLEf3VqpeXYNnzNDFr72myMqVHd2Nk2ty5ZWUr8txBGyB/J07lTl5sjLfesvxW0OAk4lNSdGgDz9U3QsvdHz3D+vXa8611yonM9Px3TjO49F1X32l6u3bm04SsjgFbYi/vFwHvv5a2fPna/ucOdq9aBEXV8F1ImJidMkbb6jFqFGO7y4rKtKyhx/W1y+9JH952H2LMK7eRRfp6gULTMcIaRSwjYpzc1VSUKDS/HwV7tun3M2blbtpk3KzsrR35UoV5+aajgicnsejro88oq6PPip5AvpyPyf7Vq7U5zfdpEMbNji+O5z1/c9/1PL6603HCGnGC1iSJki8wgdwOVNXSEsVt0qtevJJrX76aflKSx3fH26i4uN18969ioqPd3x3fna2tn78sbbNmqW87dtVsHt3SD/3YGyAHUoBA2GiTo8eGvj++6pcs6aR/Qe/+UbzbrmF917bLG3ECPWbMsXRnQW7dmn5I49o46RJYfVxXKAFzFXQQJjYs2SJ3k5P1/7Vq43sr9a2rYYvW6Z+kycrvl49IxnCQYNLL3V03/cffqhJaWna8OabYVW+VqCAgTBSsGuXpl14oTLfestMAI9Hadddpxs2bVLXRx/lliUb1L/4Ysd2rXv5Zc0aOlSlhYWO7QwlFDAQZsqOHdPc66/Xl2PHyldWZiRDZOXK6jp+vK7PylLaiBFGLhALRUnNmyuhfn1Hdm2bOVNfjh3LUW8AKGAgTH09caI+uuwyFR04YCxDQv366jdlikauW6dmQ4fyvuEAOfW6wcI9e/TpyJGUb4D4tx0IY9nz52tymzba+cUXRnNUa9tWA6ZO1ahvv1WL0aN5wcM5SkpLc2TPqqeeUvGRI47sCmUUMBDmig4c0PT+/bXqqaccfaPSySS3bKnLJk3SqO++U9rIkRTxWUp2oIAL9+3Td2+8YfuecEABA5CvrEzLHnxQ0wcM0NGDB03HUXJamvplZOjGrVvV+cEHjd06FWyqNm1q+47ts2apvKTE9j3hgAIG8JPtc+ZoSocO2r14sekokqSEBg10wRNP6KadO9X/nXdUt2dP05FcLSYpyfYd22bPtn1HuKCAAZygYNcuvd+7t5bcf79rjnQioqOVes01GrpokUZ+843a3nqrI2UTbKITEmzfwUs2rMOTsAD8qpTWrdUvI8OVb9Xxl5cre8ECZWZk6L/Tp6skL890JONuO3pUkbGxtu74v+RknoV/HI+iBGCriJgYXfDEE+p4112uvU2o7OhRbZ8zR5vfe09bZ85UWVGR6UiO83i9GmP3m6f8fk2MiDB+sZ5bUMAAHFGvVy9d+u9/q0rjxqajnFJpYaG2z5mjnZ9/rh2ffaa87dtNR3KEEwXs9/n0Elem/4QCBuCYyEqVlD5unM5/4AFFREebjnNGjmzdqp1ffFHx6/PPVXz4sOlItvBERGiMzU82o4BPRAEDcFy1tm118WuvqXbXrqajnBVfWZn2rVih7PnztW/VKu1fvdrok8CsxBGw8yhgAGZ4PGoxapR6vfiiYlNSTKc5Z4V79+rA2rXav3atDqxdq92LFwflUTJHwM6jgAEYFVe7ti584QWlXnNNSLxUwV9erkMbNujA118rNytLuZs3KycrS0e+/941t2WdDAXsPAoYgCvU6tJFFz7/vOr06GE6ii18ZWXK275duVlZysnKUu6mTcrdvFlHtm5V0f798pWWGs1HATuPAgbgKk2HDFGPv/7Vkcciuobfr8L9+1W4Z48Kdu9Wwe7dKty7VwXZ2Srcu1f5u3apaP9+HTt0yLY3CFHAzqOAAbhORHS02t56q7o8/HBQfz5sh5L8fJUcOaLiI0dUfPiwio8c+enPJUeO6Fhu7k9//vF9zaWFhfIdP/1ddvSoyo4dkySVFxf/dM+z3+fTjdu22ZqdAj4RBQzAtWKSktTprrvU7rbbFFO1quk4CBAFfKJAC9idj7UBEBKKc3O17OGH9a8GDfTlnXeqcN8+05EA16CAAdiuJD9fX7/0kv7TtGlFEe/ZYzoSYBwFDMAxpYWF+vqll/Rm06ZaeMcdytuxw3QkwBgKGIDjyo4e1bpXXtGbjRvrw0sv1ZZp0+S3+0UCgMtQwACM8ft82vnFF5o1bJj+k5qqNc88o6MHD5qOBTiCAgbgCkf++18tuf9+/bNePc0aNkx7li41HQmwFbchAXCtlFat1GzoUKVdd114PdjDpbgN6UTcBwwgLKS0aqUWo0apxejRiqtd23ScsEQBn4gCBhBWPBERqt+nj1KvvVZNr7ySB3w4iAI+EQUMIGx5IiJUvX17NR40SI0HDlSNjh1D4o1MbkUBn4gCBoDjKteoobq9ev1UyDFJSaYjhRQK+EQUMACchDcyUrW7dVPDvn1Vp2dP1UxPV1RcnOlYQY0CPlGgBRxpVRAAcBNfWZl2L16s3YsXS6o4XZ2clqY63burTo8eqtmpk5JbtjScEuGMI2AAYSu+bl3V7tZNtS+4QLW7dFFK69aKTkw0Hcu1OAI+EaegAcBCcXXqKKVlS6W0aqXk479Xb9dOUfHxpqMZRwGfiFPQAGChwj17VLhnj3Z+8cVPf8/j9SrxvPOU0qqVUlq1UlJqqhIaNFBigwaKr19fEdHRBhMjWHEEDAABiklKUpXGjVWlcWPF16mjuNq1f/pz3PE/hwKOgE/EETAAGFacm6sDa9fqwNq1J/2/R0RHKzY5WTHJyYo9/qtSSsoJf69SSopij/+96MRERcXFKSI6Wt6oKE5/hygKGABsVl5SosJ9+1S4b19Ac368r/nHco6Ijlbk8VurKqWk6Mq5cwPOCudQwAAQJIpzc0/4/ec8nBoOOryOEAAAAyhgAAAMoIABADCAAgYAwAAKGAAAAyhgAAAMoIABIAT4fT7bd3g8HskT8AMUcRwFDAChwO9X2dGj9u7weFQpJcXeHWGEAgaAEFGSn2/7jlB5rrUbUMAAECJKCwps31GjY0fbd4QLChgAQsTRgwdt39H48stt3xEuKGAACBGHt2yxfUejfv0UV6uW7XvCAQUMACEid9Mm23dEVq6sbo8/bvuecEABA0CIyMnKcmRPqxtvVMO+fR3ZFcooYAAIEfvXrHFkjyciQgOmTVONDh0c2ReqKGAACBF527Ypb/t2R3ZFJyZq6KJFShsxwpF9oYgCBoAQkj1/vmO7ouLj1W/KFA388EOOhs9BRKAD+knjLcgBALBAVFycmg0Z4ujO5BYt1Obmm9Xg0kuVUL++5PHIExEhX2mpfCUljmZx0lzpsUD++YAf6jlB8gc6AwBgjai4ON28b5+i4uNNRwlpfp9P3oiIgDqUU9AAEEJKCwv1/UcfmY6BM0ABA0CIyczIMB0BZ4ACBoAQs/OLL3RowwbTMXAaFDAAhBq/X2uefdZ0CpwGBQwAIShryhQd+e9/TcfAKVDAABCC/OXlWvnEE6Zj4BQoYAAIURsnTdLuRYtMx8CvoIABIFT5/Vpw223ylZWZToKToIABIIQd/PZbffXii6Zj4CQoYAAIccseekh7ly83HQO/QAEDQIjzlZZq9jXX6FhOjuko+BkKGADCQP7OnZo7ejSfB7sIBQwAYWLbrFn67Le/lfy8Q8cNKGAACCNZkydr+aOPmo4BUcAAEHZW/uUvWnL//aZjhD0KGADC0JpnntH8W2+V3+czHSVsUcAAEKa++cc/NGvoUJXk5ZmOEpYoYAAIY99/+KHeTk/XD+vXm44SdihgAAhzh7ds0Xvduumbf/yDU9IOooABACo7elTzb71V73TurANr15qOExYoYADATw6sXat3u3XTl2PHqmj/ftNxQpon0AETJO7oBoAQFBETo5bXX68ujzyi+Lp1TcdxFb/PJ29EREAdSgEDAE4pIjpaDS+7TC1GjVKTK66QNyrKdCTjKGAAgKMq16ypJoMHq/7FF6t+nz6qVK2a6UhGUMAAAGM8Xq+qtWmjlDZtlJyWpuS0NCU0bKjY5GRFJyQoKiFBkbGxpmPaggIGAMCQsQF2KFdBAwBgAAUMAIABFDAAAAZQwAAAGEABAwBgAAUMAIABFDAAAAZQwAAAGEABAwBgAAUMAIABFDAAAAZQwAAAGEABAwBgAAUMAIABFDAAAAZQwAAAGEABAwBgAAUMAIABFDAAAAZQwAAAGEABAwBgAAUMAIABFDAAAAZQwAAAGEABAwBggBUFXGLBDAAAgknA3WdFARdYMAMAgGCSH+gAKwo44BAAAAQZVxQwR8AAgHBjvoA9HAEDAMKM3w0F7JfyAp0BAEAw8VrQfVYU8I5AZwAAEGS2BzrAis+AN1kwAwCAoOG3oPsCLmAvBQwACD/mC9hDAQMAwo/5As6VtomnYQEAwkdJXQuufwq4gMdLZZIyA50DAEAw8Egbhknlgc6x5GUMfulLK+YAAOB2fmmBFXMsKWCPRWEAAHA7qzrPqtcRLpQFh+MAALhcuV9aYsUgSwp4rHRY0norZgEA4GJrjndewKw6ApZfmmfVLAAAXGq+VYMsK2BJUy2cBQCA6/ik96ya5bFqkCRNkL6V1NrKmQAAuMSGsRZ2nJVHwJL0tsXzAABwBY80ycp5lhawX3pLXA0NAAg9Pq/0jpUDLS3gu6Td/opbkgAACCXz7pB2WTnQ6lPQ8koTrZ4JAIBhE6weaOlFWD+aIK2V1NGO2QAAOGzdnVJHj+S3cqjlR8CS5JeesWMuAAAG/MXq8pVsKuA86X3xnmAAQPDLPCJNt2OwLQU8XvL5paftmA0AgIOeHC/57BhsSwFLUp6UIWmlXfMBALDZ6iMW33r0c7ZchPWjl6ROvooSjrBzDwAAFiv3SeffLX1t1wLbjoAlaUzF1dCv27kDAACr+aW/2Vm+ks0FLEkx0oOSDti9BwAAi+z3SI/avcT2Av6jlOuXxti9BwAAi9xm1Tt/T8WRz2bnSt/1k+qJh3MAANzt/8ZKzzmxyPYj4B8dkW6XtM6pfQAAnKVv/dLdTi2z9SroX3pJauaruDArwcm9AACcRkG5dP49UpZTCx07ApakMdIWj/RH2fBILwAAzpHfL/3eyfKVDNyf+6n0TT+pTFIfp3cDAPBLHumBsdJrTu818oCMudLiflJVSV1N7AcAQJI80t/vlP5sYrejp6B/7k7pLklvmdoPAAhvHundwxUXCBthrIA9kv+I9HtJc01lAACEJ4/06WHp+vE2vWjhTBh9RvNCqbybNDVWaiqpjcksAICw8eERadh4qdhkCOMvSVgolX8qfbhCipN0gek8AICQ9soR6abxUqnpII7eB3w6L0pjPNIEuSwXACDo+SU9PlYabzrIj1xXdBOka1XxBqV401kAACEh3y/dfJf0rukgP+e6ApakF6TmXuk9Se1NZwEABC+/tFHSsLukDaaz/JLxz4BP5jPpUDdpUoyU6JG6mM4DAAhKGXHS4NulPaaDnIwrj4B/7kVpmEd6WVJN01kAAO7nkfZJuuNOaZrpLKfiyiPgn5srbegn/dMvVfZI6TJ47zIAwNV8kiZHSYPvkNaYDnM6rj8C/rkJFZ8J/11SN9NZAACustYv/fEuaZXpIGcqqI4mx0rrjkg9JI2WlGk6DwDArOMXWY08InUOpvKVguwI+OfGS95EaYBHeljS+abzAAAc9Y1HeqGONGWYVG46zLkI2gL+kV/yvCj190pjVfGKw6A6qgcAnDGfpHk+aeJd0hxPkL9bPugL+OdekeqUSkM9FaeoO5rOAwAInF/a6Km4ovk/Y6XtpvNYJaQK+OdekDpESMP80sWqKGPXX/ENAJBUcUp5rSqOdt+7W1pvOpAdQraAf+6vUpVo6UJPxSnqiyS1lBRtNhUA4LgST8WTqhb6pAWR0pd3SHmmQ9ktLAr4l6ZKEfukRqVSqldKk9RcUiNJiap4K1O8pKTjf01RA8C5KZFUKClXUsHxv85TxWnkzZIyI6TNtaTtwXohFQAAAAAAAAAAAAAAAAAAAAAAAAAAAAAAAAAAAAAAAAAAAAAAAAAAAAAAAAAAsNf/AzpyTnByhlj2AAAAAElFTkSuQmCC;arcSize=20;" vertex="1" parent="1">
          <mxGeometry x="50" y="220" width="140" height="60" as="geometry" />
        </mxCell>
        <mxCell id="ILJUOrgNbJTJBXLJUpU8-7" value="Servidor web" style="swimlane;whiteSpace=wrap;html=1;" vertex="1" parent="1">
          <mxGeometry x="270" y="140" width="400" height="230" as="geometry" />
        </mxCell>
        <mxCell id="ILJUOrgNbJTJBXLJUpU8-28" style="edgeStyle=orthogonalEdgeStyle;rounded=0;orthogonalLoop=1;jettySize=auto;html=1;entryX=1;entryY=0.5;entryDx=0;entryDy=0;" edge="1" parent="ILJUOrgNbJTJBXLJUpU8-7" source="ILJUOrgNbJTJBXLJUpU8-9" target="ILJUOrgNbJTJBXLJUpU8-13">
          <mxGeometry relative="1" as="geometry" />
        </mxCell>
        <mxCell id="ILJUOrgNbJTJBXLJUpU8-29" value="&lt;font style=&quot;font-size: 16px;&quot;&gt;&lt;b&gt;4&lt;/b&gt;&lt;/font&gt;" style="edgeLabel;html=1;align=center;verticalAlign=middle;resizable=0;points=[];" vertex="1" connectable="0" parent="ILJUOrgNbJTJBXLJUpU8-28">
          <mxGeometry x="-0.4667" y="2" relative="1" as="geometry">
            <mxPoint x="-2" y="2" as="offset" />
          </mxGeometry>
        </mxCell>
        <mxCell id="ILJUOrgNbJTJBXLJUpU8-9" value="Sitio web" style="label;whiteSpace=wrap;html=1;image=data:image/png,iVBORw0KGgoAAAANSUhEUgAAAEAAAABACAYAAACqaXHeAAAABHNCSVQICAgIfAhkiAAAAAlwSFlzAAAB2AAAAdgB+lymcgAAABl0RVh0U29mdHdhcmUAd3d3Lmlua3NjYXBlLm9yZ5vuPBoAAA8hSURBVHic1Zt5lNTVlcc/r7aurt43et9YGhBBZFGg6cUWAUWgQ4ImxjE6zqCH0AmZOZiYMB41UTMmRhLcZ05OgokmSlRwIUaRHSSgoogIAk3TK9D0Qnfty5s/flW/2qurWmTke06ffst92/3dd9+9970SfMVYunSp9qw9/0q3pEaDuEwiq4BSIBNI9ZINAn1Aq5QcQXBYejTbC02dB15++WX3Vzk/8VV0Wl9/v86TenYuQtwGzENZ7HDQJ2GTBp4fYTz9j6+CGReUAdWL7knTSvNyED8ECi9k30CnlOJxjyb5mV0bHx24UJ1eEAZMXbZMb+pIWimEvBfIiqfNqIpibmq8Bilh/cYtHGtuj3e4HiHlQ2Iw73dbt97vGvakvfjSDKhZtKJaI3lWwoTQuorSAupmTUYiWffXt9XyyRPH8MjquzAlJwHgcDhZ/cj/sveDz1Sa226eh0CwbfcBTrZ2RRr6oJDyrm1vPLnny8z/yzBA1C5a8QMkvwL0gRUTx4/kjltuYOoVY3E4nPzL8l/QdaYHgNzsDNY99TNSTMlBnZktNm5f8TBnunsBKMzPYd2TP8Ng0HPw8AleWP8Oe/YfQkoZ2MyF4KHtU3If5P77PcNZhHY4jeqXLk8tG3X1a0BTYB8TxlXy0E+XcdvN8ygqyAXgtU072bz9A7XtfavuYGR5UVifBr2OksI8lXbQbCUnK53xVeXk52Uxp24as666nBMtHZzt7vM10wD1FZ2WqWMrajceP77bmehaEmZA/cJluR6X7m2g3ldmSk5i+Z1L+I/lN5OXk6HSSil5eM3znB8wAzBlUhX/duuNUfsuLR7Bx58eU6Wlo6ubbyyoRQhFUHOyM7h+zgwy0lM4+NlxnC71UKhy6VwNoydMf635833WRNajSYS4vnFlpoekzcBVvrKiglyefWwVSxbUohHBO2r/gSO0tp9R80sXXzPkGDctblDTp9rPsP/AkeAJC8E3b6zj2cdWUVyYF1g1w+USm+csXZZBAoibATOX/ijZ43FtBDnJVza+qpxnH1tFWUl+xDZbd32kpkuK8pgxLUxPhmHG9AmUFPkXFthHIMpK8nnm1//JpAmj1DIJVzhshg319bcbh16RgrgZoLc7n0FSE1h28lQXf3tjK1abPYxeSsn7+w+p+YaaKWESEnFCQtBQM0XNvx+u+ACwO5y8/vZujjd3hFbVudNSnxpyIN948RDVLGy6HcltoeVWm50/vLiJW+56kA2bdmB3+HXQ0eOtdPf0q/mZ0y+Pd05BtN09/Rw93qrmnU4Xb76zh+/e/SDPrduI2RK+5QXcUXtjU9h8I2FIJdhww/fLpYY3AQNAVmYa9dWTaT7VqX4Zq83Onv2HePXN7XSf6yMvN5Odew9y4NNj+Np8/84lqjIbCjnZGWz8+05sNoeaz85M48/r/8FDjz/Pezs+xGKxqfQaIVgwdxY9veexWO0+LlxXPn7an1qO7Dv/pRhQOm7GH4GJAEIIVt61hG8trKehZhptHWfoPH1OpXU4XRz+ooUNm3Zy6MhJPB7laG6YPYWaGZMi9h8JQghaWrv44kQbAJ8dbWH961s5dORkkJSBYnM8+JM7WXz9bCrLCnh3m3rkGpCivOXoP1+KOVasypoFK+YJDX/35eddM407vjOfvLxcdFqFdx9+cpQ//mWT+rUjQafVUlSYS0VpAWXF+aSnp2BKTiIt1QTAwKAFq9VO/4CZ1vYztLR20d55NvCYC8OEcZV87+b5XD31sqDy3zz9Ehs27VDzGo24buuGte9GnVssBggN/+VLZ2Wmc8s3r8Wg16uLB+VsnzKpimMn2nj1rR1s3fURg+bgfelyuznVdppTbadjDTckTMlJ1M2aTOMNNYwbUx6RZvkdjex8/2PO9SqS75HyPiAqA6JugfobV9RL4WfAtxfXM25MKSaTCYPBEEafnZVO9VUTuWnxNdgdTg593hz/yuLA0kXX8KsHllNffSW5OdG9a51Oi9Bo2PfRYV9Refm46VtajuxriUgfrSOP4G5fOjMjlYbaKwEiLj4Qer0OY5KfZnRlMbd/+3pOtZ+hpa2Lto6zWCw2LDa7qsiSjUmYkpMwmYyUFOZRXlpAafEI/vDiJk60KMecyWQkyaCPOGYoFs2v5oX179Dbr3jNUoq7ge1xM6C+cWWmx+1a7MvfcO1VGPQ6dYFDoeN0t5ouLymgZuYVcU08FFt3faQyIFDZDgVjkoFvLarnf55/HQABjVdf35S+d9PasBMhoh3gdrsbAdWamjldseB0Ol1cR1lnl3+yhfk5cU88FIFtO7u6Y1CGI9CYApKNOs/iSHQRGaBBXutLV5QWqA5OoPKLhfaAyRYWDJ8BBSMCGJCABIDiowR6nRJxbSS6iAyQoHot0yZX+Yk1QxuOHinp6x9U8yNy4woQRUR+nr9tT+/5iCZxLMyeMdGfEcTHgOpFK4qAYl/+srEV/j40Q4u/xWILmmhqanIM6thITfG39Ujpt/LixLTJ4/wZSUnNkpVhccowBujQjA3MF+Znq2kRRwDJHGCiAqSahs+AlJTQqFFCrj6jK0uCdZbTXRVKE8YAKaVKZEwykJme4q9jaBEMnaTJFLdnGobUkLZmsy0KZWSkmIxkZ6apeY2QY0NpIpxpMteXysvNCBI7jweEiK0Iu8/1BeU9Hg8Dg5b4Zx3YNmTPnz3XR25OQvEOsrLSVasQKXJD68NkunZh0y9B/jihUS4d/HL760/cG1gQvgWQpos3n4sLCSmhZRHONXnBbl2+bhBC9oeWhekAgej1pUsKc1n+r41B9Rnpaej10W3yY81tPLr2BTW/9pGVJCXF9h+iwW530HTvGjX/4x98l1EVxTFahOPhx9cFXKxo+kLrw5WgED14lY/ZYmNkeUFQdWpqCmmpqWHNfNDrg5VkUUFOTO8tFgLi/4AShK0sS+zK8XyAApaSMHMygg5Addr7z5txhQQl7HZHzAHTUoJVyIA5sbM7EIMhR2qiNoXD4aS3z7+jNciwgEQYA9xa5z5f2iMlzaeC7+WcTicuV/Q7yVDLb3CYRyDAwEBwW18EKV58caItyCrVCe2HoTRhDNj96jNngFO+/JGAiKwPVmt0gyTZmBTkNH0pCQhoq9dpMRoT0yUHD58IzDZv3vjboSXAi72+xMlT4TezZosFjye6VRgoBdYE7fdAWO3+tqFmcTw4HnTlLvZFoonsDQr5ii9dXhp+6yOlxGKJLtpXTlSsab1Oy+jKxLR2IEZVFKvSNPWKMCt2SJSX+RW4EHJ9Qo1rFjbV/fW1za+0d3TKjs6usL/OrtPS5XLLSLDZHXLz9g/kiZaOiPWJ4ERLh9yy8yNpszsSbuvxeOTTv3/lFzULm+qirTOme9fb25tpdzh7PB5PRLpko5HMzMRs84uMHqBICBF1H8aMcGRlZfUZDPqd0eqtNhtWW2Ie2kXG72ItHoaQgOpFK4pGleT/+2VVFfeH3sgE9mA0GuO6+LyY0Ot1jvd2fHhvr8X64o5X1nRGo4s665obm1YJIR8kIDh6icIqpFy97Y0nfxOpMqJz7138owxxc3SJQI8Q8yqqpg+0HN0X9qAqTAKqF60o0kqO4/3yOq2GcWPKyEhPjekEfd1wfsAc+ozGqnF7Rm5966kgwybsC+skjdK3eJ2WB+75HqMqijAYDORkDz/C+/+Bw0dbaPrJ4z4mJLs1mkbgmUCaSKfAaF+ialQJoyqU2Hos+//rivFV5UwYP9JfoBFjQmnCvUEhVIM72Ziklns8nkuSCSnJfh0uICm0PqFXYjb78O36rysS0vKfnXWw/WgKSRpo8t53bmyGo30wtxQm5cKpAXjpGOgE/HCyX8u+dRI+64XLs2F+OXgkrDkAHmDFJDBq4d1WONAN47NgQYV/3N9+DE4PLBkJIzPgiz7Y0AylqXCzV6ifPghmFyyqhKoE4i+JHXNuN6v3KF7gN0YJSlLhnl2Sk+ehywy/ni3423FYvUdSXQgrJ/sPmSN9Svm0ETC/XPDJOfipt6+ZBYLqQvj5PsneLqWfQLxyXCmXUrBqCrxwVPLIfshNhpvGCE5b4Ec7lL5uGp2YQZbQFihNcVNiUt797OqElgE46Q257/LaWtvalYnMLQueSJ3XKTzQDYNOeC8gzLCzAwac8KH3TeXcsuBx671t93Qpfb+nPB2i26pIwxZv/rJsKEsjISTEAIAZeYoe2NMp2RywiE+6occGu72MmBfyguWKXMhKApcH9p+BLe3+eMKuTsnODkXMy9PCRbi2SHjHhH6Hn1EAuzpgS5uP6YmuZlgMUE6C3Z1SHRjALeGJTyTnHZBvUhYcCK2Aam88c1u7VBkF8H4XvNuq9BXKOICZhZCkhV47PPepwigfdnZKtnnjHqFSFw8SZsDMPCUoeqhHqBLQUKL8f/IT5f+c0shORl2xUvrcp2B2wuRcyDbCeQf86XOF5rrS8JYmHUwdoaTXHJBBY77RrGzFFL2fwYkgYQYUJbspS3HjltBjh9EZklvHKpPu9waM50X5ErXevXzO60HPLYPZ3kn3O8CggfqSyOPWh7RdPV1g1PrHrCtWpCRRJMwAgKvz/KHx6lwb03P8MQGtUCQgEibmQE6Ab3ltqaC6yM+sWYWQFsXdqC3202UbYUYBTBnhrx+O+MMwGTArzx8bqBnhINXVT0mKsjGnjlAmGHEwAbO9r1ZS9MoiZgeI7XUxFjGjQLEVQGGwRkBNwO8u5kZh+lAYFgNm5jkoS3FTnupWpeG6QhtlKW6uL7bjdEb/4cYN5YLKdGgcqYjs5Dzl+KpMVwykaDBqFeOoMh0WVCiMaihR+ppdpBhIw8Gw/P18o4dt84Jvme6bNMh9k5S3Qd3nQKvVkmQwoNfrlceLQqDRaLi1Cm71PsFwez3VfUv9/bhj/DJw3ZxgutkF8Ol3YreTQ7wrCmeAR0qfCpeeYf0OyTshNxarFazDvxi5ELAFxixDX1wQYQsIIc/60ifbTuN0XnoeoA8Op4vmVr/VJDWcCaWJcD0u35OIBwB6egf477V/YU7dNFJNYZ7k1xqDFjvvbN1Hb5//cagQms2hdBHVbu3CFZuBhkh1lzDe2f76E3NDCyOeAnqhvQU4+JVP6SJBwMcunevWSHURbafmI3vNYytq17l1bjOQD2Rw6UWI7cBhYI0Zx7J/bng27HUIwP8B2QrTIa0KwrgAAAAASUVORK5CYII=;arcSize=20;" vertex="1" parent="ILJUOrgNbJTJBXLJUpU8-7">
          <mxGeometry x="230" y="50" width="140" height="60" as="geometry" />
        </mxCell>
        <mxCell id="ILJUOrgNbJTJBXLJUpU8-6" value="MQTT Broker" style="label;whiteSpace=wrap;html=1;image=data:image/png,iVBORw0KGgoAAAANSUhEUgAABbQAAATjCAYAAACpXrYsAAAACXBIWXMAABcRAAAXEQHKJvM/AAAgAElEQVR4nOzdD3Cd5X3g+9dYGB01W1nSuXHLtWLH3VWThsRCe1NyazeRs7kWu0kKsXynXTr20LUZBbgdCsJBsQUBLIhYIainN6Ya7C6LdsnOrGUg/bPYm8RKardwcyvklAxUbVwc+RJM9MciiY4wMr7zuFFq/hhLst6j857385lhSppMsJ/n+Dj+vs/7exacPn06AgAAAACAQneRHQIAAAAAIAkEbQAAAAAAEkHQBgAAAAAgEQRtAAAAAAASQdAGAAAAACARBG0AAAAAABJB0AYAAAAAIBEEbQAAAAAAEkHQBgAAAAAgEQRtAAAAAAASQdAGAAAAACARBG0AAAAAABJB0AYAAAAAIBEEbQAAAAAAEkHQBgAAAAAgEQRtAAAAAAASQdAGAAAAACARBG0AAAAAABJB0AYAAAAAIBEEbQAAAAAAEkHQBgAAAAAgEQRtAAAAAAASQdAGAAAAACARBG0AAAAAABJB0AYAAAAAIBEEbQAAAAAAEkHQBgAAAAAgEQRtAAAAAAASQdAGAAAAACARBG0AAAAAABJB0AYAAAAAIBEEbQAAAAAAEkHQBgAAAAAgEQRtAAAAAAASQdAGAAAAACARBG0AAAAAABJB0AYAAAAAIBEEbQAAAAAAEkHQBgAAAAAgEQRtAAAAAAASQdAGAAAAACARBG0AAAAAABJB0AYAAAAAIBEEbQAAAAAAEkHQBgAAAAAgEQRtAAAAAAASQdAGAAAAACARBG0AAAAAABJB0AYAAAAAIBEEbQAAAAAAEkHQBgAAAAAgEQRtAAAAAAASQdAGAAAAACARBG0AAAAAABJB0AYAAAAAIBEEbQAAAAAAEkHQBgAAAAAgEQRtAAAAAAASQdAGAAAAACARBG0AAAAAABJB0AYAAAAAIBEEbQAAAAAAEkHQBgAAAAAgEQRtAAAAAAASocQ2AVAMmhY01UZRFP5aHkVR/Vk/pU/YYHh3F5Vc9NNfW/trI7953W9W115da7Vgll74xgs//aNP/9HCydcmS60h8+xwFEUnfvZD6I+i6MXwf7tOd/XaGACSbsHp06dtIgCJ07SgaXEURVf/7K8QsMvtIly4THlmtG593alPt346W7W8yorCDI2fGI866zuHjh0+lrV2FKhvRVH0RPir63TXizYJgKQRtAFIlKYFTSFe/0EURVfZOYhXRXXFUP0N9Qs//vmPV5QtLrPaMAP7798/8cTWJ9449fopv3goZCFuP9J1uusRuwRAUgjaACRC04Kma6MoujOKomV2DPJvxcdWDDbc1mAkCczA8IvD4bT2yPDR4UrrRoE7Gv53lrANQBII2gAUtJ/Nxv5Ds7ChMJQsKsldseGKnxpJAtO3t2Xv2L779hmNRRKEsH2tWdsAFDJBG4CC1bSgKYTsm+wQFKYwkuQzd3zmF+rW12WMJIF3N9A7ED207qGx8dFxYZsk2PGzE9sn7BYAhUbQBqDg/OxUdnjldaXdgcIXTm1/6N9+6NXP3vnZJdW11XYMziFcGNm9uXukr6fPCBKSIJzWvrrrdFe/3QKgkAjaABSUpgVNV/8sZjvBBglUVlE21vCFhjdcJAnn1tfTN777mt0LJk9OZiwTCfB7ZmsDUEgEbQAKxs8ufvxPdgSKw2X/7rLBhi0N1TX1NXYU3iJcGLnz6p1Dxw4fy1obEuDmrtNdf2ijACgEgjYABUHMhuLl1DacmwsjSZD/3HW661obBsB8E7QBmHdiNqTHyqtWHjdrG95ssH8weuCTD7gwkiRwUhuAeSdoAzCvmhY01UdRdMAuQLpUVFcMfeaOz/xC3fq6jFPb4MJIEsVMbQDmlaANwLxpWtC0PIqifhdAQnqVLCrJXbHhip9+uvXT2arlVT4JpN7BXQdzj93w2OlTr5/ypIdCNRZFUX3X6a5+OwTAfBC0AZg3TQuawh+EVtoBILj0skuPX7X9qiW1V9daD1ItXBjZWd85Mnx02GltCtXRKIpqu053nbBDAOSboA3AvGha0HRnFEVfsvrAW7lEEv7Jo5sfHTq0+1DWclCgdnSd7voDmwNAvgnaAOSdUSPAdIRxJB/6tx969bf/8LeXGEdCWg30DkQ7rtwxMfnaZKkPAQVoTdfprl4bA0A+XWS1AZgHfyhmA+czeXIyc/jJw0u2vn9rdNeH7zoewh6kTU19TdTxckfp0pVLh2w+BehOmwJAvjmhDUBeNS1oqo+i6IBVB2YjjCNp/I+Ni+rW12WMIyFt9rbsHdt33z4PhCk0v9d1uusRuwJAvgjaAORV04Km8FrqJ6w6cCHCOJJ/c/O/OfmJz3+i3DgS0mSwfzB64JMPjI2PjgvbFIrDXae73OYLQN4I2gDkzc9mZ/+jFQfm0sqrVh7/7J2fXVJdW21dSYXxE+PRQ597aGigd8CFkRQKs7QByBsztAHIJzfhA3MuzNluu7zNnG1SI4zbaT7QnG3saJyw6xSIa20EAPnihDYAedO0oOmEyyCBuE3N2V69eXXGYlPsjCChgFR0ne46YUMAiJugDUBeuAwSyLdMeWb045//+EVXtlxZ7gJJipkRJBQIl0MCkBdGjgCQL1dbaSCfcmO5in337SvfsmRLbm/L3rEQ/aAYGUFCgai3EQDkgxPaAORF04Km/nB3m9UG5lO4QPK3//C3l1Qtr7IPFCUjSJhHY12nuxbbAADiJmgDkBdNC5r8hgMUDGGbYmYECfPo/V2nu160AQDESdAGIHbmZwOF6tLLLj3+7//o3y+pqa+xRxSd/ffvn+jZ0lNqZ8mjz3Wd7nrCggMQJzO0AciH5VYZKEQvPffSks41ndFdH77r+EDvgD2iqKy9dW1p67OtUcklJWZrky+1VhqAuAnaAOSDoA0UNGGbYlVdWx11vNxRunTl0iGbTB6YoQ1A7ARtAAD4mbPDdv8T/ZaFolC2uCy6vf/2bMNtDWN2lJg5oQ1A7ARtAPKh3ioDSRLC9kOfeyi6ufLmsYO7DuZsHsVgXfu68qY9TeMli0p8pgGAxBK0AQDgHMZHx8u7r+vOCNsUi7rGurK7/+7uTNWyqhGbCgAkkaANAADnIWxTTKqWV0X3vnhvZV1jnagNACSOoA0AANMkbFNMmvY0VW54eIPPMQCQKII2AADM0FTYDpdHDvQOWD4Sa/Xm1ZnWZ1ujsooyF0YCAIkgaAMAwCyFyyM713RGwjZJVl1bHd1z5J7ypSuXDtlIAKDQCdoAAHCBhG2SrmxxWXR7/+3ZVZtWidoAQEETtAEAYI4I2yTdxl0bs017msZLFpWYrQ0AFCRBGwAA5thU2N559c7jwy8OW14Spa6xrqzlmZZMRXWF09oAQMERtAEAICaHnzy8ZOv7twrbJE6Yq33Hd+/I1tTXiNoAQEERtAEAIGZTYXtvy96x8RPjlptECHO1mw80ZxtuaxizYwBAoRC0AQAgT/bdt698y5ItOWGbJFnXvq7cXG0AoFAI2gAAkEeTJyczIWxvW7Ft7OCugwIhiTA1V7usosxpbQBgXgnaAAAwD8ZHx8u7r+vO3Fx589hA74AtoOCFudr3HLmnfOnKpeZqAwDzRtAGAIB5FMJ255rO6K4P33Vc2KbQhbnat/ffnl21aZWoDQDMC0EbAAAKwEvPvbQkhO2dV+88PvzisC2hoG3ctTG74eENRuYAAHknaAMAQAE5/OThJVvfvzVycSSFbvXm1ZnWZ1sjl0UCAPkkaAMAQAEKF0duWbIlt//+/RP2h0IV5mrf/Xd3Z6qWVY3YJAAgHwRtAAAoUJMnJzM9W3pKXRxJIataXhW19rdW1jXWidoAQOwEbQAAKHBTF0dur90+ZL42hShcFtm0p6my4baGMRsEAMRJ0AYAgIQ4dvhYNszXfnTzo0Pma1OI1rWvKw+XRS68eKEPKAAQC0EbAAAS5tDuQ1nztSlU4bLIL/4/XywruaTE5xMAmHOCNgAAJJD52hSycFlkx8sdpS6LBADmmqANAAAJNjVfu3NNp/naFJQwVztcFllTXzNkZwCAuSJoAwBAERjoHTgzX3tvy94x87UpFCFqNx9ozq7atErUBgDmhKANAABFZN99+8q3rdg21tfTp2pTMDbu2pgNl0XaEQDgQgnaAABQZMIYkq71XWXba7cbQ0LBCJdFNh9ojkoWlQjbAMCsCdoAAFCkjh0+ZgwJBaWmviZqeaYlU1ZRNmZnAIDZELQBAKDIGUNCIamurY7uOXJPedWyqhEbAwDMlKANAAApYAwJhSRcFtna31pZU1/jskgAYEYEbQAASJGzx5DYd+ZTiNrNB5qzdY11TmoDANMmaAMAQAqFMSQ3V948NtA7YPuZV017miobOxon7AIAMB2CNgAApFQYQ9K5pjPqXNM55NJI5tPaW9eWbnh4Q84mAADns+D06dMWCYBYPdn65P7cq7ma6f4zjn7n6EU/GfrJG+f691/5h1eW2TGAuVWyqCR31T1XLQhh0dIyXwb7B6P2K9pzkycnMzYhkb7VdbqrPu2LAEC8BG0A8qE3iqJPxPnPCRecvfWSsyNPHxk98dKJV6f+9Y++/6OLXhl45eehfOQHI+/1B2aAN7v0skuP/4fu/7CkurbayjAvQtR+4JMPjIU3COxA4gjaAMRO0AYgH2IP2hfq7CAeXrt/4ZsvHA1/nxvLlRz5qyOT4e9//KMf/2JuLFfhEwOkQcNtDWNXtlxZHi7ug3wLvxe31baNDB8drrT4iSJoAxA7QRuAfCj4oD1T4fRY7kTuTfF7alSK8A0Ui7KKsrHr915fXlM/7alRMGdE7UQStAGInaANQD4UXdCejvAH8WP9x878Jw//6eHjp14/NfH8/3y+5I3JNybNAQeSZOVVK49f+8i1S5zWZj50re8a6evpE7WTQdAGIHaCNgD5kMqgPR0DvQNn/lNnB++JVydKTrx0Ykmh/9iBdCm5pGRi03/d9EZdY52qTd6J2okhaAMQO0EbgHwQtGdhaq731OWWYjdQCGrqa4au/U/XZquWV9kP8mr//fsnerb0lFr1giZoAxA7QRuAfBC059hU7A4nu38y9JPJcHHlyA9G3jt5cjJTVD9RoCAtvHjh+NX3Xn3R2lvXiovk1cFdB3Pd13X7va5wCdoAxE7QBiAfBO08mZrbHU51//D5H44L3UCclq5cOnTDEzc4rU1ehaj92A2PnT71+injbwqPoA1A7ARtAPJB0J5nU6E7nOh++YWXTx7rP7bI6BJgLjitzXwY7B+M2q9oz3lgW3AEbQBiJ2gDkA+CdoEKQeDo/3s0d+y7x14JM7qHjgxVigPAbDitTb6J2gVJ0AYgdoI2APkgaCdImM0dIsEL33zhqMgNzITT2uRb+P3qK7/1laHRwdGsxS8IgjYAsRO0AcgHQTvhRG5gJpzWJp/CWK222raR4aPDlRZ+3gnaAMRO0AYgHwTtIjQ1ruTv//LvR174+gslZnIDZ3Nam3wStQuGoA1A7ARtAPJB0E6Jgd6BMxdPHvmrIyd/0PeDrFPcgNPa5IuoXRAEbQBiJ2gDkA+CdkqFUSXPf/353LOPPzt0rP/YIqe4IZ2c1iZfQtTu3tw90tfTJ2rPD0EbgNgJ2gDkg6DNGSE0hFPczz7+7P9nTAmkj9Pa5EvX+i5Re34I2gDETtAGIB8Ebc5pakzJc3/x3OTLL7z8v1opKG4ll5RMbPqvm96oa6wrs9XESdSeF4I2ALETtAHIB0GbaQuB++n/8vTQ9/7H9045wQ3Fq6a+Zuj6x6/Pli3WtYmPqJ13gjYAsRO0AcgHQZtZMaIEils4rX3TUzeV1tTX2GliI2rnlaANQOwEbQDyQdBmTpx9yeT3D33/PbmxXIWVheRbtWnV0Pr71zutTWz2379/omdLj0tJ4ydoAxA7QRuAfBC0icVg/2D0vae+N/rX//mvx83fhmSrqK4YuvFrN2ara6vtJLE4uOtgrvu67ozVjZWgDUDsBG0A8kHQJi/6n+g/M57k8JOHy5zehmRquK1hbF37unLbRxxE7dgJ2gDETtAGIB8EbfIujCf5zn/7zujhJw//5MjTRxz5hARZunLp0A1P3JCtWl5l25hzonasBG0AYidoA5APgjbzaupyyb98+C8Hzd6GZChZVJLb9Nim03WNdQZrM+dE7dgI2gDETtAGIB8EbQpKmL39dPfTx//mv//NwtHB0azdgcJV11g3smHXhkoXRjLXRO1YCNoAxE7QBiAfBG0KltEkUPjKKsrGbvnmLeUujGSuidpzTtAGIHaCNgD5IGiTCGE0Sd+evtyh3YeGxG0oPI0djRNrb11bamuYS6L2nBK0AYidoA1APgjaJFL/E/1n5m6/8PUXspMnJ8UOKADhwsjm3uasESTMJVF7zgjaAMRO0AYgHwRtEk/chsJRcknJxE1P3VRaU19jV5gzovacELQBiJ2gDUA+CNoUFXEbCkPDbQ1j69rXldsO5oqofcEEbQBiJ2gDkA+CNkVL3Ib5VbWsaqS5t7myanmVnWBOiNoXRNAGIHaCNgD5IGiTCiFu77tv36ALJSG/ShaV5DY9tul0XWOdwdrMCVF71gRtAGInaAOQD4I2qTJ+Yjzq29OXO7T70JC4DfmzatOqoY27NmYtOXNB1J4VQRuA2AnaAOSDoE1qhbj97T/+9mjvzt5To4OjQhvEzAgS5pKoPWOCNgCxE7QByAdBG6IoGn5xOPrztj8f6tvTtzA3lquwJhAPI0iYS3tb9o7tu2+fy0enR9AGIHaCNgD5IGjDWwz0DkT7Ova5TBJiZAQJc6VrfddIX09fpQU9L0EbgNgJ2gDkg6AN5zA1b/sbO77x6kvPvbTEOsHcWrpy6VBzb3O2bLHD2lwYUXtaBG0AYidoA5APgjZMQxhJ8q0//tbYt//4228YSQJzp+SSkombnrqptKa+xqpyQUTt8xK0AYidoA1APgjaMENTI0me+4vnqq0dzI2G2xrG1rWvMwuZCyJqvytBG4DYCdoA5IOgDbMURpJ8+4+/Pdq7s/fU6OCoWcBwgWrqa4auf/x6I0i4IJ1rOocGegd8J7+doA1A7ARtAPJB0IY5MNg/GP3pnX96/Hv/43u/6CJJmL2yirKxW755S3l1rRcgmJ3wsLGttm1k+Oiwk9pvJmgDEDtBG4B8ELRhDk1dJPlnd//ZT53ahtlZePHC8Wt2XrNg9ebVHg4xK6L2OxK0AYidoA1APgjaEJOpU9uHnzy8xBrDzNU11o007WkSJJkVUfttBG0AYidoA5APgjbEbGrW9r7/uO+i8dFxl97BDFQtqxpp7W+tNFeb2Qjfv9tWbBvz3XuGoA1A7C6yxAAAyRdC3JUtV1Y8OPJgefOB5mjFx1YM2laYnnC6dssvbZkIbzzATIXv3zCTvWRRSc7iAUD8BG0AgCJTU18T3fbXt1Xf+4/3Rqs2rRoSWeD8Jl+bLG27vC06uOugXy/MWLhgtOWZlozvWwCIn5EjAOSDkSMwj6Yukez5Qs9Jr8TD+ZmrzWyFU/7hwUiKGTkCQOyc0AYAKHLhdfjVm1dnjCOB6enr6avcunzrSHgYBDMRTmpveHiDU9oAECNBGwAgRYwjgekxV5vZCg8QRW0AiI+gDQCQQlXLq6KNuzZmO453ZD735c+NllWUjfkcwJuZq81shajd2NE4YQEBYO4J2gAAKRbGkVzZcmVFGEcSThReetmlx30e4M26r+vOdK3vGrEszMTaW9eWhnnsFg0A5pZLIQHIB5dCQoIM9A5Ej3/x8cEjTx+ptm/wz5auXDrU3NucDQ+CYLrCw5Awlz0lC+ZSSABi54Q2AABvcvac7ZVXrXRiG37m2OFj2W0rto2Zq81MNO1pqqxaVuWkNgDMEUEbAIB3FOZs3/DEDUtC2G64rWHMBZIQReOj4+XtV7Tn+nr6xi0H09Xa3ypqA8AcEbQBAHhXIWyva19XHi6QFLYhiiZPToaZ2mX779/v0j+mJYypCVG75JISnxkAuECCNgAA0xKCTAjbX3ntK5lwgWRZRdmYlSPNerb0lLoskukK36EtT7eUeigIABdG0AYAYMZWb16deXDkwXJhm7QLl/1tXb51ZPyECSScX3VtddTyTEvGUgHA7AnaAADM2tlhu6K6YshKkkbDR4cr7/7I3UMui2Q6QtQO35kWCwBmR9AGAOCChbDd/oP2bPOB5ujSyy49bkVJm9HB0Wy4LHKgd8Dec17hO1PUBoDZEbQBAJgzNfU10Zf+9ktLhG3SKFwW2bmmMzq466BQyXmFqF3XWGcGOwDMkKANAMCcE7ZJs+7rujOPbn7UCB7Oq2lPU6WoDQAzI2gDABAbYZu0OrT7ULZrfZfLIjmvDbs2VFYtqxK1AWCaBG0AAGInbJNGfT19lW21baI276pscVnU2t9aWVZRNmalAOD8BG0AAPLm7LBdUV1hJANFb/jocOW2FdvGBvsHbTbnFKL2Ld+8pbxkUYn56wBwHoI2AAB5F8J2+w/asxse3pBzKpFiNz46Xt5+RXtO1ObdVNdWRy3PtGQsEgC8O0EbAIB5s3rz6syDIw+WC9sUu8mTk5m2y9uig7sOOoHLOYWoHb4PrRAAnJugDQDAvDs7bJdcUjJhRyhW3dd1Z/bfv99nnHMK34cNtzV4wAcA5yBoAwBQMELI6Xi5ozTEHLNkKVY9W3pKu9Z3jdhgzmVd+7ryusY6nxEAeAeCNgAABSVcjhZiTsfxDqcUKVp9PX2VnWs6h8ZPjNtk3lHTnqbKqmVVojYAvIWgDQBAQZoK2/f+473RyqtWHrdLFJuB3oFsW23biKjNubT2t1a6XwAA3kzQBgCgoFUtr4pueOKGJSFsL125dMhuUUyGjw5X3v2Ru4cG+wftK28THuzd8s1byo1gAoB/JmgDAJAIIWzf3n97tvlAc1RRXSFsUzRGB0ez7Ve050Rt3kl1bXV0076bMhYHAP6JoA0AQKLU1NdE7T9oz254eEPOq/gUi8mTk5kQtQd6B+wpbxO+98J3npUBAEEbAICEWr15debBkQfLw8WRXsenGISo3bmmMzq466DPM28TvvPqGutcEglA6gnaAAAkWrg4suN4R8bFkRSL7uu6M6I276RpT1OluwQASDtBGwCAxAsXp4WLI1ufbY0uvexSYZvEC1H70c2PCpe8TXNvc9Y9AgCkmaANAEDRCJenfelvv7SkaU/TuPnaJN2h3YeyXeu7jJjgTcIDvBu/dmPWqCUA0krQBgCg6NQ11pWZr00x6OvpqxS1eavw8O6mfTdlLAwAaSRoAwBQtMzXphiEqL11+daR8RPj9pOfq6mviTY8vMEDOwBSR9AGAKCoTc3Xbj7QbL42iTV8dLiyrbZN1OZNVm9enalrrHOCH4BUEbQBAEiFcJoxzNcOJxpLLimZsOskjajNO2na01RZtaxK1AYgNQRtAABSJZxo7Hi5o3TVplVDdp6kCVF724ptY4P9g/aOn2vtb610ES4AaSFoAwCQOmEMycZdG7Otz7YaQ0LijI+Ol7df0Z4TtZkSvtNu+eYt5QsvXuj4PgBFT9AGACC1qmurjSEhkSZPTmZEbc4Wvs+u2XnNAosCQLETtAEASD1jSEgiUZu3Ct9lDbc1GD0CQFETtAEA4C1jSCqqK4RtEmEqar/wjRd+ascI1rWvK6+pr/EdBkDRErQBAOAs4bX99h+0Zxs7GidKFpXkrA2FLkTtBz/14C8c3HXQ55Uzrn/8+qwHcwAUK0EbAADewdpb15Z2HO/IOOlIUnRf150RtYl+9sbJjV+7MeuhHADFSNAGAIBzCFGo+UBztvlAc1RWUWYuLQVP1GZKeNtk02ObTlsQAIqNoA0AAOdRU18T3XPknnKXRpIEojZT6hrrylwSCUCxEbQBAGAaXBpJkojaTHFJJADFRtAGAIAZmLo0Mpx6XHjxwnFrR6EStZnikkgAiomgDQAAsxBOPW4f2F62dOVSkYiCJWoTuSQSgCIjaAMAwCxVLa+Kbu+/PdvY0TjhtDaFKkTtp9qfGrVB6eaSSACKhaANAAAXaO2ta0vDaW1zailUj3/x8Yqu9V0jNijdXBIJQDEQtAEAYA6E09rNB5qzTXuaxksuKZmwphSavp6+SlGbMC7JqCQAkmzB6dPeOAIgXk+2Prk/92qu5nz/kA988gPLwozHd1NTf97/GoB5N35iPHrocw8NDfQOZO0GhaausW6kaU9TpY1Jr/AdtW3FtrHx0fHyOV6Eb3Wd7qpP+/oCEC9BG4DYNS1o6o2i6BNx/XMy5ZnRf/G//ItXz/7/rfiNFSWZ8szk1L8+O5ZnFmfOzJEEiFtfT9/47t/dfdHka5OlFptCImoz2D8YffnXvzx+6vVT736aYGYEbQBiJ2gDELu4g/aFeu+/fO/R8F9xUclFJR/8Pz54JoIvvnTxL6742IqK8PdLa5dG5zs5DnAuTmtTqERtDu46mAuXhs7hQgjaAMRO0AYgdoUetKerZFFJrvJ9la9EZ50AX/qRpe997798bybMzg1/AZzLmdPa1+xeMHlyci7jEVwQUZswVz3MV5+jhRC0AYidoA1A7IolaE/HVPR+T/Y9Fy376LI3BG/gbMMvDkc7r945dOzwMae1KRgNtzWMhYsC7Uh6bV2+dWT46PBcRG1BG4DYCdoAxC5NQft8Fl+6+HjpL5ZOhtEmU2NNxG5In/337594YusTb8zx7FqYtQ0Pb8it3rza2wMpFR623fGrd+Tm4A0SQRuA2AnaAMRO0J6eELsr31d58uyT3TX1NUn4oQOz4LQ2hUbUTreB3oGoc03nha6BoA1A7ARtAGInaF+YTHlmtPyXy8fDqe4Qupf9b8sy1bXVSf4pAWfZ27J3bN99+4x7oCCI2uk2B99HgjYAsRO0AYidoB2PqRPdK35jxaKVn125ZGnt0qhssekFkESD/YPRV37rK0Ojg6NOazPvRO102167/ULeHBG0AYidoA1A7ATt/AmXUmZXZEfCae4PfPIDy8JJbvO5IRnGT4xHewX4vbcAACAASURBVG7dM3Ro9yFRm3knaqdX+C7atmLb2Pjo+GxOagvaAMRO0AYgdoL2/BK5IVnCHNsdV+6YmHxtstTWMZ9E7fQKb420Xd42m5+/oA1A7ARtAGInaBeeMJf7lz/4yz+ZGlfi8kkoLOGE5EOfe2hooHfAaW3mlaidXvvv3z/Rs6Vnpg/WBG0AYidoAxA7QTsZwkzuD3zqA5P/6jf/VeUHP/XBjFPcMP9CUHpi6xNvnHr9lAH5zJumPU3jdY11PoMp1Lmmc6YP1gRtAGInaAMQO0E7maZOca+8auV7PnTlhyrCqBIg/1wYyXwLo6tanmnJ+H0gfWYxT1vQBiB2gjYAsRO0i0MIGu+re9+QwA3558JI5puonV7hodqXf/3L49N8U0TQBiB2gjYAsRO0i5PADfnX19M3vvua3QsmT06aaUzeidrpdXDXwVz3dd3T+d4RtAGInaANQOwE7XQ4O3B/9Hc+WmEGN8Rj+MXhaOfVO4eOHT7mtDZ5J2qnV9f6rpG+nr7K8yyAoA1A7ARtAGInaKdTmMH9K6t+5SeXf+7ybN36ukzZYveJwVza27J3bN99+6Y71xbmTFlF2dg9R+4p972eLmH00d0fuft88/wFbQBiJ2gDEDtBm6CiumLoX/+f//rUys+uXFJTX2NNYA4M9A5EO67cMTH52mSp9SSfqpZVjbT2t1aK2ukyjXnagjYAsRO0AYidoM1bTY0nWbVpldPbcIHCqcnO+k4jSMg7UTudzjNPW9AGIHaCNgCxE7Q5n6nT2x/b8LEl5rLC7BhBwnwQtdPpXeZpC9oAxE7QBiB2gjYzMTV7+zev+83q2qtrrR3MgBEkzIe6xrqRpj1N57sskCLyLvO0BW0AYidoAxA7QZvZMpoEZs4IEuaDqJ0+YZ522+Vtb/15C9oAxO4iSwwAFKrJk5OZI08fqQ6zOm+uuDm673+/b/Cp9qdGh18ctmdwDuHBz+39t2dXbVo1ZI3IlzB+IoyhsODpEUaENXY0TqR9HQDIPye0AYidE9rEIczdrr+hfuFHf+ejFVXLq6wxvIO+nr7x3dfsXhAeDlkf8mHDwxtyqzev9nlLkc41nUMDvQNTb4Q4oQ1A7ARtAGInaBM3cRvOLbzR0FnfOTJ8dNg4CPJC1E6XMOZo24ptY+Oj4+WCNgD5IGgDEDtBm3wSt+HtQnDq3tw9EsZCWB7yoflAc1RTX2OtU+KsedqCNgCxM0MbACgqo4Oj2ce/+HjF1vdvje768F3HD+46mAsxD9IszNUOF/aFk7M+COTDjoYduRA5SYcwT7vhtoaxhRcvLLHlAMTNCW0AYueENoVgxcdWDK7atCrrNXjSLkTG9o+1T0y+Nlma9rUgXiWLSnItz7RkQuwkHR7d9Ojhjbs31tpuAOIkaAMQO0GbQhICywc+9YGhhi0N1V6HJ63CWwud9Z1Dxw4fy/oQEKcwBuqO796RDW8JkArfiqLIyBEAYiVoAxA7QZtClSnPjNatrzv16dZPZ83bJo0e3fzo0KHdh0RtYlW1rGqktb+1UtROBUEbgNgJ2gDETtAmCcIpws/c8ZlfqFtflxFdSJMwZ/6xGx47fer1Uz74xKamvmao+UCzhyfFT9AGIHaCNgCxE7RJmsv+3WWDRpKQJmGu9gOffGBsfHS83MYTl7rGupFwOakFLmqCNgCxE7QBiJ2gTVKFkSQf//zHL/rE5z9RbiQJxS7M1W6rbRsZPjosOBKbhtsaxta1r/PgpHgJ2gDETtAGIHaCNsVgxcdWDDbc1lBde3Wt/aSoda3vGunr6RO1ic2GhzfkVm9enbHCRUnQBiB2gjYAsRO0KSZObZMGYa5293XdgiOxaT7QHBnrVJQEbQBiJ2gDEDtBm2Ll1DbFbKB3INrRsCM3eXJS2GbOlSwqybU805Kprq22uMVF0AYgdoI2ALETtCl2ZRVlYw1faHjj45//eEXZ4jL7TdEYfnE46qzvNFebWJRcUjLR8XJHqe/NoiJoAxC7iywxAMCFGR8dL3/8i49X3Fxxc7Tz6p3HB/sHrShFIYzVae1vrayprxmyo8y1ydcmS8NFpOFCUgCA6RK0AQDm0OEnDy9pu7wtuuvDdx0Pc4itLUkXTs82H2jOrtq0StRmzoXT/w997iGfLQBg2gRtAIAYvPTcS0vCpXp/sPgPRve27B1zApGk27hrY3bDwxs8pGHODfQOZLvWd41YWQBgOgRtAIAY5cZyFfvu21c+NY4kzCSGpFq9eXWm+UDzmQv9bCJzqa+nr9JbLQDAdAjaAAB5EsaRbH3/1jPjSAZ6Byw7iVRTXxO1PNOSqaiuMCaCORXeaul/ot+iAgDvStAGAMizMI6kc01ndHPlzWNOJJJE1bXV0R3fvSNbtazKmAjm1MO//XDOxboAwLsRtAEA5sn46Hi5OdskVbgs8t4X762sa6wTtZkzkycnMw988gHfhwDAOQnaAADzbGrO9pYlW3IhbJuzTZI07WmqXLVplfEjzJnwsK+tts2DEgDgHQnaAAAFIpxMDGE7zNl2gSRJsnHXxuyGhzcYn8OcGT46XNm1vkvUBgDeRtAGAChAUxdIhrBtnixJsHrz6kzzgeaoZFGJsM2c6Ovpq9x///4JqwkAnE3QBgAoYCFst13eFt314buOD/QO2CoKWk19TdTyTEum5JISEZI50bOlp7Svp89AbQDg5wRtAIAEeOm5l5Z0rukUtil41bXVUcfLHaVVy6qMi2BO7L5m9wJvqgAAUwRtAIAEEbZJgrLFZVFrf2ulqM1cCPcLPPDJB8bGTzioDQAI2gAAiSRsU+hC1L73xXsr6xrrRG0u2PjoeHlbbZvPEgAgaAMAJJmwTaFr2tMkajMnho8OV3at7/JZAoCUE7QBAIqAsE0hC1G7saPRRZFcsL6evsqDuw7mrCQApJegDQBQRIRtCtXaW9eWbnh4gxDJBeu+rjvjkkgASC9BGwCgCE2F7e2124eGXxy2xRSE1ZtXZ5r2NI2XLCoRtrkg7Ve053y3AUA6CdoAAEXs2OFj2a3v3xrtvHrncfGHQlDXWFfW8kxLRtTmQkyenMx01neOjJ8Yt44AkDKCNgBAChx+8vCSqbAtADHfqmurI1GbCxUuieze3O2SSABIGUEbACBFQtjesmRLbm/L3jFhm/kUovbdf3d3pmpZlSDJrIVLIvffv9+FowCQIoI2AEDKhFf19923rzyEbSGI+VS1vCpq7W+tFLW5ED1bekpdggsA6SFoAwCkVAjbIQTdXHnzWF9Pn+PazIuyxWWiNhdsx5U7JtwTAADpIGgDAKTc+Oh4edf6rrK7PnzXcaccmQ9TUXvpyqVDNoDZmHxtsjRcEmnxAKD4CdoAAJzx0nMvLelc03nm4kgnHcm3ELVv7789W9dYJ0oyK+GSyK71XT4/AFDkBG0AAN4kXBy59f1bIxdHMh+a9jRVitrMVrgk8uCugzkLCADFS9AGAOAdnbk48pe2TIhD5JuozYXovq47M9g/aA0BoEgJ2gAAnFOYSxviUMv7WobM1yafRG0uxAOffMAbJgBQpARtAADOa3RwNBvma3eu6RwyX5t8CVF71aZVLopkxsJlt531nT47AFCEBG0AAKZtoHcge3vN7eNhvrZVIx827tqY3fDwBmNvmLFjh49lfVcBQPERtAEAmJFTr58qC/O1b668eayvp887/cRu9ebVGVGb2QjfVcYlAUBxEbQBAJiV8Ep/1/qusu21240hIXaiNrO1o2FHzncUABQPQRsAgAsSXuvf+v6tkVf7iZuozWxMnpzMdNZ3umAUAIqEoA0AwJyYGkPi9X7iJGozG8NHhysf3fyoSyIBoAgI2gAAzJkwhqRzTWfUuabTGBJiI2ozG4d2H8qa+w8AySdoAwAw5wZ6B7K319w+vv/+/RNWlziI2szG7mt2L/CwDQCSTdAGACAWp14/Vdazpae05X0tQ4P9gxaZOSdqM1PmaQNA8gnaAADEanRwNNt2eVsU5teOn/C2P3NL1GamzNMGgGQTtAEAyIswv3bbim0ujWTOidrMlHnaAJBcgjYAAHkzdWnkzqt3Hndam7kkajNT5mkDQDIJ2gAA5N3hJw8v2fJLWyackGQuidrMhHnaAJBMgjYAAPNi8rXJ0q71XWWdazrN1mbOiNrMhHnaAJA8gjYAAPNqoHcgG05rH9x1UIRkTojazESYp222PwAkh6ANAMC8C6e1u6/rzmyv3T5kpi1zQdRmJnZcuWPCmyIAkAyCNgAABePY4WPZ22tuH99///4Ju8KFClG7rrHOjGTOKzxU66zvNHoEABJA0AYAoKCcev1UWc+WnlKztZkLTXuaKkVtpiM8UNvbsnfMYgFAYRO0AQAoSFOztft6+lRtLoiozXTtu29f+WD/oPUCgAImaAMAULDCGICu9V1lTmtzoURtpuuBTz4w5vsGAAqXoA0AQMGbOq090Dtgs5g1UZvpGB8dL+/e3O1zAgAFStAGACARzlzatqYzenTzo05rM2shalctqxIreVd9PX2Vxh0BQGEStAEASJRDuw9lt63YNmbOLbPV2t8qanNeu6/ZvWD4xWELBQAFRtAGACBxwkiAtsvbor0te8fsHjNVtrhM1Oa8Jk9OZnZevXPISgFAYRG0AQBIrH337SvfXrt9yClKZmoqaldUVwiWnNOxw8eyHpwBQGERtAEASLQQnO741Tty5t0yUyFq3/i1G7Mli0pyFo9zCQ/OjDgCgMIhaAMAkHhhNEDX+q6yrvVdIy6MZCaqa6ujlmdaMqI27+Yrv/UVl9ECQIEQtAEAKBp9PX2VLoxkpqai9sKLFyqWvKPRwdHsnlv3GE8DAAVA0AYAoKhMXRi5//79E3aW6QpR+5qd1yywYJzLod2HsgO9A9YHAOaZoA0AQFHq2dJT2rmm05gApm315tWZDQ9vMHqEc9px5Y4J3ykAML8EbQAAitZA70DWCBJmIkTtxo5Gp/t5R5OvTZY+9LmHjB4BgHkkaAMAUNSMIGGm1t66trSusW7EwvFOwoOyvp4+x7QBYJ4I2gAApIIRJMxE056mSlGbc9l9ze4Fwy8OWx8AmAeCNgAAqWEECTOxYdeGyqplVaI2bzN5cjKz8+qdRo8AwDwQtAEASBUjSJiussVlUWt/q6jNOzp2+FjW9wgA5J+gDQBAKoURJF3ru0aMIOHdhKjd3NtcWbKoJGeheKsntj7xhtEjAJBfgjYAAKnV19NXefdH7h4ygoR3U7W8Kmp5piUjavNWp14/VWb0CADkl6ANAECqjQ6OZtuvaM/19fQ5qs05VddWR5se23TaCvFWRo8AQH4tOH3a/yYDIF5Ptj65P/dqruad/iG5sVzJkb86MvlO/96Pf/TjX8yN5SpsD5AvqzatGtq4a2PWgnMuB3cdzHVf152xQJxt4cULx7cPbC8Lp/lT7ltRFNWnfREAiJegDUA+9EZR9Im5+OeEsQC5E//8xveRp4+MnnjpxKvh73/0/R9d9MrAK2+Ev//J8E8Wh4vf7C4wU0tXLh1q7m3OhtnJ8E4e3fzo0KHdhzz44E3Cd8ft/ben/XMhaAMQO0EbgHyYs6A9G+GypqkLmw7/6eHjp14/NTEVv0+Onyw98dKJJT4FwNnKKsrGbvnmLeVhzAS8k3ChaJjBbnE4W2NH48TaW9eWpnhRBG0AYidoA5AP8xq0p2ugd+DMf3Iqej//P58vmXh1okTwhnQKIwSu2XnNgtWbVxsvwduMnxiP2mrbRoaPDova/JzRI4I2APETtAHIh0QE7XcTwsWx/mPRK//wSu7Yd4+9InZDepirzbmE3xu2rdg2ZsQVZ0v56BFBG4DYCdoA5EPig/a7mRppEk52v/zCyyfDKJNX/uGVZYX7IwZmylxtziXc7dB+RXtu8uSkk/z8XIpHjwjaAMRO0AYgH4o6aJ9LiNwhdLzwzReOHv3O0Yt++PwP35Mby1UU5o8WOJ+K6oqhG792Y9Zcbd6qr6dvvGt9l6cd/FyKR48I2gDETtAGIB9SGbTPJczqPvL0kdG//8u//8mx/mOLjC2B5ChZVJLb9Nim03WNdeIlb3Jw18Fc93XdTmnzcykdPSJoAxA7QRuAfBC0z+PsyP39Q993khsKXIrHCfAuutZ3jfT19Lkkkp9L4XeFoA1A7ARtAPJB0J6hqUsow1zu5/7iucmhI0OV5rNCYalrrBtp2tMkXvIm22u3Dx07fMwlopwR3uroON6RSdH8fUEbgNgJ2gDkg6A9B8I87u899T2nuKGAVC2rGmntb610WSRTwgPJuz9y99Do4KiozRk19TVDzQea0/J5ELQBiJ2gDUA+CNoxCJdOPv/153PPPv7skMAN88dlkbxVeADZfkV7zps1TGna0zSektn7gjYAsRO0AcgHQTsPBG6YP2GswE37bsrU1NfYBc7o6+kb71rf5eg+Z5RcUjLR8XJHaQre5hC0AYidoA1APgja8yAE7u/8t++MHn7y8E9+0PeDrJOCEL8ND2/Ird682q81zth///6Jni09Lg/ljFWbVg1t3LWx2EePCNoAxE7QBiAfBO0CMNA7cOaSyb/573+z0GxXiM/Hmz7+49/949/9F5aYoGt910hfT5/LQzmj+UBzVORvcgjaAMRO0AYgHwTtAhMuLevb05c7tPvQkNPbMPfqGutGmvY0iZic+b5tq20bGT467PNAVFZRNvbgyIPlRbwSgjYAsRO0AcgHQbvAhdPbT/+Xp4f69vQtNHsb5kbVsqqR1v7WyhTMzOU8QtTe8ktbJiZfmzR+hKjhtoaxde3rijVqC9oAxE7QBiAfBO0EmZq93buz95TRJHBhQtRu7m2urFpeZSVTbrB/MGq7vC3ty8DPtD7bGlXXVhfjcgjaAMRO0AYgHwTthApx+/mvP39mNMmRp48U5Z+8IW4li0pyLc+0ZIo0XjEDB3cdzHVf123EE9Gll116/Et/+6UlRbgSgjYAsRO0AcgHQbsInD13W9yGmQlR+6Z9N2WK/DI4psElkUxp7GicWHvr2mIbQyNoAxA7QRuAfBC0i4y4DbOz4eENudWbVzuhm3Jbl291SSRnHnR1HO/IFNmcfUEbgNgJ2gDkg6BdxKbi9jd2fOPVl557qRhfn4Y5JWoTxjnd8at35CZPTvocpNzKq1Yev+GJG4rp905BG4DYCdoA5IOgnRIulITpqWusG2na0+SEbooN9A5EnWs6074MRFHUfKA5KqJxRII2ALETtAHIB0E7hQb7B6MD//eBob49fQtzY7mKtK8HvJWozf7790/0bOkpthnKzFBZRdnYgyMPlhfJugnaAMRu4Z133mmVAYjbtVEULbfK6VL+S+XRyt9aWXZly5WZ6trqaOLHE4Ov/P0rxfIHdrhgP3z+h5nB/sHjH7ryQ++5uPRiC5pCv/Ibv1Iy8K2BoeEXh4tqiDIz8/rE66WvT7w+9sFPfbAYHm4cjaLokQL4cQBQxJzQBiAfnNDmjKl5239295/91EgS+CdVy6pGWvtbK4vsYjimKXwv3v2Ru4d8J6bbwosXjm8f2F5Wtbwq6evghDYAsRO0AcgHQZu3mRpJ8kz3M7/gYjTSTtROt/B9+OVf//L4qddP+QCkWE19zVDzgeakP9gQtAGI3UWWGACYD2EMycZdG7Nfee0rmQ0Pb8hdetmlx20EaTV8dLiyrbZtJJzWJX3C9+E1O69ZYOvTbaB3INvX0+dLAADOwwltAPLBCW2mZfjF4ejP2/7cqW1Sq+SSkomWp1tKQ+AkfbrWd4309fS5KDTFwgWR9xy5pzzBb2s4oQ1A7JzQBgAKRpgdGk5tdxzvOHNqu6K6YsjukCaTr02Wtl/RngsjKEifpj1NlWH8jK1Pr/HR8fKn2p8aS/s6AMC7cUIbgHxwQptZG+gdiPZ17Bt87i+ec2SV1ChZVJJreaYl46R2+oQ3Ve741Tty3lJJt3v/8d4ooRdEOqENQOyc0AYAClpNfU30+3/++9XhD/cNtzWMhdBnxyh2IWY6qZ1OIWJuemyTU0cpt/Pqnd5QAoBzELQBgEQIkWdd+7ryqUskjSOh2Ina6VXXWFe2atMq33EpduzwsWx4QwkAeDsjRwDIByNHiEX4w/5Xf/+rx1967qUlVphiFh7irN682giKlNm6fOvI8NFhl0SmVLgg8sGRB8sT9rM3cgSA2DmhDQAkVhhH8qW//dKSMI5k5VUrj9tJilX3dd2Zg7sOGreTMs29zZXGLKVXuCByb8teF0QCwFsI2gBA4oVxJDc8ccMSc7YpZqJ2+pinzdcf+PrF4aJQAOCfLbzzzjstBwBxuzaKouVWmbiVLS6LPvipD5au+f01F0dRNHb0O0dPv3HqjYstPMXiu3/63Ysrllbk3lf3Pp/rlPjlX/vli0ePjQ4NPjtYlva1SKPTb5y+eOjFoeMf/Z2PvichP/2jURQ9UgA/DgCKmBnaAOSDGdrMm3CitecLPSfDq9t2gWJhpnb6tLyvZWh0cDSb9nVIq+YDzWfGbCWAGdoAxM7IEQCgqIXoFy7VCgEwXLBltykGxo+kz41fuzG78OKF42lfh7T6k41/MpT2NQCAKYI2AJAKwjbFRtROl+ra6uiandcsSPs6pFU4ne/XOwD8E0EbAEgVYZtiImqnS/j+qqmvcVI3pb76f311wfgJh/QBQNAGAFJJ2KZYiNrpcv3j12d9Z6XT5GuTpU+1P2XvAUg9QRsASDVhm2IgaqdH2eKy6JZv3uKS25Tad9++8uEXh9O+DACknKANACBsUwRE7fQI87QbbmvwPZVSj/zeI8bOAJBqgjYAwFmmwnaIRSWLSsRBEiVE7YHeAZuWAuva15UvXblU2Eyhgd6BrF/nAKSZoA0A8A5CLOo43pERtkmaHQ07coP9g/YtBW544obswosXuiUwhf5k4594mAFAagnaAADnEGbVToXtlVetPG6dSILJk5OZ9ivaRe0UqFpeFV2z85oFaV+HNBodHM0aMQRAWgnaAADnEcL2DU/csOTef7w3qqmvcSqOgidqp0cYk+R7KZ16vtBzcvyEA/oApI+gDQAwTeE0ZPOB5mzzgebo0ssudWKbgiZqp8f1j1+fdZlt+oyPjpc/1f6UfQcgdQRtAIAZqqmvib70t19asuHhDTkRiUI2FbWHXxy2T0UsvEVy/d7ry9O+Dmn0jQe/scgpbQDSRtAGAJil8Kr/PUfuKQ8XR7qYjUIVonZnfeeI6FXcwoO2VZtWGT2SMuHX9yPXPuKNIQBSRdAGALgAUxdHbh/YXubiSArV8NHhyrbaNlG7yK2/f322orpC1E6Zw08eXuItDADSRNAGAJgDYb52uDgyzNcWlChEonbxCw/Ybvzajdm0r0MaPfJ7j/h9B4DUELQBAOZQeO2//Qft2caOxomSRSU5a0shCVH7oc89JHwVsera6iiMQUr7OqTNQO9AdqB3IO3LAEBKCNoAADFYe+va0o7jHRljSCg0IXx1re8asTHFK4xB8qZI+nz197/q9xsAUkHQBgCISXj93xgSClFfT1+lqF3cjB5Jn5eee2lJX0+fmUIAFD1BGwAgZsaQUIhC1D6466DPY5EyeiSduq/rfj3tawBA8RO0AQDyZGoMSU19jdPaFITu67ozonbxCqNHlq5c6vsmRcZHx8v9mgag2AnaAAB5FMaQNB9ozoYxJGUVZU5PMu9C1HaZXPG64YkbsgsvXmgMRYr0fKHn5PgJWw5A8RK0AQDmQRhDcs+Re8qNBKAQ7GjYkRvsH7QXRahqeVV09b1X+3NfioRT2k+1P+X3FgCKlv9hAwAwT8Jp7TASoPXZVpdGMq8mT05m2q9ozw2/OGwjilAYd2T0SLp848FvLHJKG4BiJWgDAMyzcHlbuDQynNY2GoD5EqJ2Z33niAhWnK595Nps2tcgTcKvZ6e0AShWgjYAQIEIp7W3D2wvc5KS+TJ8dLiyrbZtxAYUn/DgzIijdPn6A1+/2FsXABQjQRsAoICEebe399+ebfz/2bsf4DrrOl/8pzbUnixL/tostaG9UbPtwJqQ+XFhpUIraHG9LoV2BvHe7rICE8F1LFakroioXS1CFceFkgFWLr0jywwt7fpnWxQJWPbiZSck/srQX9RuS2qvrU3TsJjUktLfPHjqFvnTluac5/k+39drJgPjjEOfzzfn9Jz383k+n5sX7NOtTRqSULtrYZdQO4eSm2bGG8XjwAsHqu9ffP/O2OsAQP4ItAEAMiiZeatbm7T0rO6pv/eKe/3u5dDH/vljRo9EpG9dX5MubQDyRqANAJBRurVJ0+N3P9648a6Now4hX4weiY8ubQDyRqANAJBxh7q1G6Y3GANBRa26clWxv7tf0XPG6JG46NIGIG8E2gAAAUi6tb+89cv1OiuptG/M+8boQO+AuufMR+79iNEjEdGlDUCeCLQBAAKSdFZe/9T1Bd2VVMrY/rHi197zteGRvabe5EnrnNbC2Zef7X0kErq0AcgTgTYAQGCSGbg3/PSGRmEUlTIyNFKzrH2ZkTc5s/CWhY3VddWe+ojE7fNv93cGALkg0AYACFB1bXXhr+76q8YljywpVL25ap8zpNwGtw3Wdy3sEmrnSPI+sujORSfEXodYbO/b3mgmPgB5INAGAAhYMjbg5l/dPLl1TqvOO8quZ3VP/UO3POQGSo50LOio9v4Rj/s+fp9Z2gAET6ANABC4pMtyySNLGhfcvGDfxBMmGnRMWa2+dvXkntU9fs9y5LJvXdbovSMOOzbtaNKlDUDoBNoAADnxvk+9b/Jn/s9nqi2MpNzu/vDdEwZ6B9Q5JxpmNBTmf3m+74aR0KUNQOh8aAEAyJFDCyM7FnSYdUzZjO0fK37tPV8bHtmrqTcvkhtiU0+bKuiMgC5tAEIn0AYAyJlkBEnnA531i+5cNGqMAOUyMjRSs2LOCk8D5MhHVn2kKfYaxEKXNgAhE2gDAOTU7CtmF7/U/6XqhukNurUpi+19Th3/YgAAIABJREFU2xvvveJeoXZOJE94nH352c4zArq0AQiZQBsAIMeS2bjX915fbwQJ5fL43Y83brxr46gC58PCWxY2VtdVD8dehxjo0gYgVAJtAICcM4KEclt15aqiJZH5kLxfLLpz0Qmx1yEGurQBCJVAGwAgEskIks/8n89U1zXXGSnAuFt+1vJ9lkTmQ8eCjuppbdO8T0RAlzYAIRJoAwBEJJmRe8NPb2hsndMqrGJcjf12bLIlkflx9dqrG2OvQQx0aQMQIoE2AEBkkpECSx5Z0rjg5gX7nD3jyZLI/Ejm78+7bp5Z2hHYcPMG84IACIpAGwAgUu/71PsmL3lkSaFqUpWFfowbSyLz44KlF9RYEJl/m76/qXlw62DsZQAgIAJtAICItc5pLXzx//tisWF6wx6/B4yXb1/97YOWRIbPgsh43L/4frO0AQiGQBsAIHLJaIHre6+v71jQIdRmXBx44UD1bX95225LIsNnQWQc+tb1NenSBiAUAm0AAF7qxOx8oLPeXG3Gy9DAUOPKi1YKQnPAgsg46NIGIBQCbQAAfs9cbcZTf3d/40O3POQmSeAsiIyDLm0AQiHQBgDgZZK52kt/srRY11ynu5bjtvra1ZPN0w6fBZFx0KUNQAgE2gAAvEJze3Phhp/e0Gh2LuNh+VnL95mnHbZkLNGCry6YFHsd8u7pf3n6JK9VALJOoA0AwKtKAqzP9X6u0bJIjtfYb8cmr5izws2RwM2+YnZx6mlTdfDm2Nj+seL65et14gOQaQJtAABeV7IsctGdi8zU5rhs79veuGbpGkFZ4C795qVNsdcg7x7++sOTdGkDkGUCbQAAjijpzLQskuO14aYNNf3d/eoYsGTGftuFbbq0cyzp0n7sjseGYq8DANkl0AYA4KgcWhZpMRzH4xsXfMM87cBdds9lTW5u5duGr26QFQCQWf6SAgDgqCXLIv9+y9/XNExvMFebN8Q87fAl8/XPu+a8/bHXIc9GhkZqNt610U0LADJJoA0AwDFJwqzre6+vb53TKpTkDUnmaT90y0P7VC9cFy+/uMbTGvm2+tOr3bQAIJME2gAAHLMk1F7yyJLGjgUdOrV5Q1Zfu3ryQO+A4gVswVcXTIq9BnmWdGn3ru2NvQwAZJBAGwCAN6zzgc76BTcv0GnLG/K193xt2DztcCXLYqeeNtWCyBxb97l1zheAzJlw8OBBpwJAWa27ft1Do8+Nth7+35j2zmlTprx9SvG1/rvT2qe91AEKhCGZtbrqylWv+ZqG15J0+Sc3RhQoTP3d/YUVc1fEXoZcW/LIkpeWAh+lRwuFwpzYawZAeQm0ASi7zgmd3YVC4dzj/e9MefuUbb//99Ypb3rL297yYvLvtVNrT2o5q6Uu+feGGQ0v/QCV17O6Z+TuD989YWz/mGCbY7LozkWjSbevqoXp9vm37+xb19cUex3y6rS/OG3g49/7ePNRXp5AG4CyE2gDUHbjFWgfq0MBeMu7WqqKNcWxQ13hQm8on2Qm8vIzl48KtTkWE0+YOPKl/i9Ve28O0+DWwcLf/Ze/i70Mufblf//y0X52EmgDUHYCbQDKLq1A+0hqp9bunFQ9aV8SeJ886+TqpMtb2A3H76VQ+6zl+8Z+OzZZOTlaDdMb9nx565eNHgnUmqVrhjfctKEm9jrk1dmXn737r+76q8ajuDyBNgBlJ9AGoOyyGmi/nqS7+8TGE980/YzpL858z8zpze3Ngm44Bsmiv2Xty/YMbhsUUHLU5l03b/ji5RcLRQOUvOavbbrW0xk5VTWpavTmnTcXj2K/iUAbgLITaANQdiEG2q8lCboP7+g+hiVJEB2hNm/E9U9dX0huIhIeXdr5dpQ3nATaAJSdQBuAsstToP1qktEl09qn7X/Hu99x4qkXnFoniIH/JNTmWFXXVQ///Za/rzmKTlAy6Jr6a4ZHhkaE2jlUrCkO3br31rojXJlAG4CyE2gDUHZ5D7RfzZ/M/JNfznrvrLFkXEnSxS2YIWZJqL3yopW7+7v7j2b+KhzLvF4yZuNdG0dXXbnK2JGcWnTnotHZV8x+vfMVaANQdgJtAMouxkD7Dx3q4j79otMbZ50/q2geNzHqWti1p2d1j05tjkrnA50jHQs63A0M0NJTlu4eGhhyQyKHpp42defn/9/PN73OlQm0ASg7gTYAZSfQfqXksd23nf2255OAu2Nhx9EsWYJcEGpztKreXLXv5l/dPNn7Y3j6u/sLK+auiL0MubXkkSWF19khItAGoOzepMQAUHmjw6N1m76/qTl5LPuaumsK1731up3f+utv/bJ3ba/TINc6H+is71jQsccpcyRjvx2bnIyqUajwJGFn0skbex3yasPNGwZirwEA6dKhDUDZ6dA+di1ntQy0Xdh24hkfOqPOeBLySKc2R8vokTDp0s63L//7lwuv8flEhzYAZadDGwAyaMsTW5of/MyDdX/3X/6usLh28dC9V9ybLNRzVOSGTm2O1t0fvnvC4NZB9QpM0qXdOqdVh31OPXrHo8Ox1wCA9OjQBqDsdGiPn6pJVaMzz5+5+91Xvru5fX57Xi6LiOnU5mhMa5u2+3O9n7NkMDDJjYjkxiz5k3weue23txVf5cJ0aANQdjq0ASAgY/vHisns7ZUXrUxuFBRu+vObBjbetXF0ZO+IYyRIOrU5Gtv7tjc+dMtD+xQrLMlIirYL28zSzqHk80jy+SP2OgCQDh3aAJSdDu3KSOZun3352Y0dCzuK1bXGzRIWndocycQTJo58qf9L1fYKhEWXdn7VNdftXv7s8j98ckKHNgBlp0MbAHIimbu96spVxWvqril88wPfHOhd2+toCYZObY7kwAsHqm+ff7uZzIHRpZ1fQwNDjfZ7AJAGgTYA5NChsSQfe/PHRm+ff/vOgd4Bx0zmCbU5EqNHwnTJrZc0xV6DvNpw8wYfMACoOIE2AORYMuOyb11f07LTlxWuqb9meP3y9UPJ49+QVUJtjmTdZ9cdtDcgLEmX9rzr5g3HXoc8Sm6g+1wBQKUJtAEgEiNDIzUPfubBumSW6aFlks6eLBJq83qSG3UrL1pp9EhgLlh6QU3VpCp/7+TQo3c86mYFABUl0AaACB2at52MJLn3int3664ia4TavJ7+7v7GntU92rQDkiwrPu+a8/bHXoc8euyOx16MvQYAVJZAGwAilnQ6Pn73441J1/YX/uwLO3VtkyVCbV7P3f/97jcZPRIWXdr5NDo8WufzAwCVJNAGAF6yY9OOpkNd22uWrhnWtU0WJKH2tLZpxkvwCmO/HZts9EhYdGnn18PfePi52GsAQOUItAGAl0m6tjfctKEm6dr+5ge+OdDf3a9ApGpJ95LGhukNOrV5hWT0iPeosOjSzqfkprgb4QBUikAbAHhNm76/qXnF3BWFpacs3e1xYtKSdHVe33t9vVCbV7Py4pXDRo+EQ5d2fn1v2fc8MQFARQi0AYAjGhoYakzGkSyuXTyUjCMRHlFpQm1ey8jQSM0Dn3pAkBYQXdr59JNVP/mj//j1f1TFXgcAyk+gDQActWTxUzKO5Nqma83ZpuKSUHtJ95J6QRh/KFluO9A7oC6B0KWdT8nIsn/9x3+tjr0OAJSfQBsAOGaHz9m+ff7tOwXbVErDjIbC0p8sLQq1+UO3/eVturQDoks7nx665SEZAwBl5y8bAOC49K3raxJsU0nN7c0vhdoTT5ho9g2/l4xGeuiWh/apSBh0aefT87uf3xt7DQAoP4E2ADAuDgXbN/35TQP93f2KSlklofaHb//wBFXmcOs+u+6gGf/h0KUNALwRAm0AYFxteWJL84q5Kwpf+LMv7BRsU06zr5hdXHTnImEYv5eMQ1p50UqjRwKRdGmfuejM38ReBwDg2Ai0AYCy2LFpR1MSbK+Yu2K3USSUSxJqz7tu3rACc0h/d3+jm2nh+MD1H2iMvQYAwLERaAMAZZWES2ZsU04XL7+4pmNBxx5F5pCVF690kyMQyaLXtgvbdsZeBwDg6Am0AYCKsDyScup8oLN+Wts0oyZ4ycjQSM2apWuE2oG45NZLmmKvAQBw9ATaAEBFJcH251o/N5KETZa3MZ6WdC9pbJjeoFObl/zwaz88wc2zMOjSBgCOhUAbAKi4Ay8cqN5w04aaa5uuHX3olof2OQHGQ7Jg7vre6+ur3lzld4qX3mfu+Zt7dO0HQpc2AHC0BNoAQGrG9o8VV1+7evI19dcM96zu0a7NcUtC7aVPLJ1cNalqVDWxIDIcSZd2y1ktA7HXAQA4MoE2AJC6ZN5t18Ku6i/82Rd2DvTKMzg+ze3Nhcu/fflBZaRgQWRQLvrKRc2x1wAAODKBNgCQGTs27WhadvqylxZHmq/N8ehY0FG94OYFRo9gQWRAWue0FqaeNtUsbQDgdQm0AYDMSRZHmq/N8Xrfp943uWNBhyWRWBAZkEu/ealZ2gDA6xJoAwCZdPh8bTNweaM6H+isn9Y2zWLAyCULIu9ffL/O3wAkXdrVddU66gGA1yTQBgAyLRkXsGLuisKKuSt2G0PCG7Gke0mjgIzkyQ83x8Kw4KsLJsVeAwDgtQm0AYAg9Hf3NxpDwhtRXVtd+OSPPllTNalqVAHjdt/H79OlHYDZV8wuFmuKQ7HXAQB4dQJtACAYh8aQLD1l6e6B3gEHx1Frbm8uXP7tyw+qWNySxbMb79roxkYAzvnoOb6rAgCvyocEACA4QwNDjctOX1a494p7jSHhqHUs6Kied908o0cit/rTq/d738i+C5Ze4KkKAOBVCbQBgGA9fvfjjZ9t+aylkRy1i5dfXNOxoGOPisUrmcu/fvl6NzYyLhkVdOaiM38Tex0AgFcSaAMAQTu0NFK3Nkdr0V2L6humNwi1I/bDr/3whMGtg7GXIfM+cP0HGmOvAQDwSgJtACAXkm7ta//k2n09q3uk2ryupPNzSfeSeuMM4nXghQPV9y++34LIjGuY0VA47S9OszABAHgZgTYAkBtjvx2b3LWwq3rF3BW6tXldSVBmSWTc+tb1NVkum33zrp3XHHsNAICXE2gDALnT393f+OmTP/1bs7V5PZZE8o+L/lGXdsa1zmktTD1tqnMCAH5PoA0A5NIL+154s9naHEmyJLJ1TutuhYrTjk07mtz4yr7zPnHeSbHXAAD4TwJtACDXktnan2357LDRAryWqx68qrG6rlqndqRWXrzS2Wfc7CtmF4s1xaHY6wAA/I5AGwDIvZGhkZplpy8rrFm6RnDFKyRLIj/5o0/WqEyckveHjXdttCA048756Dm+uwIAL/GhAACIxoabNtR8qf1Luwe3Djp0Xqa5vbmw6M5FQs1Irf706v1GE2XbBUsvqKmaVOU1CgAItAGAuGzv2954w5/eMNqzukd6xcskYw06FnTsUZX4JF3a65ev9wRHhiVPUpz6/lOfi70OAIBAGwCI0Nj+sWLXwq7qroVde3RlcrhFdy2qr2uusyQyQg9//eFJ3g+y7ZJbL2mKvQYAgEAbAIhYz+qe+i++84u7LYzkkKQL9GP//LHGiSdMlGxGJrnRpUs72xpmNBSmnjZ1Z+x1AIDYCbQBgKgNDQw1fuW/fmXEUjgOSeZpz//yfJ+TI5TM2TdjP9vO+8R5J8VeAwCInQ/qAED0DrxwoHrVlauKRpBwyPs+9b7JrXNajR6J0P2L79cBnGHJrPtiTXEo9joAQMwE2gAAJckIkmXty/bo0CRx1YNXNVbXVRtBEZm+dX1N3gOy7ZyPnuN7LABEzAcBAIDDDG4brL/hT28Y7Vndo1U7csk87U/+6JM1sdchRrq0s+2CpRd4XQJAxATaAAB/IFkO17Wwq3rN0jW6cyOXzNOed908vweR0aWdbcnNptP+4jTbfAEgUgJtAIDXkCyIWzF3xW5zteN28fKLa6a1TTNPOzK6tLNt3rXzmmOvAQDESqANAPA6+rv7G7/4zi/uHujVDBizq9de3Vg1qWo09jrEJOnS7u/uj70MmdU6p7Vgxj0AxEmgDQBwBEMDQ43Lz1w+KtyKV8OMhsLl3778YOx1iM19H79Pl3aGLfjqgkmx1wAAYiTQBgA4Cslc7RVzVxQeuuWhfeoVp44FHdWtc1qNHonIjk07dGlnWMfCjqInJwAgPgJtAIBjsPra1ZO7FnbtUbM4XfXgVY3GHMRFl3Z2JcshT33/qc/FXgcAiI1AGwDgGPWs7qn/UvuXLIuMUBKgXbXmqprY6xATXdrZ9sEbP9gUew0AIDYCbQCAN2B733bLIiOVLKM7+/KzjR6JiC7t7Gpuby7UNdd5PQJARATaAABv0KFlkULt+Cy8ZWGjEC0eurSz7b/d8N/+KPYaAEBMBNoAAMchWRb5lf/6lZGNd220mCwiyeiRj/3zxxpjr0NMdGlnl+WQABAXgTYAwHE68MKB6lVXrioKteOSjDqYd908CyIjkXRpD24djL0MmZTcYJp5/kxPTABAJATaAADjJAm1uxZ27VHPeFy8/OIao0ficf/i+3VpZ9S8a+c1x14DAIiFQBsAYBz1rO6pF2rHxeiRePSt69OlnVHJstbqumpPTABABATaAADjLAm1V8xdsXtk74jSRsDokbjo0s6ueZ+e92LsNQCAGAi0AQDKoL+7v3FZ+7I9Qu04GD0SD13a2XXGh86oi70GABADgTYAQJkMbhusF2rH4yP3fsTokUjo0s6mhhkNhZazWgZirwMA5J1AGwCgjA6F2jo68y+Z4Xv25Wfr0o5A0qXtRlU2zbvOckgAyDuBNgBAmSWh9g1/esPoQK/GwbxbeMvCRovp4rB++XrnnEHt89sLVZOqRmOvAwDkmUAbAKACxvaPFZefuVyonXPVtdWFq9ZcVRN7HWLw8NcfnqRLO5vOXHTmb2KvAQDkmUAbAKBChNpxSEaPtM5pNXok55LX82N3PDYUex2yaO7fzjXPHgByTKANAFBBQu04XPXgVY1Vb67aF3sd8m7DVzf4PpVBze3NhbrmOjeVACCnfAADAKgwoXb+JaNHLv2HSw/GXoe8Gxkaqdl410bzmjNoztVzJsZeAwDIK4E2AEAKhNr5N/uK2cWpp03dGXsd8m71p1fvj70GWXTGh86oi70GAJBXAm0AgJQItfPvI6s+0hR7DfIu6dLu7+6PvQyZ0zCjodByVos3VwDIIYE2AECKhNr5lszynXfdvOHY65B39338Pp34GXT25WdbDgkAOSTQBgBImVA73y5YekFNdV21UDvHdmza0TS4dTD2MmROx8KOYtWkKjPOASBnBNoAABkg1M6vZEHkojsXnRB7HfLu/sX369LOmOS1N/P8mbtjrwMA5I1AGwAgI4Ta+dWxoKN6Wts0wVqO9a3raxrZOxJ7GTLn3Ve+uzn2GgBA3gi0AQAyJAm1b/vL23YLxvLn6rVXm+ebc+uXrzdaJmPa57cXjB0BgHwRaAMAZMzQwFDjsvZle4Ta+dIwo8GCyJx77I7HXoy9Bll05qIzfxN7DQAgTwTaAAAZNLhtsF6onT8WRObb6PBo3ca7NuoGzpi5fzvX0xEAkCMCbQCAjEpC7RVzVpi7nCPJkroFX10wKfY65Nl3v/hd3cAZ09zeXCjWFIdirwMA5IVAGwAgw7b3bW/sWti1xxnlx+wrZhennjZ1Z+x1yKtkZFB/d3/sZcicjoUdB2KvAQDkhUAbACDjelb31Au18+XSb17aFHsN8mzDzRsGYq9B1hg7AgD5IdAGAAhAEmqbzZsfrXNaC20XtunSzqlN39/UbP59thg7AgD5IdAGAAjEqitXFYXa+XHJrZc0TTxhotQzp9YvX2/5Z8ac89FzfP8FgBzwFzoAQECSUHug1zSDPGiY0VA4/5PnvxB7HfLqsTseezH2GmTNuR89tyb2GgBAHgi0AQACs/zM5aNC7Xy4YOkFNVVvrtoXex3yaHR4tK53bW/sZciU5CZSXXPd7tjrAAChE2gDAARmbP9Y8ba/vG23Gb3hq66tLlz6D5cejL0OebXuc+vMSc+YOVfPmRh7DQAgdAJtAIAADQ0MNS5rX7bH2YVv9hWzi9V11eYt59COTTuaBrcOxl6GTDnjQ2fUxV4DAAidQBsAIFCD2wbruxZ2CbVz4Ko1V5ntm1PfW/Y9Iy4yJBk7Uju1Vuc8AARMoA0AELCe1T31D93ykBnMgWud01qYetpUIVsO/WTVT/4o9hpkzanvP9XYEQAImEAbACBwq69dPblndY+B2oG79JuXNsVegzxKZt5vvGvjaOx1yJK5fzu3MfYaAEDIBNoAADlw94fvnjDQO+AoA5Z0abfOaTWeIoce/sbDz8Vegyxpbm8uFGuKQ7HXAQBCJdAGAMiBpAv0tr+8bffIXo3aIbvsW5fpHM0hyyGzp2Nhx4HYawAAoRJoAwDkxNDAUOPKi1bq8A1YsrCu7cI2s7RzyHLIbDF2BADCJdAGAMiR/u7+xjVL1ww703BdcuslZmnnUM8DPRYRZoixIwAQLoE2AEDObLhpQ40lkeHSpZ1Po8Ojdb1re2MvQ6a0XdjmfRIAAiTQBgDIIUsiw3bZPZc1VU2qGo29Dnmz4aYNXpQZcvpFp7819hoAQIgE2gAAOWRJZNiqa6sL511z3v7Y65A3W57Y0uw1mR3t89sLbhwBQHgE2gAAOZUsiVx1xao9zjdMFyy9oEbYlj+P3fGYuc0ZMvP8mZZ1AkBgBNoAADnWs7qnfuNdG4WiAdKlnU8bvrrBd7AMOf2i0xtjrwEAhMaHKQCAnPv21d8+aJ52mHRp58/I0EiN12N2dCzsKMZeAwAIjUAbACDnDrxwoNo87TDp0s6n79z4nZ2x1yArktdYy1kt7jAAQEAE2gAAETBPO1y6tPPn6X95+qTYa5AlbRe2nRh7DQAgJAJtAIBImKcdJl3a+TO2f6zYu7Y39jJkxhkfOqMu9hoAQEgE2gAAEUnmaQ9uHXTkgUm6tGOvQd5suGmDMRcZ0TCjoVA7tdYYGAAIhEAbACAiyTztFXNWGD0SmKRLu+3CNoFbjmx5YkuzufbZcer7T50Yew0AIBQCbQCAyAxuG6xfs3TNsHMPyyW3XtIUew3ypueBHiOAMuKs/3FWY+w1AIBQCLQBACK04aYNNf3d/Y4+IMlYBF3a+fLdL373N7HXICta57QWLF8FgDAItAEAIrXy4pXDRh6ERZd2vgwNDDWaaZ8dp3Scsjv2GgBACATaAACRGhkaqVl1xSrztAOSdGm3nNVimWCOPPlPTw7FXoOsOPvys40dAYAACLQBACLWs7qnvmd1jzbtgFz0lYuaY69BnnTf3n0g9hpkxazzZxVjrwEAhECgDQAQubv/+91vMnokHMms36mnTTVLOyeMHcmO5AmI2qm1XlsAkHECbQCAyI39dmzyyotWmh0bkAu/dKFZ2jnyvWXf8/rLiFPff+rE2GsAAFkn0AYAoNDf3d9o9Eg42ue3F6rrqodjr0Ne9DzQI0TNiLP+x1nmaANAxgm0AQB4idEjYVnw1QWTYq9BXowOj9YN9Nr1mQXJSJ+qSVWjsdcBALJMoA0AwEuMHgnL7CtmFwVv+fHIPzzitZcRp3Sc4iwAIMME2gAA/J7RI2E575rz9sdeg7wwdiQ72i5sOzH2GgBAlgm0AQB4mVVXrnrB6JEwXLD0gprYa5AXxo5kxxkfOqMu9hoAQJYJtAEAeJmRoZGaBz71gEfuA1BdW510k+6MvQ55YexINjTMaCgUa4pDsdcBALJKoA0AwCs8fvfjjf3d/QoTgA/e+MGm2GuQF8aOZMfbzn7b87HXAACySqANAMCr+se/+kfdogFobm8uTD1tqi7tHDB2JDtOv+j0xthrAABZJdAGAOBVDQ0MNa5ZumZYdbLvvE+cd1LsNciLp9c/bdRFBnQs7CjGXgMAyCqBNgAAr+mHX/vhCYNbBxUo42ZfMbto5m8+dN/efSD2GmRBMp++dmqtJx8AIIME2gAAvKYDLxyovudv7jF6JADnfPQcn+1zIHkywk2kbJh5/syx2GsAAFnkQy8AAK+rv7vfgsgAnPvRc2tir0FePPlPT+q2z4DTLzr9rbHXAACySKANAMARrbx4pVnaGdcwo6Fw2l+cZqNgDhg7kg2tc1pjLwEAZJJAGwCAIxoZGqmxIDL75l07rzn2GuRBMnZkZO9I7GVInTnaAJBNAm0AAI6KBZHZl3SUVtdVu/GQAz0P9IzGXoMsMEcbALJHoA0AwFFJFkTev/h+3YoZN+/T816MvQZ58Pjdj1vGmgHmaANA9gi0AQA4an3r+posiMy2cz56Tl3sNciDZ3uebYy9BllgjjYAZI9AGwCAY3Lfx+/TpZ1hydxfyyHDN7Z/rNi7tjf2MqTOHG0AyB6BNgAAx2THph1NG+/aaL5vhlkOmQ9PPfjUL2OvQRaYow0A2SLQBgDgmK3+9Or9qpZdyZiEYk1xKPY6hK5vXV917DXIAnO0ASBbBNoAAByzkaGRmjVL1wyrXHad89FzfNYP3OjwaN1Ar+kxaTNHGwCyxYdcAADekIe//vCkkb0jipdR53703JrYa5AHT69/Wqd9yszRBoBsEWgDAPCGJEvr1i9fr0s7oxpmNBRazmrR3hu4//0//7e7RhlgjjYAZIdAGwCAN2zDTRtqBrcOKmBGnX352Y2x1yB0v9r8q7d6EiJ973j3O+pjrwEAZIVAGwCA43L/4vs9ip9Rs6+YXayaVDUaex1C19/dH3sJUjfr/FnFyEsAAJkh0AYA4Lj0retr0qWdXTPPn7k79hqE7sd3/tjomJQlI3yKNUXzzAEgAwTaAAAcN13a2TXv2nnNsdcgdL94/Bcnxl6DLDh51snPx14DAMgCgTYAAMdNl3Z2tc5p1VkauNHh0Tqvr/S1XdjmxgIAZIBAGwCAcXH7/NuNtsiojoUdB2KvQeie/Kcn3ZRIWctZLXVRFwAAMkKgDQDAuNjet73R8rpsmvu3cxtjr0Ho+tb1GXeRsuRpBwAgfQLXeiyfAAAgAElEQVRtAADGzX0fv88s7Qxqbm8u1DXX6aAP2LM9z7opkQFT3j5lW+w1AIC0CbQBABg3OzbtaNKlnU1zrp4zMfYahGxs/1jRayt9Le9qqYq9BgCQNoE2AADj6sHPPDigotlzxofOMP83cH3f6fMERMpOv+j0t0ZdAADIAIE2AADjassTW5oHtw4qasY0zGgwdiRwm76/aSz2GqQtGd8DAKRLoA0AwLi7f/H9OkkzyNiRsP1q8690B6csuTFUrCkORV0EAEiZQBsAgHHXt66vSZd29hg7Er7etb2xlyB1J886+fnISwAAqRJoAwBQFrq0s8fYkfA99eBTv4y9BmlreVfLpLgrAADpEmgDAFAWurSzydiRsG3+4eaq2GuQtrYPtjXFXQEASJdAGwCAsnn0jkeHVTdbjB0J294de5tG9o7EXoZUTWufFvHVA0D6BNoAAJTNw19/eJLwLVuMHQlff3d/7CVIVXVttcWQAJAigTYAAGUztn+s+Ngdjwl+MsbYkbCZo50+iyEBID0CbQAAymrDVzf4zJkxxo6Ebcu/bhmLvQZpsxgSANLjywUAAGU1MjRSs/GujaOqnB3J2JHaqbU7Y69DqHb9fNf02GuQNoshASA9Am0AAMru4W88/JwqZ8up7z/V2JGAmaOdLoshASA9Am0AAMpux6YdTQO9AwqdIXP/dm5j7DUIWd93+nTYp8hiSABIj0AbAICK+M6N3xHAZUhze7NALmCbvr/JHO2UWQwJAOkQaAMAUBF96/qaRvaOKHaGvO3stwnkAvWrzb96a+w1SJvFkACQDoE2AAAVs375+mHVzo53X/nu5thrEDJjfNJlMSQApEOgDQBAxTx2x2MvqnZ2tM9vj70EQXt6/dNGxqTIYkgASIdAGwCAihkdHq3rXdur4BnSclaLNt9A/ezHPzMyJkXJYsiqSVWj0RYAAFIi0AYAoKI23LRBgJohbRe2nRh7DUL1i8d/4exS1tjSuCfqAgBACgTaAABU1JYntjQPbh1U9Iw440Nn1MVeg1AlTzxYtJquWe+dNRbz9QNAGgTaAABU3KN3PGo5ZEY0zGgoFGuKZjEHqr+7P/YSpGraO6dNifjyASAVAm0AACrOcshsabuwTZtvoDb/aPO22GuQpun/z/RivFcPAOkQaAMAUHGWQ2bL6Red/tbYaxCqZ37wTFXsNUhTc3tzvBcPACkRaAMAkIof3/ljyyEzon1+e+wlCNavNv/KzYiU1U6t3Rl1AQCgwgTaAACkYtP3NzVbaJcdfzLzT34Zew1CNdDr3lCa6k+p3x/v1QNA5Qm0AQBITc8DPaOqnw1//td/Xh17DUK17d+2eR2laPoZ0+0EAIAKEmgDAJCa737xu79R/Ww49YJT62KvQah+9uOf7Ym9Bmma+Z6Z0+O9egCoPIE2AACpGRoYahzcOugAMiBZblc1qUqnb4C2/OuWsdhrkKaGGQ3xXjwApECgDQBAqr637Hu7nUA2nNJxirMI0K6f79IhnKLkZhAAUDkCbQAAUtXzQM9EJ5ANbRe2nRh7DUJlMWS6aqfW7oz5+gGgkgTaAACkanR4tE4Ylw3maIfLYsh01Z9Svz/m6weAShJoAwCQukf+4RGjLjLAHO1wWQyZrulnTH8x5usHgEoSaAMAkDpjR7LDHO0wWQyZrpnvmWmOOQBUiEAbAIDUJWNHetf2OogMMEc7TBZDpqthRkPMlw8AFSXQBgAgE358548N0s4Ac7TDNbh1MPYSpCYZ1wMAVIZAGwCATNj8w82NTiJ95miHy3LVdBVrikMxXz8AVIpAGwCATBjbP1bs7+53GBlgjnaYNv9o87bYa5CmmpNrRuK9egCoHIE2AACZ8cT/ekKQmgEt72qZFHsNQrTtyW2+36Vo1ntnWcwJABXgAw8AAJnR80DPRKeRvrYPtjXFXoMQ/d9n/q+FnimqnVp7UrQXDwAVJNAGACAzRodH68wBTl/rnNbYSxCk5PUTew3S1HJWi/oDQAUItAEAyJRH/uERY0cyYMrbp5jHHCBz6NPTMKMh1ksHgIoSaAMAkClP/8vTB5xI+lre1VIVew1CtOvnu0Zjr0FaBNoAUBkCbQAAMmXvjr1Ng1sHHUrKTr/o9LdGXYBAbf/p9l2x1yBNtVNrd8Z79QBQGQJtAAAy58l/enLIqaSrub055ssP1jM/eEZnfYomnzR5LNqLB4AKEWgDAJA5fev6nncq6UrGJ1RNqjK+IjDD/3e4OvYapGnWe2cJtAGgzATaAABkzpYntmgPzoBTOk6xoDMwo8OjdbHXIE0TT5g4Od6rB4DKEGgDAJBJvWt7HUzKWt7VMinqAgSqv7s/9hKkpu2DbU2RXjoAVIxAGwCATHrqwad+6WTSJZwL066f7zIqJiXF2mKU1w0AlSTQBgAgk/rW9ZkFnLJp7dOivv5Qbf/p9l2x1yAtlqkCQPkJtAEAyKRkFvDg1kGHk6Lq2upCsaY4FG0BAvXMD56pir0GabJMFQDKS6ANAEBmPfPDZwRDKTt51snPR12AAO17bp9AO0X1p9TrkAeAMhJoAwCQWU89+NRup5MuiyHDs3fHXrPPU3Ri44m+ZwNAGfmLFgCAzNr8w82NTiddFkOGybie9Ew/Y/qLsV47AFSCQBsAgMwa2z9WHOgdcEApapjREO21h0ygnZ7aqbUnxXrtAFAJAm0AADLt6fVPW0qYoiTQtuQuPFue2OJ1k5KWs1rqorxwAKgQgTYAAJnWt67PUsKUWXIXnr079j4Xew0AgHwSaAMAkGnP9jxrjnbKWt7VUhV1AQL0zA+ecWYpaZ3TGuV1A0ClCLQBAMg0c7TT9453v6M+9hqEZt9z+wTaAEAuCbQBAMi8bf+2zQznFE15+5RitBcfqL079jbFXoM01U6t3Rnv1QNAeQm0AQDIvKcefGq3U0qPEQphGtw6GHsJUjOpetK+SC8dAMpOoA0AQOb94vFfnOiU0lWsKQ7FfP0hEminZ0rrFN+1AaBM/CULAEDmjQ6P1o3sHXFQKao5ucYBBGbXz3cZ1ZOSt7ztLS9GeeEAUAECbQAAgtDf3e+gUjTrvbPGor34QG3/6fZdsdcgLbVTa0+K88oBoPwE2gAABGHzjzZvc1LpmfbOaVNivfZQ/foXv/Z9LyUtZ7XURXnhAFABPuAAABCEZ37wTJWTSs+Ut08pxnrtodrVv8vYCwAgdwTaAAAEYfeW3fVOKj3T2qfFeunB+o9f/4exFynxegGA8hFoAwAQhLH9Y8WB3gGHlZLq2upC1aQqSwYDkixTjb0GaUleLwBAeQi0AQAIxrZ/2yZQTVH9KfWWDAZmZO9I7CVIjRtAAFAeAm0AAILxsx//bI/TSs+U1im+PwRme+/22EuQGjeAAKA8fCAFACAYW/51y5jTSs9b3vYWSwYBAEiVQBsAgGDseXbPFKeVnpnvmTk91msPVd93+nbGXoO0eKIBAMrDX7AAAAQjWQw5uHXQgaXEorvwHHjhwL7Ya5AWTzQAQHkItAEACMpA74ADS0nrnNYorztk257c5jsfAJArPtwAABCUzT/avM2JwdF5fvfzuoRTMu2d04xIAoAyEGgDABAUHafpmvL2KW4oBGT/yP7JsdcgLVPePqUY55UDQHn5MgAAQFD2PLtnkhNLz5uq3lQV67WHaO+OvU2x1wAAyBeBNgAAQRHQpWvWe2eNxXz9cLQaZjSoFQCUgUAbAIDgWAyZnoknTDTCIjCDWwdjL0EqBNoAUB4CbQAAgiOgS0/bB9t0yAfG6wUAyBOBNgAAwdn8o80WEwKZVzWpatQpAcD4EmgDABCcX//i1z7HpmRa+7QorztkW57YMhR7DdJSf0r9rjivHADKxxcBAACCs6t/14tOLR3VtdUxXnbQ9u7Y+1zsNQAA8kOgDQBAcHb9fNd0p5aeYk1Rxy8AAKkQaAMAEKSRvSMOLiV//JY/1vEbkGd+8ExV7DVIS8u7WtQeAMaZQBsAgCBt793u4FJyYuOJvkcE5MWxF8dir0FaijVFtQeAceaDKAAAQdKhnZ7pZ0w3wxwAgFQItAEACNLmH23e5uTgyPY8u2eKMqVj4gkTJ8d43QBQTgJtAACC9Otf/Npn2ZRMe+c0AWlAxvaPFWOvQVraPtjWFOeVA0D5+BIAQCVsVWVgvO3q32XsRUqmvH2KgBQAgFQItAGoBIE2MO72j+z3KD8cJTPnAYC8EGgDABCkvTv2epQ/JdPap0V53SHb3rs99hJQGd3qDEC5CbQBqIReVQbIj+raaqcJR6FhRkNsZdqbgT8DADkn0AagEowcAcqiv7tfYYHMijDQ1sQAQNkJtAEou66DXcmXm2GVBsiP2qm1Ox1nOMzQpkIE2gCUnUAbgEoxUxEYd1ue2DKkqumYVD1pX4zXHarNP9q8LfYaUHZ9XQe7jBwBoOwE2gBUikAbGHd7d+x9TlUBMsFnPQAqQqANQKWsVWmA/Dix8UTfJeAoFGuKsTxJItAGoCJ8CAWgIroOdiWLIftUGxhPz/zgmSoFTcf0M6a/GON1w7H647f8cQxPkmzrOtileQGAihBoA1BJ96g2MJ5eHHtxTEHhyH79i1/77kc5CbMBqBgfagCopCTQHlZxYLzsH9k/WTHhyHb179JRTzndqroAVIpAG4CKKW2+94UHGDd7d+xtUs101E6tPSnG6wZe4X+WRssBQEUItAGotFt1aQOEr+WsljrHCBQKhRsVAYBKEmgDUFG6tAGAmLyp6k15Xl6rOxuAihNoA5CGJNDepvLAeBjoHVBHILNmvXdWXpfXJk/cLc7AnwOAyAi0Aai4Upf2ZSoPjIfRvaPqCEew59k9U9SIcXZZ6TMdAFSUQBuAVHQd7OouFArfUH2AMDXMaHByARnbP1aMvQaMq3VdB7vWKikAaRBoA5CaroNdyWOqfU4AIDwCbYhWnyftAEiTQBuAtM0xTxs4Hrt+vsvMEYDKGDZqBIC0CbQBSFXpC9H80hckgGO2/afbd6kaQNkln9XmdB3s6lVqANIk0AYgdaUvRnOE2gAAmSTMBiAzBNoAZMJhobaZ2gAA2SHMBiBTBNoAZMZhofajTgUAIHVJo0G7MBuALBFoA5ApyUztroNdSaj9BScDkG1Vk6os5IT8+kapM3urMwYgSwTaAGRS18GuGwuFwtxCobDNCQGvZ9uT23ymTUn9KfUWcgZkoHcg9hKkYuZ7Zk4P7I+cfPa6qOtg1+LS8m4AyBQf/gHIrK6DXd1dB7tmlLq1LYwEXtXzu59/UWXgyEb3aqhPQ3VtdSh/1OHSZ65kxMjaDPx5AOBVCbQByLxSt7ZgGwBg/B0Ksmckn7l0ZQOQdVVOCIAQlL5cJcH2jZ0TOi8rFArzC4XChQ4PAOANSRY+3looFNYKsQEIiUAbgOB0Hey6p1Ao3NM5obO2FGzPKf2ENqMSAKBSktnYvUmAXSgUui17BCBUAm0AglXqJrqn9FMoBdzthULh0D+BCDT9adPkQqGwz1lXXlL7XT/fpfaBqHpzVfL3o07cCku57ltLP726sAHIiwkHDx50mAAAAAAAZJ6lkAAAAAAABEGgDQAAAABAEATaAAAAAAAEQaANAAAAAEAQBNoAAAAAAARBoA0AAAAAQBAE2gAAAAAABEGgDQAAAABAEATaAAAAAAAEQaANAAAAAEAQBNoAAAAAAARBoA0AAAAAQBAE2gAAAAAABEGgDQAAAABAEATaAAAAAAAEQaANAAAAAEAQBNoAAAAAAARBoA0AAAAAQBAE2gAAAAAABEGgDQAAAABAEATaAAAAAAAEQaANAAAAAEAQBNoAAAAAAARBoA0AAAAAQBAE2gAAAAAABEGgDQAAAABAEATaAAAAAAAEQaANAAAAAEAQBNoAAAAAAARBoA0AAAAAQBAE2gAAAAAABEGgDQAAAABAEATaAAAAAAAEQaANAAAAAEAQBNoAAAAAAARBoA0AAAAAQBAE2gAAAAAABEGgDQAAAABAEATaAAAAAAAEQaANAAAAAEAQBNoAAAAAAARBoA0AAAAAQBAE2gAAAAAABEGgDQAAAABAEATaAAAAAAAEQaANAAAAAEAQBNoAAAAAAARBoA0AAAAAQBAE2gAAAAAABEGgDQAAAABAEATaAAAAAAAEQaANAAAAAEAQBNoAAAAAAARBoA0AAAAAQBAE2gAAAAAABEGgDQAAAABAEATaAAAAAAAEQaANAAAAAEAQBNoAAAAAAARBoA0AAAAAQBAE2gAAAAAABEGgDQAAAABAEATaAAAAAAAEQaANAAAAAEAQBNoAAAAAAARBoA0AAAAAQBAE2gAAAAAABEGgDQAAAABAEATaAAAAAAAEQaANAAAAAEAQBNoAAAAAAARBoA0AAAAAQBAE2gAAAAAABEGgDQAAAABAEATaAAAAAAAEQaANAAAAAEAQBNoAAAAAAARBoA0AAAAAQBAE2gAAAAAABEGgDQAAAABAEATaAAAAAAAEQaANAAAAAEAQBNoAAAAAAARBoA0AAAAAQBAE2gAAAAAABEGgDQAAAABAEATaAAAAAAAEQaANAAAAAEAQBNoAAAAAAARBoA0AAAAAQBAE2gAAAAAABEGgDQAAAABAEATaAAAAAAAEQaANAAAAAEAQqhwTAEB8Oid0thcKhdrShSf/bP+DIrza/3aseguFwt4/+P8c/r/t7TrY1evXDwAAOFoTDh48qFgAADnROaFzRqFQOPzn8GA6+WdNRq90W6FQ2Fr69+7SPw+F371dB7v+MBgHAAAiJNAGAAhM54TOQyH1oS7rOaV/tuX8LB89FHCXwu+tXQe7uo/i/wcAAOSEQBsAIMNKo0FmlMLrORnvsk7LtlLI3Vvq7k6C7q3Z/KNyvDondM5RRMifrNygPOxJJyDnNEaEywztgHVO6ExeeOfGXofD9JW6tpK6rDWTE8qvc0Ln/MMCNiHby32h62DXjVn6A5F9pc7rOcLrYza99HNhoVD4fOF3tXxZyO0LS648EnsBIKcmZOSyLjv0dwmQe1l53+EYCbTJk0OPWSch/+dLX2Rv7DrYdY9ThvFTCtwWl34EbXAcSl1gcw77ma6e4+ZlIXfnhM5CaWTJoS7ubnO5AQAgPAJt8iz5EvutzgmdSeh2mY5tOH6l19ONgmx4Yw7rwE5+5guwK+7c0s8nCr87j0c92QUAAGERaBODpHP7qc4JnX+jWxvemFIId2uhUPhrJYRjU+rCnl/6MSosW8497Mmu4STYPizg1r0NAAAZJNAmJkm3dkGoDcemFGZ3HzbWBziC0iLHy3RhB6WmdNPur0ufGR4tBdxrLZgEAIDsEGgTG6E2HLt7hNlwZELs3DnUvf31zgmdfaX3QuE2AACkTKBNjJJQu9esTDiyzgmdN5YWqgGvojRO5LLSjxA7v5Kbel8vhdvrDuvcNpYEAAAqTKBNrNYmnXS+iMJr65zQmSyt+7wSwcuVxvAkXdiLPb0QpQtLP7d2TuhMgu17ug52dcdeFAAAqBSBNrGaXgoibvQbAK9UCuyM5oHDlEaKLC6F2TVqE73fz9zunNC5rbQ49x43ywEAoLzepL5E7POlR8WBV1psfAL8TueEzsuSUVWFQuGpUoApzOYPTS+NJNnaOaHzntLNDwAAoAx0aBO7pAN1TuxFgMOVurMXKwoxO2w29mIBNsfg8K7tR5Ou7a6DXWsVEAAAxo9Am9idm8wJNvsSXuZWAR6xKgXZN5ZCSTge55Y+Z2wr/U5ZIgkAAOPAyBEwRxt+rxTmCfKITnJzs3NCZ3Jz89+9BhhnyTiSb5XGkdxYegoGAAB4gwTaUOrSVgd4iRs8ROWwIPuRUkctlEvy5MvnBdsAAHB8BNrwO0I8oqc7m5gIskmRYBsAAI6DQBt+R5c2uLFDBATZZIhgGwAA3gCBNvwnYR7R0p1N3gmyybCXBdsOCgAAXp9AG/6TLm1iJkQhl5KbNZ0TOu8RZBOAl4LtzgmdSbB9mQMDAIBXJ9CGlxPqER3d2eRRMr6h1O36736/Ccz0QqHwreSJAjfaAQDglQTa8HK6tImRGznkSqm7dWtpjAOEKnmi4JHkCYPSjUcAAIheQaANr0q4RzR0Z5MnnRM620tzsr9VGt8AeZC8R/earw0AAL8j0IZX0qVNTAQkBK80XuTWQqHwlDnZ5NSh+dq9PqMAABA7gTa8OiEfuac7mzzonNA5vzRe5BMOlAi0lcaQ3JrcyHHgAADESKANr06XNjFw44Zglbqy1xYKhQeNFyFCyQ2craUbOgAAEBWBNrw2YR+5pTubkB3WlX2hgyRiyY2cB5MbO7q1AQCIiUAbXlvSpX2Z+pBTbtgQHF3Z8KouLHVre7IMAIAoCLTh9Qn9yJ1S6KE7m6DoyobXVWO2NgAAsRBow+ubrkubHHKjhmCUurJv1ZUNRyWZrd3dOaGzXbkAAMgrgTYcmfCP3Ch1Z5/rRAlBKZTrLoV0wNFpKxQKT3VO6FysXgAA5JFAG45MlzZ54gYNQSi973aXwjng2H3dwkgAAPJIoA1HRwhI8HRnE4LSiJF7CoXCt4wYgeOWzJzvNYIEAIA8EWjD0dGlTR64MUOmdU7onFHqyra0FMbP9NJcbZ9jAADIBYE2HD1hIMHSnU3WlX5He40YgbJInnb4VmnBKgAABE2gDUdPlzYhc0OGzCq9tz5ixAiU3Sc6J3R2m6sNAEDIBNpwbISCBEd3Nll22LxsoDLOLY0gMVcbAIAgCbTh2OjSJkRuxJA5peWP5mVDOtqE2gAAhEqgDcdOOEgwdGeTRaVxB91+NyFVyYifp9yoB4D/v707yqobOdcGXMrKvX1GgDMCkxGYjMDOCKCv6rLpEcQ9gsaXddUwguARBEYQPIIfZmBGoH+JXRDoxjbSlrRVqudZi5XOOTkn2iVZeL/16hNQGoE29KelTUlswLAouRF67eWPsBjdyyKPnQ4AAEoh0IZhhIQsnnY2S5PD7Asvf4TF+S3PswcAgMUTaMMwWtqUwMYLixGb+EGYDYt2KNQGAKAEAm0YTljIYmlnsyR5A/DfwmxYPKE2AACLJ9CG4bS0WTIbLixCvk/+7mxAMbpQ+yK/vBUAABZHoA3b+egLH0uTRztoZ7NzwmwoVvc7RKgNAMAiCbRhO3shhGNryMKcOCHsmjAbivdWqA0AwBIJtGF7x77ssRQ5RNxzQtglYTashlAbAIDFEWjD9l5pabMgZmezU8JsWJ23nvwBAGBJBNowDi1tdk47m10TZsNqdS+KPHV6AQBYAoE2jENLmyXQzmZnYhP3tThh1YTaAAAsgkAbxqOlzc5oZ7NLOcy+yJt7wHp1obaNKwAAdkqgDePR0maXtLPZidjEN8JsqMrPeRMVAAB2QqAN49LSZnba2exKvt+dC7OhOr8LtQEA2BWBNoxLS5td0M5mV7pm9lurD1U6yeOGAABgVgJtGJ+WNrPRzmZX8svhhNlQr24T/yKPHQIAgNkItGF8WtrMSTub2cUmdve4QysP1ev+znNuIx8AgDkJtGEaWtpMTjubXYhN/BBC+M3iA1n3pMapxQAAYC4CbZiGljZz0M5mVnleruAK+KP3sYl+JwEAMAuBNkxHS5vJaGczt3w/O80bdgB/9K/8BAcAAExKoA3T0dJmSppwzM1LIIEfOfWSSAAApvZXKwyT6lraJ6lNXy0zY9HOZm75JZDvLfxqfQkhdL+nrvNP5+Lxh01tuujz4WMTDx79267dv5//+c2jH/ex9bl7SeSj8w0AAKNr2ra1qoWKTey+XL6rfR0K8GtqkzYto8hjH66NfSjCKv7s57nZ/13AobC9yxDCVb6H3P1ratP1Ltc1X1/dfe0gB937ngRYhU+pTZ5SK0xsoi+GL3OZ2nQwxv8jqEne7P6Pk/4iMgT4AQ1tmJ6WNmM6FmYzl7yBcm7Bi/Qlh9bd5vdVatPVEj/Eo+N60gDPX3r3c9B94L5XnJ+74kVqk/sHAACjE2jD9Lov4SchhCNrzTZyuKjxxpxOjYUoxk0Ohbuf89I3UfOIk4v8+/O+yX0fbht/U4Zunvb+rp8CAABgfQTaMI/D2MSPvtSxJe1sZpNntQsOl+0mN+hPl9rAHkv+fFePAu4PIYT7H/fFZXqVN8WMZgAAYFQCbZjPRy1thtLOZk6xiW/ug0MWp5oQ+3vyKIu7cRaPwu3DxR5wvd7lDX1zQAEAGM1fLCXM5jCHRDCEdjZzOnW9Lc5ZCOGfqU1vupft1Rxm/1EXbqc2dRvG/xdC+CmH/izHv/LIGAAAGIWGNsxLS5vetLOZU9em7FqVFn0RbnNT/tTIqh/Lc8NP8+zmg3zfNDZnGU7zSz4BAGBrGtowLy1thtDOZha5Rfkvq71zN7lp3LWxvX9hgO6lkqlN3RiSv+V2O7v1Nm+WAQDA1gTaMD9f6Hgx7WxmZm72bt0F2XmsyGluHLOFbjMgjyMRbO+e0SMAAIxCoA3z09KmD+1sZhGbeGzUyM7cPg6yK12DSQm2F8P1DQDA1gTasBta2vyQdjZzyZts7ku78WseLSLom8GjYPsfIYTL1X/g5TF6BACArQm0YTe0tHkJ7WzmcuJam10Xpv4tz8g2WmRmecb2QZ5VflvVh9+9Y38HAgBgGwJt2B0NJb5JO5u5xCZ2L857b8Fn04Wn/+zCVC973L3cjH9jDMmsXpnXDwDANgTasDta2nyPdjaTyxsngqX5fM7jRc5r+cAl6Bryj8aQaGvP431s4kENHxQAgPEJtGG3tLT5E+1sZtRdZ3sWfHL3rewPxossVzeGJLe1P9e+FjMxNx4AgEEE2rBbWto8RzubyeV7j42T6X0JIexrZZcht7U/mK09iz0viAQAYAiBNuyeL3M8EDIyo482Tib3KbVp36zs8uTZ2t1IjJva12Jix/mpJAAAeDGBNuyeljaPCRmZXJ5de2ilJ9M1e39KbbI5VbDUpquuXR9CuKx9LSbkBZEAAPQm0IZl0NLmvp0tZCBlq9wAACAASURBVGQO7jnT6cLsg9zwpXB5BEm3AXTmXE6m29jfX+lnAwBgAgJtWAYtbYKQkTnEJnbzgd9Z7Encz8u+WuFnq1pq01EI4Zfa12FCWtoAALyYQBuWQ5uvYtrZzEhwNI0vuZltXvZKpTad5JdFMr53eRQSAAD8kEAblsOXubppZzO52MSuZbpnpUd3H2Z/Xdnn4g/yKBmh9jT8HgQA4EUE2rAsvsxVSDubGbnHjE+YXRmh9mRs7AMA8CICbVgWX+bqJGRkctrZkxBmV0qoPRm/DwEA+CGBNiyPL3MV0c5mRu4t4xJmV06oPQkb+wAA/JBAG5bHl7m6CBmZnHb26ITZ3BFqT8LvRQAAvkugDcvky1wFtLOZkXvKeG5DCB+E2dzLofYnCzIaG/sAAHyXQBuWyZe5OggZmZx29qhuczP7ekWfiRGkNh2HEM6s5Wj8fgQA4JsE2rBcvsytmHY2M3IvGc9xatPVWj4MozvO42jYno19AAC+SaANy+XL3LoJGZlcvodoZ4/jUx4tAc/KY2g+5CY/2zu2hgAAPEegDcsm9Fwh7Wxm5B4yjss8UgK+K4+j+WCVRvE+/74EAIAnBNqwbFra6yRkZHI5CHpnpbd2K6Ckj9SmixDCrxZtFH5fAgDwJwJtWD5f5lYkNnFfO5uZuHeM4yiPkoAXS236aJ72KD7EJr5ewecAAGBEAm1YPi3tdTmpfQGYXg6AtIq3183NPi/9Q7Az5mlv71W3qVT6hwAAYFwCbSiDpuUK5I0JIyCYw1EOghjuxr2XbeR52q6h7ZlfDwDAEwJtKIOW9joINpiLAGh7Ro2wtdSm7qmcSyu5lT1/BwIA4DGBNpRDGFow7Wzmkq+1PQu+lbP8Yj8Yg5EZ27NJBwDAA4E2lENLu2w2JJiL8Gw7t8IzxpRHj/xqUbfyPjbxTcHHDwDAiATaUJZT56s82tnMJb8M8tCCb+XYqBHGltr0Mc9lZzgvugUA4I5AG8rSzZHUviyPdjZzcX/YzpfUJhuHTEXzfzvWDwCAOwJtKI9wtCDa2cxMoL0dgRmTSW0694LIrXSb+vsFHz8AACMRaEN5tLTLYgOCWeT5sm+t9mCXXgTJDGyabMf6AQAg0IZCCUkLoJ3NzAQ927FRyORSm65CCGdWejBztAEAEGhDobS0y2DjgTkJeoY7S226LvXgKY7fDcO9ik10rwMAqJxAG8rlC/GCaWczpzxXds+iD+Z+ymzy5omW9nACbQCAygm0oVxa2ssmIGNO7gXDaWezC35HDCfQBgConEAbyuYL8QJpZ7MDAp7h3EeZnZb2VowdAQConEAbyqalvUwCMmZj3MhWLrWz2aFTiz+YQBsAoGICbSif8HRBtLPZAZtaw7l/sjOpTRfdpoozMIhAGwCgYgJtSuZL4IaW9rKc1L4AmT+f8zmo5YOO7CYHirBLWtrDGDsCAFAxgTYluxaaPdAyXIC8sfC29nUIIdwK9ucRm/jGNTeY+yY7l9rUBdo3zsQgNvMAACol0KZkbzxq/0BLexkEZBsn+c8n09NQHKbbdDkv8cBZJS3tYdz/AAAqJdCmaPllXmfO4h1h6g7lDQUv5vtfO/v1Ao6lBhqKw5ynNn0t8cBZJYH2MHv5KRUAACoj0KZk9y/eE+RuaGnvlutw40RQOKv3FX3WMQkQWYy8OW+E2jBa2gAAFRJoUzwt7SeEqjugnf3g8exsrbmJxSZqZw/jZZAskU2WYdwHAQAqJNCmaLGJ92MNBLkbWtq74frb+PionS3Qnp5m4jCCQ5boPG8K0o+nVAAAKiTQpnT7QUv7j04eBf1MTDv7Qdd6PXnhf5ZxaCYOI9BmcfJmoBeVDuBpFQCA+gi0WRMt2Y1XIYTjJRxIJVx3G9ZhRnnT6m01H3g8X/IGKCyRQHsYgTYAQGUE2qxGDil+dUbvHGtpT087+0HXzv5j69XIkWkJcIbRzmaxUpuMHRnG/RAAoDICbUr3xy8xJ74M3tHSnodW8sZz6yDon9b+mj/chLwMkqXT0u7vXWkHDADAdgTarEqeQWmO74aW9oS0sx88185mehqJ/XXX6lVpB011bLoMYI42AEBdBNqskZb2hpb2tLSzN6zDbmgk9qf5Sglcp8N4agUAoCICbUr3pwaylvYTWtoT0M5+oJ29A5qIgwkKWbz8d5hLZ6o390UAgIoItCndtxo5WtobWtrT0EreePbaik3UlJuW9R0gtckoB0rhWu3PfREAoCICbVZJS/sJLe0RaWc/uExt+lbj1fU2LcFNf59LO2Cq5mmC/vZiE9+UdtAAAAwj0GbNukD7xhnW0h5L3hjQzt6wDrsj0O5P45Vi5JeXesqsP/dGAIBKCLRZrdzSFrptaGmP41g7+86l8Q079bbizz6U65XSuGb7E2gDAFRCoE3pvvt4aX5hnZa2lvbW8oaANdywUbQjXgg5TG68QkkE2v25PwIAVEKgTele0pYVvm1oaW/nOG8M1E47e7c0EPu7LO2AIYRgE6Y/M7QBACoh0Gb1tLQfaGkPpJ39hA2i3RLY9GcDhuLYOBzESDAAgEoItKmFEG5DS3sY7eyNl7azha7T0dDuTzBIqTxd0JOxTAAAdRBoUwUt7Qda2j1pZz/x0o0hgfZ0BNr9Gd1AqVy7/blHAgBUQKBNTYSSG1ra/Whnb5x5BH638p9b12I/N6lNX0s6YHhEoN2fv98AAFRAoE01UpvOPb57R0v7hbSznzC2Z/c0D/u7Lu2A4RHXb39GjgAAVECgTW2EchtdS9tYiB/Tzt7o2tmCld3zZ7Y/TxVQLE/FDOI+CQBQAYE2VclfDrW0NyGtcP87tLOfcK0sg6CmPyMbKN0XZ7CXvYKOFQCAgQTa1Eg4t3Gopf1d2tkb2tnLYeRIf65dSuca7snfbQAA1k+gTXW0tJ8Q7j9DO/sJ18hyeNlZT6lNGtqUzjXcn0AbAGDlBNrUSki3oaX9PO3sDe3sZdHQ7uempIOFb3AP7s+9EgBg5QTaVCm3tD87+3eE+49oZz/h2lgWmyz9CAJZA9dxf55mAQBYOYE2NRNabmhpP6WdvfGrdvZy+DM6iFENrIHruD/3SwCAlRNoU60c1p25Au5o4mpnP3YbQjhZzuEgoBnka4HHDE+kNrmO+3O/BABYOYE2tRPkbmhpb5xoZ985EaIsjkfo+9NsZS2+OJO9uF8CAKycQJuqaWk/UXW4nwP9wwUcyq5pZy+Tl5z1Z1OGtXAt9/O2pIMFAKA/gTZoad+rvaXtOtjQzmYtzIBnLVzLAADwiECb6mlpP1FlqKud/UA7e7k8Qt+Tl5qyIq7lnvI7MQAAWCmBNmx8zGFe7WptaWtnb2hnL5eRIwAv554JALBiAm34X5NPM3WjqnBXO/uBdjZrculssiIXTiYAAPyPQBv+50RL+05tLW3t7I2P2tkAAADA0gm0IcthnobqRhUhr3b2g5vUJtf+snl8HuDlDqwVAMB6CbThKS3tjVpa2trZG9Zh+V7VvgA9eYkea3LlbAIAwP8ItOERLe0nVh1yamc/6NrZpws5FhiLQJvVMA4KAACeEmjDn2lpb3Qt7TU/squVvGEdAAAAgGIItOEPtLSfWGXYqZ39QDsbAAAAKIpAG56R2tQFuTfWJrxbaUtbK3nDOhQgNtELIQH6cd8EAFgxgTZ8m7BvY1XroJ39QDu7HK9rX4ABzNBmbWyy9+O+CQCwYgJt+IYc9vkCub6Wto2KjaMlHARMRKDN2rimAQAgE2jD9wk/N1axDtrZDy5Tmy4WciwAAAAALybQhu/Q0n6wlpa2l31u2KgBAAAAiiTQhh8T/m0UvQ45kH+/gEPZNe1sAAAAoFgCbfgBLe0Hpbe0bUxsWAcAAACgWAJteBkv0NsoMgzNQfy7BRzKrmlnAwAAAEUTaMML5BDw0loV29LWSt6wDgAAAEDRBNrwcsLAjaLWQTv7gXY2AAAAUDyBNryQlvaD0lraNiI2jpdwEAAAAADbEGhDP8LRjSLWQTv7wVlq09VCjgUAAABgMIE29KCl/aCUlrYNiA3rAAAAAKyCQBv6Ew5uLHodtLMfdO3s64UcC8xl30qzMm+cUAAA2BBoQ0+5pf3Zui2+pW3jYcM6lM+GRH+vSztg+IE9C9SL+yYAwIoJtGEYL9jbWGRYqp39QDt7BZxDgN7cNwEAVkygDQPkgOnM2t21tD8s4Dj+SCt5wzoAAAAAqyLQhuGEhRsnSziIe9rZD7SzAQAAgNURaMNAWtoP9mITjxZyLMFGw51b60DlvECP1YhNdD0DAMAjAm3YjtBwYxHroJ394EQ7e3Vual+AngSArInruT+/AwEAVkygDVvQ0n6wlJa2DYZNO3tRY2AYhXAG4OXcMwEAVkygDdv7mEPE2u00TM6Bunb2pp39dQHHAbv02uqzIq5nAAB4RKANW8otbY3Y3be0tbO1s+HeWyvBiuw7mQAA8D8CbRjHiZb2nZ2EyjlI39vFf/fCaGev10XtCwDwUqlN7pkAACsm0IYR5BBRM3Z3LW3tbO1seCI2UauVtfBSSAAAeESgDePR0t6YNVzWzn6gnQ1PmTvMWgi0+/F3MQCAlRNow0i0tB/M3dLWztbOroHH5/sTArIWNmf6uSrpYAEA6E+gDePS0t6YJWTWzn5wrJ0NfyLQZi285BQAAB4RaMOItLQfzNXS3sW87qW5SW06rX0RKqBx2J9Am+LFJmpn9+d+CQCwcgJtGFlqU9dOvrGu07a0YxMPQgjvpvzvKISRKxXQwB9EoM0aeLlpf+6XAAArJ9CGaQgZp29pW2Pt7NrYKOtHoM0auI77uy7tgAEA6EegDRPIIaPwaaLQWTv7gVC/LkKafszXZw0E2v25VwIArJxAG6YjbJyupW1ttbNrJKTpKW9+Qclcw/2ZoQ0AsHICbZiIlvaD4zH/n8Um7mtn3xHq10eg3Z92K6VzDffknQMAAOsn0IZpCR1DeDtyS3LUgLxQ2tl10jrsTxhI6YzO6edLSQcLAMAwAm2YkJb2g1GC/djELpw6HOeQijblyzZZLq3D/oxroFhG5gziSRYAgAoItGF6wscQ3o30xVzjPYTL1KaLBRwHM3PeB9kv8Jjhnuu3P0+yAABUQKANE8sh1KV13i7Yj018rZ19R6hfN0989PMqP9kBJRJo96ehDQBQAYE2zEMIGcLhlsGS2dna2QhrhhAKUirXbn8a2gAAFRBowwy0tB8MCqVzO1ugbWOEEGxo9CcUpFRvnbl+UpsE2gAAFRBow3yEkSEc5XC6rw/d6IDdHvrOaWcTNLQH8WI9iuOFkIN8KfCYAQAYQKANM9HSvvNq4CxtmwHWgA3tw/7elXbAYCNmEBt+AACVEGjDvISSPUeHxCZ27ey96Q6nCNrZ3PE4/TDarhTINduf+yMAQCUE2jCjHEp+rnzN92IT+7S0zc4e1mpnvWp/0mMI4SCl8WRBfzZ+AQAqIdCG+QloXxjQxia+8aU+nKU2eYyax7QQ+xNoUwxPFAzm3ggAUAmBNswsh5Nnla/7u9jE/Rf854xosQb8mdCmv9o3xiiLQLu/L6lNX0s7aAAAhhFow24IKX/QVI9NfB1C+DDf4SySdjbP8Vj9AHkeP5TAtdqfjT4AgIoItGEHtLTvHObQ+lu6sSSvdnuIO2fjgz/J949bK9Ob1iuLl38vvnWmerPRBwBQEYE27I6w8vuztGufNa6dzfcIb/rTeqUErtNhNLQBACoi0IYd0dK+82xonUcD7M1/OItiw4PvEWj3t/fC2f2wSwLt/m5TmwTaAAAVEWjDbn2sfHTA3jfm2n6vuV0D7Wx+RHgzTO33FpbvvXPUmw0+AIDKCLRhh3JoeVL5OXgSMMUmvqn8C/2tcSv8SGqTAGcY7VcWy4tLB3M/BACojEAbdu+k8pb2+xxi36u9QXmS2vR1AcfB8n12jnozdoQlq/3331ACbQCAygi0YcdyeKml/fw/1+bWtUAPQpxhhIYsTmzia+NGBjE/GwCgQgJtWIbaW9p3Iza8DFI7m14E2sMY68ASuS6HcR8EAKiQQBsWQEs7vIpNPKq8OamdTS+5lVjzRthQ3diRgzIPnRXz5MAw5yUeNAAA2xFow3Joadf9uLV2NkMIc4YRHrIY+T0S75yRQTS0AQAqJNCGhdDSDm8XcAy7op3NUMKcYQ7zzGJYgmNnYZAvqU3XBR43AABbEmjDgqQ2fQwh3Dgn1dHOZigN7eG0tFkK1+IwNvQAACol0Ibl+eicVOVGO5uh8kbIpQUcRCuWncvvj3jlTAxiQw8AoFICbViY1KZTLe2qfNTOZktCnWG6l0N+KPHAWRUbK8PcpjZpaAMAVEqgDcukpV2Hm7yBAdsQaA8nTGRnYhMPKn9/xDbc9wAAKibQhgXS0q6GjQu2ll+K9sVKDvIuh4qwC34HDCfQBgComEAblssX3XXTzmZMrqXhtLSZXWzim25DxcoP0o0bEWgDAFRMoA0LpaW9ejYsGJNwZ7j3OVyEOfkdMJz7HQBA5QTasGxHzs8qaWczKmNHtiZcZDZ5A+XQig8m0AYAqJxAGxYsv8H/0jlaHeEZU7BJMtyhWdrMyJ/V4YwbAQBAoA0FEH6uyxftbCbiutqOey2TyxsnZmcPJ8wGAECgDUunpb06XkDHJFKbvoYQPlvdwd5paTMDGyfbsXEHAIBAGwrhC/A6XOYNCpiKsGc71o/JxCYeaWdv5cbvUAAAgkAbyqClvRo2JphUni17a5UH24tN9BQFo4tNfO13wNZsOAEAcEegDeXwRbhs2tnMReiznY85fIQxdRsle1Z0K+5tAADcEWhDIXIYaj5uuWxIMJcTK72VV4IzxhSbuB9C+JdF3Uq3KXxd8PEDADAigTaUxaPwZdLOZjY59DGiaDvvYxM/lPwBWBQbJNuzhgAAPBBoQ0FyUHXmnBVHO5u5CX+2d2r0CNvKM9nfWsit3KY2uacBAPBAoA3lEY6W5bN2NnPL4c+Nhd+K0SNsJY8a+c0qbs0YJQAAnhBoQ2G0tItjTAy7IozdntEjbMOfwXFYRwAAnhBoQ5m0tMtw5iVW7JBW4zi60SNv1vBBmE9s4olRI6PwexQAgD8RaEOBtLSLYeOBnUlt+uo+MYpu9Mj5Cj4HM8mt/p+t9yi0swEA+BOBNpSrG2Vx6/wtllYZS2BTZRxvYxMFa/xQnpvtWhnHpXdQAADwHIE2FCq3L40UWC5BIjuXN1U+OxOjOIxNPFrB52AisYmvc5j9yhqPwsYAAADPEmhD2U60tBdJO5slsfE1nt9jEw/W8mEY3am52aO5SW0SaAMA8CyBNhRMS3uxtLNZjPzI/qUzMprzPFYCHuSRNO+tyGj8HgUA4JsE2lA+Le1l+aSdzQIJh8bzKofar9fygdhObGL3TotDyzga7WwAAL5LoA2F09JelFvBIUukpT26vRDChVCbPFf9t+oXYlx+jwIA8F0CbVgHLe1lOMkbDLBEQqJxvRVq1y2H2b/Xvg4j084GAOCHBNqwAjlEFVbt1q2mPEumpT0JoXalhNmT8XcZAAB+SKANK5Ha1IWpN87nzmhnUwJh0fiE2pURZk9GOxsAgBcRaMO6CKt2QzubImhpT0aoXQlh9qT8HQYAgBcRaMOK5GaTlvb8tLMpyZGzNYku1L6OTdxf4WdjE2afCLMno50NAMCLCbRhfTSc5qWdTVFSm65DCGfO2iRe5ab2wQo/W7W65n1sYhe2/lz7WkzIRhsAAC8m0IaV0dKenXY2JfqYN2MYXxdq/yc28djali+PkelG9RzWvhYTuszjkAAA4EUE2rBOWtrz6B6RttYUJ7e0PVkwrd+6Vq+52uXKTfvrPE6G6dj8AQCgF4E2rFBuaX9xbicnzKZkJ57mmNxhHkFirnZhYhO7+/t/cuOe6ZylNl1ZXwAA+hBow3ppPE3LC6woWh6V4z4xva7d+18jSMoQm/gmNrEbf/Gv2tdiBrfuQQAADCHQhpXK8ygvnd/JaGdTvNSmc/eJ2XQjSLq29ptKPm9x8qZD1xZ+V/tazOSjd1AAADCEQBvWTeg6De1s1uTI2ZxNF5ReaWsvy6NW9m9GjMzmS2qTOf4AAAwi0IYV09KejI0CViO/IPJXZ3Q2r3Jb+yq/dJAdyrOytbLnZ1MHAIDBBNqwfsLXcWlns0ZeEDm/brb2f2ITT40hmV9s4ofYxOs8K1sre16f8oY7AAAMItCGldPSHp0NAlYnz7E1emQ3DkMI/69rCscmvq5xAebUteLzeJF/hxD26vnki3Hr9ygAANsSaEMdfHkcx6V2NmuVN78+OcE70zWFrwXb03gUZP/HeJGdOvIiSAAAtiXQhgrkoOrMud6ajQHW7mNuULIbrx4F20aRjCCPFhFkL8Pn1Kbz2hcBAIDtCbShHsLY7Vya+cna5ebkByd65149GkVy7uWR/XQN99jEozwj+9+C7EW4NdYIAICxCLShEqlN11raW7EhQBWMHlmc9/nlkV1r+1hr+9tiE/e7ZnvXcA8h/G5G9qIYNQIAwGj+aimhKh9z649+tLOpzcfc1BYILkd3Ln7rfmITP4cQutEN57WHhDngP8o/rtdl+mTUCAAAYxJoQ0W6lnZs4plQuzftbKrShaTd7OEQwn+d+UV6n39+z+H2RQ63r2v48F0TOwfY3SiWtws4JL7txu9QAADGJtCG+mhp96OdTZVSm65iE3/NLylkue7D7a65fZOb290962It7e3cwj7ITw0c5BnjlOFD7U8RAAAwPoE2VEZLuzfNMqqV2vQxv5DQS/XK0I3c+Dn/hBxwd+H2VfdTwuZc90LHEMJ+Dq73BdhF+6XbGKt9EQAAGJ9AG+p0nJtuQoLv+6ydDXf3imv3iyLt5c3Luw3M2MSQR0Bc56D7+v5n7nEleWzIfXj9OgfXb8zBXo3u6aaT2hcBAIBpCLShQnk+7olRAj90vPDjg8k9mqf9H6u9Cnv550nrPofdt7nNHR6F3fe+Pvrf/ch9SH3v8b/ftzmyejd5IwwAACYh0IZ6neTAVrDwvLNaXrAGP9I9qWCedhVePQq6jZlhKHOzAQCY1F8sL9Qpf9n0OPC3mZ0Nj3TztLsxPNYE+A5zswEAmJxAG+p2kh8x5yntbHjeUQjhi7UBnnFmbjYAAHMQaEPFtLS/STsbnpHvGUc2woA/+OK9EwAAzEWgDWhpP6WdDd+RxwkcWSMg6/4OcWBuNgAAcxFoQ+XyF1CN5P+xFvADqU3n3axc6wTVE2YDADA7gTYQ8szLGysRftXOhpfJ940zywVVO/YSSAAA5ibQBu7V3ky+NU8c+klt6kaPfLZsUKWfUptOnXoAAOYm0Abu5C+lNbe0TzwyDYMc5RfCAfU4E2YDALArAm3gsVpb2trZMFDeCDoQakM1zvLTGQAAsBMCbeBBblvVGEppZ8MW8p+fo7w5BKzXpTAbAIBdE2gDf3Rc2YrcpDbVPj8ctpZfDHcg1IbV6ja8Pzi9AADsmkAbeCK16aJ7nLiiVdE0g5EItWG1ujD7wNNMAAAsgUAbeM5xJS+I/JQDfGAkQm1YHWE2AACLItAG/iR/aV37Y8VfKn4JJkxKqA2rIcwGAGBxBNrAs3Ig9dNKV6cL2T74gg7TEWpD8YTZAAAskkAb+KbUptMQwi8rW6Hb/AX9egHHAqsm1IZiCbMBAFgsgTbwXalNJyGEX1eySvdh9tUCjgWqINSG4gizAQBYNIE28EOpTR9XMH7kRpgNuyHUhmIIswEAWDyBNvAiefzIPwoNpC5DCPvCbNidR6H2F6cBFulMmA0AQAkE2sCLpTZdhBDehBA+F7JqXfj+S2qTL+iwAEJtWKyz1KYjvysBACiBQBvopfuym9r0Ibe1lxxKneVW9skCjgXIcmB2kJ+cAHav2/g9ch4AACjFX50pYIjc1t6PTezC7eMQwruFLGQXZH9MbbpewLEAz7gPtWMTu1FGh9YIduanPFIMAACKoaENbCW16bwb6RFC+FsI4VN++eLcPueXVv5ffmRamA0FyK3QX5wrmF03kuvvwmwAAEqkoQ2MIofIXVP7ODbxTR4psJ9/un+/N9J/VTfmpPvv6mbxdi3xKzM/oVzdWKDYxO7PdBesvXIqYXLd79EPNn8BACiVQBsYXf6SrPUFvEj3pEds4kG+b7y1ajCZbizXsY1gAABKZuQIALBzqU1X+cmOz84GTOKXPJZLmA0AQNEE2gDAInRBW2pT96LZX50RGE03L/sf3XgfSwoAwBoItAGARUlt+tgFcDmIA4a77N5jkdp0YQ0BAFgLgTYAsDg5gHuTAzmgv5vUpgMjRgAAWBuBNgCwSHkEyYERJDDIXmyiFzQDALA6Am0AYNHyCJK/d41TZwp6OYxNNDsbAIBVEWgDAIuX2nQVQtgPIXxytqCXn2MTjywZAABrIdAGAIqQR5Ac5xdGamvDy/0u1AYAYC0E2gBAUfILI7W1oZ8u1P5gzQAAKJ1AGwAojrY2DHIam7hv6QAAKJlAGwAoVtfWTm16E0L41VmEH3oVQrgQagMAUDKBNgBQvNSmjyGEv4UQLp1N+K77UPuNZQIAoEQCbQBgFVKbrlObDkII/zSGBL6rC7XPYxNfWyYAAEoj0AYAViW16fzRGJJbZxee9TY3tYXaAAAURaANAKxSHkPSBdufnGF41l2obWkAACiJQBsAWK3Upq+pTcd5vvaZMw1/8jY28dSyAABQCoE2ALB6eb72UQjhH14cCX9yKNQGAKAUAm0AoBqpTRf5xZGCbXiqC7U/WhMAAJZOoA0AVEewDc/6V2zikaUBAGDJBNoAQLUeBdtmbMPG70JtAACWTKANAFTv0Yzt+2D7tvY1oWpdqH1Q+yIAALBMAm0AgOxRsP0mhPBLCOHG2lCp89jEfScfAIClEWgDAPxBatPX1KaT1KYu2P6nOdtU6FUI4UKoDQDA0gi0AQC+I7Xp/NGc7U/GkVCR+1D7tZMOAMBSCLQBAF4gzHJKHgAACW1JREFUjyM5Tm3qwr2fQgifrRsVEGoDALAoAm0AgJ5Sm05Tmz7k1nY3a/uLNWTF3gq1AQBYir86EwAAw3St7RDCSfcTm9jN2+5C7qMcAMKadNf0eQjhwFkFAGCXNLQBAEaQR5J0L5Lc19xmpd7FJp46uQAA7JJAGwBgZM+E2/czt71QktIdCrUBANglI0cAACaUx5Kc5p8Qm3iQxzZ8MJqEQnWhdrdp89EJBABgbhraAAAzSm266ILA3N7+vxDCP0MIn0IIl84DBflXbOKREwYAwNw0tAEAdiS16Wt+0d75/RE8anDv558956e3brTLVQjhtRb8pH6PTeyuYyNIAACYjUC7bMf5ixrAknTBxoUzEq4XcAwUqGtwP/4zFJv4Ogfb9yH3GyHtE1/yn7ervG7XeczL/dpdWK9J/Z7Hj7jvl+8ftS/AC30t4ihhea7cZ17M9wj4gaZtW2sEAFCY2MT7cPv+X+//+dUKz+V94/o6/3Th6dfUpqsf/R/mdbpY6bosRXd+Dl5yPgAAYFsCbQCAlcljS0JudYdHgXfn3QI/7f388PvA+msOsF8UWv+IUHsWQm0AAGYh0AYAqNSj4DvkMWb7z6zEt/7n3/Pc+InrPzxCe5VniM8iNvFDCOHfrvVJdaH2mznPKwAA9RFoAwBQhdjEo27ms7M9qS+5qS3UBgBgEn+xrAAA1CC1qXtp7S9O9qS6F3Be5BdyAgDA6ATaAABUI7XpJIRw5oxPqgu1T1f8+QAA2CGBNgAAVUltOhJqT+59bKJQGwCA0Qm0AQCo0XGe98x0DoXaAACMTaANAEB18ksLD4Tak+tC7eOVf0YAAGbUtG1rvQEAqFJs4psQwlUI4ZUrYFI/5ZdyAgDAVjS0AQCoVmrTdW5q37oKJvV7bOLRij8fAAAz0dAGAKB6sYldqP2f2tdhBn9Pbbpa/acEAGAyGtoAAFQvtemiG4tR+zrM4CI2cX/1nxIAgMkItAEAYBNqnwq1J/dKqA0AwDaMHAEAgEdiE7tg+9CaTOomhLCf2vR1xZ8RAIAJaGgDAMAjqU3dywvPrMmk9nJT+/WKPyMAABPQ0AYAgGfEJnYvL3xrbSb1JYRwoKkNAMBLaWgDAMDzDnLgynS6DYNT6wsAwEtpaAMAwDfkkRjX+WWGTOcsj3oBAIDv0tAGAIBvyKMwuqb2rTWa1GF+GScAAHyXQBsAAL4jtekqh9pMqwu1j60xAADfI9AGAIAfyKH2T9Zpcr/FJho9AgDANwm0AQDgBVKbToXas/hdqA0AwLd4KSQAAPQQm3gSQvjZmk3u77kZDwAADzS0AQCgh9Smbs7zmTWb3EVs4v7KPyMAAD1paAMAwACxiRchhHfWblK33Qs5NbUBALinoQ0AAMN8CCF8sXaTehVCOI1NfL3izwgAQA8a2gAAMFAOWrv28J41nNSX3NT+uuLPCADAC2hoAwDAQDlg/ZBHYzCdt3mmtqY2AEDlBNoAALCFPN/5QKg9uS7UPln5ZwQA4AcE2gAAsKUcah9bx8kdxiaervwzAgDwHQJtAAAYQWpTF7T+ZC0nJ9QGAKiYQBsAAEaSQ+1P1nNyXah9tPLPCADAM5q2ba0LAACMKDeID63p5H7KmwgAAFRCoA0AABOITTwPIby3tpMTagMAVMTIEQAAmEY3EuOLtZ3cSWzi/so/IwAAmUAbAAAmkNr0NYRwINSe3KsQwoVQGwCgDgJtAACYSA61u6b2rTWelFAbAKASAm0AAJhQatNVbmoLtafVhdqnsYmv1/whAQBqJ9AGAICJ5VD7yDpP7m1uagu1AQBWSqANAAAzSG06DyH8ZK0nJ9QGAFgxgTYAAMwktek0hPCr9Z5cF2qfrPwzAgBUqWnb1pkHAIAZxSZ2wfahNZ/cWWqTUS8AACuioQ0AADPLIetn6z65w9hETW0AgBURaAMAwG50ofYXaz+5n2MTtbQBAFZCoA0AADuQ2vQ1hHAg1J7F70JtAIB1MEMbAAB2KDbxdQjhIr/IkGn9M7Xp3BoDAJRLoA0AADsm1J7NbdeKT226quTzAgCsjkAbAAAWIjbxtHuRofMxKaE2AEDBzNAGAICFSG3q5jz/4nxM6lXXho9NfLPizwgAsFoCbQAAWJDUppMQwj9CCDfOy2S6UPs8j3oBAKAgAm0AAFiY1KZunvZ+COHMuZnM29zUFmoDABTEDG0AAFiw2MSDEEI3W3vPeZrEl9Sm/RV+LgCAVRJoAwBAAWITu/naHwXbkzjL88sBAFg4gTYAABREsD0ZoTYAQAEE2gAAUKDYxG5MxnEI4UN+ySHb+5TadGwdAQCWS6ANAACFy3O2D3K4/db53MpPqU2nBR8/AMCqCbQBAGBFYhNfhxD2c8B9kP9Zg7sfoTYAwEIJtAEAYOUehdzdz+s//Kuw+3n/TG06X+KBAQDUTKANAADcz+R+bSUefE1tulrIsQAAkAm0AQAAAAAowl+cJgAAAAAASiDQBgAAAACgCAJtAAAAAACKINAGAAAAAKAIAm0AAAAAAIog0AYAAAAAoAgCbQAAAAAAiiDQBgAAAACgCAJtAAAAAACKINAGAAAAAKAIAm0AAAAAAIog0AYAAAAAoAgCbQAAAAAAiiDQBgAAAACgCAJtAAAAAACKINAGAAAAAKAIAm0AAAAAAIog0AYAAAAAoAgCbQAAAAAAiiDQBgAAAACgCAJtAAAAAACKINAGAAAAAKAIAm0AAAAAAIog0AYAAAAAoAgCbQAAAAAAiiDQBgAAAACgCAJtAAAAAACKINAGAAAAAKAIAm0AAAAAAIog0AYAAAAAoAgCbQAAAAAAiiDQBgAAAACgCAJtAAAAAACKINAGAAAAAKAIAm0AAAAAAIog0AYAAAAAoAgCbQAAAAAAiiDQBgAAAACgCAJtAAAAAACKINAGAAAAAKAIAm0AAAAAAIog0AYAAAAAoAgCbQAAAAAAiiDQBgAAAACgCAJtAAAAAACKINAGAAAAAKAIAm0AAAAAAIog0AYAAAAAoAgCbQAAAAAAiiDQBgAAAACgCAJtAAAAAACKINAGAAAAAKAIAm0AAAAAAIog0AYAAAAAoAgCbQAAAAAAiiDQBgAAAACgCAJtAAAAAACKINAGAAAAAKAIAm0AAAAAAIog0AYAAAAAoAgCbQAAAAAAiiDQBgAAAACgCAJtAAAAAACKINAGAAAAAKAIAm0AAAAAAIog0AYAAAAAYPlCCP8fqze7soHWalIAAAAASUVORK5CYII=;arcSize=20;" vertex="1" parent="ILJUOrgNbJTJBXLJUpU8-7">
          <mxGeometry x="30" y="50" width="140" height="60" as="geometry" />
        </mxCell>
        <mxCell id="ILJUOrgNbJTJBXLJUpU8-13" value="APi Rest&amp;nbsp;&lt;br&gt;node.js" style="label;whiteSpace=wrap;html=1;image=data:image/png,iVBORw0KGgoAAAANSUhEUgAABLAAAALeCAYAAAC6D+jfAAAABGdBTUEAALGPC/xhBQAAACBjSFJNAAB6JgAAgIQAAPoAAACA6AAAdTAAAOpgAAA6mAAAF3CculE8AAAABmJLR0QA/wD/AP+gvaeTAAAAB3RJTUUH4QgXBx8ToNkfpQAAgABJREFUeNrs3Xl8XHW9//H398xkmi5pS9kUZCsIYik0cyatFZWoiIqguJSr97LIIqvQggj8FKUIKF4UWhZZZBNQtMUV3K6odcHaZs4Ei1VExIWlrN2yzHrO9/dH0jZJkzTLTHJmzuv5eIjNZDIz53P293zP5xgBAAAAwDhobGx8o+M450p6u6SZktZLekLSNxoaGr6zYsWKHFUCAEiSoQQAAAAAxvo8xHXdiyVdLSk2wHOetdZemclk7pAUUDIAiPiOgxIAAAAAGEvJZPLLxpiLh/Jca22LpE9lMpnfUTkAiC4CLAAAAABjJpVKNVtrfzXccxFjzPdKpdKljz322N+pIgBET4wSAAAAABgrr33ta2+SdOAI/vRgx3HO2nPPPV+3yy67rH7xxRc7qCYARAcjsAAAAACMiVmzZiXq6+s7Nfov0jdIuiqXy920du3aApUFgNrnUAIAAAAAY6G+vn4vlecqkJ0kfbW+vv4vrusuEF/MA0DNI8ACAAAAMFamlfn19pe0zHXdP7qu+xbKCwC1iwALAAAAQLWbK+l3rus+1NTUNJNyAEDtIcACAAAAUCuOCYLgr67rLp0zZ850ygEAtYMACwAAAEAtSUg6PxaL/cN13UsOOOCACZQEAKofARYAAACAWjRD0jXTpk1b093oHQBQxQiwAAAAANSyA9XV6H1lY2PjfMoBANWJAAsAAABAFLzJcZxHXdddNmfOnH0pBwBUFwIsAAAAAFFhJC2IxWJ/cV33Gtd1p1ESAKgOBFgAAAAAomaipEsk/cN13YXNzc1xSgIA4UaABQAAACCqdpa0pK2t7XEavQNAuBFgAQAAAIi6N0halkqlHmlqappDOQAgfAiwAAAAAECStfadQRB4rusuc113byoCAOFBgAUAAAAAvc+RFkj6q+u61xx++OENlAQAwrFxBgAAAAD0NknSJblc7olkMnnGggULYpQEAMYPARYAAAAADGwPY8xtTz/99JpUKnU05QCA8UGABQAAAAA79kZr7Y+TyeQvksnkoZQDAMYWARYAAAAADJEx5khjTGsymby3qanpNVQEAMYGARYAAAAADPM8yhhzYhAET6VSqcXz58+fSEkAoMIbXkoAAAAAACMy2Vp7eaFQeDKZTJ7B+RUAVA4bWAAAAAAYndcZY25zXXd1U1PTEZQDAMqPAAsAAAAAysMNgmBFMpn8RVNT0yzKAQDlQ4AFAAAAAGVkjDkyCILWVCp126GHHrobFQGA0SPAAgAAAIDyq7PWnlFXV/c313UvaW5urqckADByBFgAAAAAUDnTJV3T1tb2ZCqVOkmSoSQAMHwEWAAAAABQeXtZa7+RTCZXJZPJt1IOABgeAiwAAAAAGCPGmCZjzG9d133Idd39qQgADA0BFgAAAACMvWMk/TWVSt3muu4ulAMABkeABQAAAADjo85ae4akv7mue8kBBxwwgZIAQP8IsAAAAABgfM2QdM20adMed113gWj0DgDbIcACAAAAgHB4vaRlruv+oamp6c2UAwC2IcACAAAAgHB5UxAEv3ddd9ncuXP3oxwAQIAFAAAAAGFkJC3wff8J13WXuq47jZIAiDICLAAAAAAIr4Sk8yU9kUqlPkI5AEQVARYAAAAAhN9rrLXLU6nUbc3NzXHKASBqCLAAAAAAoEpYa89oa2v7JudyAKKGjR4AAAAAVJfjXde9ljIAiBICLAAAAACoPhekUqn3UgYAUUGABQAAAADVx1hrb3Rdt45SAIgCAiwAAAAAqE77W2tPoAwAooAACwAAAACq1+mUAEAUEGABAAAAQJUyxsw/7LDD9qQSAGodARYAAAAAVC8Ti8XmUQYAtY4ACwAAAACqmDFmFlUAUOsIsAAAAACguu1MCQDUOgIsAAAAAKhukykBgFpHgAUAAAAAAIBQI8ACAAAAAABAqBFgAQAAAAAAINQIsAAAAAAAABBqBFgAAAAAAAAINQIsAAAAAAAAhBoBFgAAAAAAAEKNAAsAAAAAAAChRoAFAAAAAACAUCPAAgAAAAAAQKgRYAEAAAAAACDUCLAAAAAAAAAQagRYAAAAAAAACDUCLAAAAAAAAIQaARYAAAAAAABCjQALAAAAAAAAoUaABQAAAAAAgFAjwAIAAAAAAECoEWABAAAAAAAg1AiwAAAAAAAAEGoEWAAAAAAAAAg1AiwAAAAAAACEGgEWAAAAAAAAQo0ACwAAAAAAAKFGgAUAAAAAAIBQI8ACAAAAAABAqBFgAQAAAAAAINQIsAAAAAAAABBqBFgAAAAAAAAINQIsAAAAAAAAhBoBFgAAAAAAAEKNAAsAAAAAAAChRoAFAAAAAACAUCPAAgAAAAAAQKgRYAEAAAAAACDUCLAAAAAAAAAQagRYAAAAAAAACDUCLAAAAAAAAIQaARYAAAAAAABCjQALAAAAAAAAoUaABQAAAAAAgFAjwAIAAAAAAECoEWABAAAAAAAg1AiwAAAAAAAAEGoEWAAAAAAAAAg1AiwAAAAAAACEGgEWAAAAAAAAQo0ACwAAAAAAAKFGgAUAAAAAAIBQI8ACAAAAAABAqBFgAQAAAAAAINQIsAAAAAAAABBqBFgAAAAAAAAINQIsAAAAAAAAhBoBFgAAAAAAAEKNAAsAAAAAAAChRoAFAAAAAACAUCPAAgAAAAAAQKgRYAEAAAAAACDUCLAAAAAAAAAQagRYAAAAAAAACDUCLAAAAAAAAIQaARYAAAAAAABCjQALAAAAAAAAoUaABQAAAAAAgFAjwAIAAAAAAECoEWABAAAAAAAg1AiwAAAAAAAAEGoEWAAAAAAAAAg1AiwAAAAAAACEGgEWAAAAAAAAQo0ACwAAAAAAAKFGgAUAAAAAAIBQI8ACAAAAAABAqBFgAQAAAAAAINQIsAAAAAAAABBqBFgAAAAAAAAINQIsAAAAAAAAhBoBFgAAAAAAAEKNAAsAAAAAAAChRoAFAAAAAACAUCPAAgAAAAAAQKgRYAEAAAAAACDUCLAAAAAAAAAQagRYAAAAAAAACDUCLAAAAAAAAIQaARYAAAAAAABCjQALAAAAAAAAoUaABQAAAAAAgFAjwAIAAAAAAECoEWABAAAAAAAg1AiwAAAAAAAAEGoEWAAAAAAAAAg1AiwAAAAAAACEGgEWAAAAAAAAQo0ACwAAAAAAAKFGgAUAAAAAAIBQI8ACAAAAAABAqBFgAQAAAAAAINQIsAAAAAAAABBqBFgAAAAAAAAINQIsAAAAAAAAhBoBFgAAAAAAAEKNAAsAAAAAAAChRoAFAAAAAACAUCPAAgAAAAAAQKgRYAEAAAAAACDUCLAAAAAAAAAQagRYAAAAAAAACDUCLAAAAAAAAIQaARYAAAAAAABCjQALAAAAAAAAoUaABQAAAAAAgFCLU4LoaWxs3DUWi6Uk7WGt3UVSzhjzku/7fznggAP+vHz5cp8qAQAAAACAsCDAioh58+ZNLZVKn5D0P5IarbW9fm+tleM4evrppze5rvsDa+2tmUzmj1QOAAAAAACMNwKsGjdr1qzEhAkTFpZKpUslzRjCn0yTdLIx5mTXdX8SBMGnW1tb/0IlAVSbBcsWxOo3lQ4sxbRb+/qOF/NWz/zfp/+vg8oAAACEX1NTU5O19qggCBqNMXt1n6u2S3pB0hpr7W+MMb/yPK9ItaLBUILalUqlPmCt/YqkA0bxMiVJtyQSicUrV65cT1UBhNnHbvvgWyYmEp+rT9TNq08kpjpyjNQ14tS3Vhs2t7XlcqV1Jb9wf4cJ/ven5/80T9UAVLvDDz+84cUXXyw89dRTod+mua6blOQx18ruDs/zPkEZUO1mzZqVmDhx4inW2ouGeB77avf56vWcr9Y+AqwalEqlDgmC4HpjzJFlfNn1xpjLp0yZcuuKFStKVBlAmJx860feOWFy4s6pEyfuY3rs2rqulu4KsLb8c3NbVkEpUCEoFbPF/Df+OeH5c7wz+eYOQNWc3E2pr69/v6RjJKUk7a9tN2bqlPS4tfYPjuN8N51O/2HrRjAkCLAqhgALVc913eMkfaV7uzZcm4wxV1hrb2JEVu0iwKohc+fO3dn3/S9IOkOVuzx0raQLPc/7PyoOYLydeO8Hd6vz65bNaGg4whiz3WlafwFWqeSrrS3XtQM0UsEv5TryHZd9b9FPv0pFAYTVnDlzpsdisQslna+uy2iG4nFjzBfS6fR3FZIgiwCrYgiwULVc151tjLneWvvOMrzcE9baCzKZzM+obO0hwKoBzc3N8c2bN59qjLla0i5j8Z7W2kdisdiilpaWtcwBAGPOyjnl7g/fMn1Kw+l18Zgja9Qjq+qxrdr2YM/fd3TkVSiUZHrsBbPF/LpcMf/R7y36yW8pMIAQcVKp1AnW2msl7TbC47aW7uO2P4TgRJUAqzIIsFB15s+fP6NQKFwu6RyVeQCGtfYRa+1C+jnXFgKsKtfU1HRkEATXSzpkHN6+KOkWSZ/3PG8TcwPAWDjh6x88ZaeGKUsnJhIN245ShhdgBUGgTZtzkrW9QqzAWnXkc17Jzx37vQt+vo5qAxhPqVSq2Vq7RNJh5Tifk/SgpIs8z/vPeE0TAVbFEGChavQYgHGVpF05X8VQEWBVqTlz5rw+FotdLWlBCD7Oq5KunDlz5k3Lly/3mTsAKuHke97nToxPXTZ18qSZW0/Ftp6WDS/AkqyyuaJy2eLWSwl7KgV+0FbIP7B+9uaPr3g7ff8AjK2mpqa9fN+/2hhzQgWO1zuMMV+ZMmXKNStWrMiN9bQRYFUMARaqQmNj4zsdx7le0mzOVzFcBFhVprv/waWSFkmaELKP99fu641/zpwCUC4L7nj3jKkTpt6/05Qp74nJMT0yqG1GEGAFkto25RQEQb8hliQVS6WOjmLhou8u/NGtzAkAlea67iRjzMXW2ksk1Vf47Z4xxlyWTqfv0xj2xyLAqhgCLIRaMpk8wBjzRY3vAIyMpIWe5/2eOVKdCLCqx6j7H4yhhx3HWdjS0vI0sw3AaJx810eunDF10qWJeDwudTVpL1eAZSUVC746OrruOm/MQDtKo85C/tm2UueHHlr0sxbmCoBKHJO7rvsRdd19a+8xfu8VQRAsam1t/dNYvBkBVsUQYCGUDj300MmJROLT1tpLFY4BGFbSg0EQfLq1tfXfzKEq21lSgvBzXfftkq5XefofjJWCpFvj8fjnVq1atZm5CGA4Pn73h/57yqSJX5tcP2HattCp/AGWrNTRnlex1DWavP8Qy8h0/0VbPvtoNh8c99BFD73CXAJQDo2NjSljzFJjzJvH8WME1tpv1tXVfXrVqlUvVvi4lgCrMgiwEDZbBmD8r6TdQ/j5Oo0x147X5dQYGQKsEOvR/+DEKp6MddbaxZlM5g5JAXMVwGA+fuuHX5+YEl8+o2HyYVLf0KkyAVYQBNrclu9q6D7gntFsDbeKfqnUXsjf9t3zfnSeTDhuSw+g+jQ2Nu4Ri8Uut9aeLskJycfaKOmaTZs2LXnqqafylXgDAqyKIcBCaKRSqbnW2qWS3lQFH3fL5dT3MufCjwArhHoMsxyL/gdjxZO0iOuNAfTn2IeOnbTrxvr7ZzRMOi7uxLbGQmMRYElSNltQPl/atmM0/e0wTa/Hc8XC5vZC7twfLPrx/cxBAEM1a9asRH19/dmSrpTUENKP+XdJn/U8b3m5X5gAq2IIsDDu5s2b97pisfjFCt2AotJ+ba1dlMlk1jAnw4sAK2TzI5VKnWit/bKk19ToND7s+/55jz322L+Y3QAk6eR7PnTxTg2TvlCfSEzYGjCNcYAVWKu2tpxs0PXAYP2weu45rayyhcLT+Xzx/d+98KG1zE0Ag0kmk8caY5ZImlkVB6bG/FLSonQ6/edyvSYBVsUQYGHcuK47SdJ5ki6TNKWKJyWw1n7TWvup1tbWl5mzIdwvUYJwSKVScyUtsdbOj8Dkdkq6MZfLXbV27dp25j4QTR+/+4PvmTJ5wr0NEyfuarfsksYpwLKSCoWSsp2FHidu/e82+xuhFdjAduTzv8xOCj70o9N+1MbcBdBTMpk82BhzvaR3V+HHLxlj7rLWftbzvFH3/yPAqhgCLIzX9u1YY8wNkvatocnaIOmKhoaGm1esWFFiLocHAdY4O+yww/aMxWJfqtJhlqP1nDHmM2N9+2YA4+vErx+736RJE781feqkNzmmZyg1vgGWJLW35eT7wbYd5A76YW13luf7xfZC9roHz3/oUuY0gPnz588oFAqXSzpXUqzKJ2e9pC+M9oSOAKtiCLAwprrX5aWS3lLDk/mEtfaCTCbzM+Z4OBBgjd8KXyvDLEfNWttirV3Y2tq6kiUDqF3Ni5vjM/efcfOMhimn18Vj2xoWhyjA8kuB2ttzvXeSQ+iH1XfHmisV1neWCqd997yHfsCcByJ5nFdnrT3FGHO1pF1q7YTOGHNhOp3+6ShOegmwyo8AC2O1fdtF0udUG8H8UD3sOM7ClpaWp1kCxhcB1jjU3HXdj0n6sqTXUY6tAmPMN4wxn2lpaXmBcgC15eR7P/SpaZPrr5pUn6iX3XohXpcQBViyVtlsUYXCtsEFQ+2H1WvHarb0x8r/tRTouO988vtPshQA0ZBKpY621l4n6aAan9QfSLrI87x/DOePGhsb3+Y4zm9YUsqOAAsVdcABB0yYNm3aIkmfVXhvQFFJOWvtV0ul0pfWrFnTwRIxPgiwxlBTU1OTtXZpRPpcjVSbpC9u2rTp+krdvhnA2Dn5nuPeOXFS4p7pkye+butuJ+QBVmC7LiW0dtuLDacf1taHuh/3rbXt+ewPJr2y6b/vWbwix1IB1CbXdd9grb3OGPPeCE12XtKS+vr6qx999NG2IdbpPEk3sMSUHQEWKrl9O07SVyTtTzX0nLX2kkwm8y3RBmfMEWCNgcbGxj0cx/mipBMlOVRkSJ621n46k8l8j1IA1efEez+424SYWbbT1MlHOI7pEViFP8CSpFy+pHyu2HtnOcx+WL3/xqgQlArZfO6qZef96EqWEKB2zJkzZ7rjOJ83xnxSUl1Ey/CCMeaz6XT6HknBICfBdZIykg5hySk7AiyUXSqVOiQIguuNMUdSjb7HmPYP3W1w0lRj7BBgVVBzc3P95s2bLzTG/D9FvM/VKPzaWrsok8msoRRANezN5Zxy/3G37DR10ul1dTFH1nTvbKorwLLWqr2joMAPeu8wh9EPywzwj2yp8GIhn/3YsoU//jULDFC9FixYEPvnP/95urX2Skm7UhFJXb2tFnme9/t+fue4rnuTpLMpU0UQYKFs5s6du3MQBFdYa8+UFKciAwqstffU1dV9ZtWqVS9SjsojwKqQVCr1EWvt/0raj2qMmi/p60EQfL61tfVlygGE00nfeP/J06bU3zhxYqJha0BVrQGWpFLJV2dHofdOc4T9sLbf7Vq1F3J/Kpni+5af/fBzLD1A1R3nNVtrl0g6jGpsx1prv+c4zk0TJkzwOjo6Yo7jvMkYc4mkZspTMQRYGLXm5uZ4W1vb2ZIWS5pBRYZss6Qrc7ncDWvXri1QjsohwCqzZDJ5sDHmeknvphplt1HSNZs2bVpCfywgPP77nve5DZPql02bUj9zy26lFgIsScp2FlQs+r13nKPoh9XzCUaSHwRBRyH34N/rnjnBO9MrsjQB4dbU1LSX7/tXG2NO4DgaIUOAhdGex77DGLNE0myqMWJ/l/RZz/OWU4rKYMdbJnPnzt3Z9/3PK1q3E2XDAETYgjvePaNh8sT7p0+tf0/ciXUnSLUVYAW+VUd7rtfLDvdSwu3/xmz3eKFU7GwrFi7+7id/eDNLFhA+rutOMsZcbK29RFI9FUEIEWBhRJLJ5AHGmC9KWkA1ysNa+0gsFlvU0tKylmqUFwHW6A9o6iSdI+kKSdOoyBguvMb80lp7ged5j1MNYGydeO/7r5wxvf7SRF083rUz2RI+1VaAJSvl8wXl80MZhTX8flhb/9X9Y7aYX5fLF45fvvCh37OUAeE43HBd9yPquvvW3pQDIUaAhWE59NBDJycSiU9bay+VNIGKlF1R0i2SPu953ibKUaadMiUYuaampiODIFgq6Y1UY9yUjDF3+b5/Gf2xgMo74Z5jP9YwNXHLlImJaT13I7UcYMlatXXkZYPeLz66Swl71qr3HjmwVu2F3KN5ow99/+zvv8RSB4yPxsbGlDFmqTHmzVQDVYAAC0POAFKp1InW2i9Leg3lqLhXJV05c+bMm5YvX+5TjlEuvJRg+FKp1EHW2uskHU01QmODpCsaGhpuXrFiRYlyAOX18buPeX1sUnz5TtPqD5MkY02v3UhNB1iSisWSstni9jvQgUKskVxK2Of1SoHvt+eyX1/2yR+dKzPwbekBlFdjY+MesVjscmvt6ZIcKoIqQYCFoZzHzrXWLpX0Jqox5lqttQszmczvKMXIEWANw+zZs3dKJBKXSLpAUoKKhNLfjDEXptPpn1AKYPSOfejYSTPazP07TZtwXDwW25azRCzAsrLq7CjI94Ptd6Jl7ofVV6FU7GgvFhY9+Mkf3sESCVTOrFmzEvX19WdLulJSAxVBlSHAwoAOO+ywPWOx2Je4AUUoPOz7/nmPPfbYvyjF8LHwDkFzc3N88+bNpxpjrpK0KxUJP2vtI9baha2trX+hGsDInHjvMRdPm574woRE3YQ+F7tFMsDyg0Cd7fntdp0j6odl+t8VD3b5YWeh8O+iCh/89tk/amXpBMormUwe2333rZlUA1WKAAvbcV13kqTzJF0maQoVCY1OSTfmcrmr1q5d2045ho4AawcaGxvf6TjO9eJ2otWIxnnACHzs7qPfM21q/N7JU+q7AntrRIDV9Y9crqhiYfv2BaPrhzX4pYQ9H7JGti2b/W0pHv/A8jOXs10DRimZTB5sjLle0rupBqocARb6bt+ONcbcIGlfqhFazxpjPptOp+/b/igW/R9do19z5sx5fSwWu1rcTrQW0DgPGIITv37sfvGp+ta0aRPeFDNm2y6CAGtrgGUDq46O/Jan9d6ZlrMf1oB3Muwa1VXy/VJHPn/btz/5/U+y5ALDN3/+/BmFQuFySedKilER1AACLEiSXNdNSloi6a1UozpYa3/TffXQn6jG4Aiw+pg1a9aUiRMnXsTtRGtSaxAEi1pbW39LKYBtmhc3x/c5aPLN06fVnx6LGWdbvESA1TfAkpUKxZLyueJ2u9Cx6IfVM8SSpGyxsCFfyp/+nXN/9D2WZGBIJ3Z11tpTjDFXS9qFiqCGEGCxfdtF0udEMF+tAmvtN0ul0kVr1qzhLtQa5NgZkiQnlUqdYK39X0m7U46a9nAsFjt/9erV/6QUiLoT7z36ginT6744sT5erx4hFAFW389he33Wzs68Aj/QePXD6vlGVlYd+fzfA0fvf+DM7z7BUg30r6mp6cggCJZImkU1UIMIsCLKdd06SedI+oKkqVSk6m2Q9OVcLnf92rVrC5Sjn+PgqEulUs3W2uslzaEakVGQdGs8Hv/cqlWrNlMORM1/3f3eN01piH1z6tTEzF6BFQFWn597PXvr+/u+r2xnod/d6Nj0w9o+EPODwHYWsg8Xd6n7r+XHL8+ylANd5s6de6Dv+1+VdAzVQA0jwIqg7mD+BkkHU42a8zdjzIXpdPonlEIa5LA4Uiv8Xr7vX83tRCPteWvtFZlM5g5JAeVArTvx3qN2MxPiy3aanjjCMc7WXQEBVq8/2GGAJUm5bEGlkq+hXkpYqX5YfR8v+KVCZyF71bfP/dGVLPGIsjlz5kyPxWKXSlok2kKg9hFgRUgqlTrIWnudpKOpRs17WNIiz/P+QSkiGtoceuihkxOJxKettZdIqmcxgCSve8Pwe0qBmmTlnPjt99wydWri9LpEzDHS1nCJAGtkAVYQWGU7cts+e9+d6xj3w+r7l9lS4ZVcsfg/3zn3B//HCoCI2dIW4lpJu1EORAQBVgTMnj17p0QisVhdlwzGqUhkFCXdwtVD0QuwjOu6H5H0FUl7sx5gu1N86cEgCD7d2tr6b8qBWvGx+486eWpD4saJk+INWzb9BFijD7AkKZ8vqlgo9btLHY9+WH3/0hqr9lzuT9li9pjvnf/TZ1kbUOu620IskXQY1UDEEGDVsObm5vjmzZtPNcZcJWlXKhJZ66y1i6N89VBkAqympqYm3/eXGGPezHKPHeiUdGMul7tq7dq17ZQD1eq/v3mUO7E+vmzKtLqZxvbc5BNglSvAsoFVZ0e++/dj3w9roFFYff/GD4KgPZd78Mn4f07wzvSKrB2oweM82kIg6giwalQymXyHMWaJpNlUA13HlyZtjFnY0tLyh8hNe61P4GGHHbZnLBb7Egc0GIFnjTGfTafT921/WgyE14Jl754xyej+hmmJ98QcYyQjAqzKBFiyVqWir1y+2O9udbz7YfX9SIVSqbOjkPv0d8794ddYU1ALXNedZIy5mLYQAAFWrUkmkwcYY74oaQHVQD+spAcdx/lUS0vLM1GZ6JoNdObPnz+xUCicL+mzkhpYvjEKq621CzOZzB8pBcLufx446sqp0+ouTSRi8Z6begKsygVYVlI2W1DgB/3uWsPQD6vvpYnZYn5dR7HwkQfP/eEfWGtQrcewtIUAeiHAqhE9+jVfKm5AgR3rMMZ8ZcqUKdesWLEiV/M7/1qcqGQyeawx5gZJ+7I8o0ystfb+WCx2cUtLywuUA2Hzsfve87Ep051bJk6KTdsuICLA6ue1yhtgBUGgzo5Cj1FVlemHZQbZe++oH1bf17PWqj2ffTRwisc9cOZDr7AWoVo0NjamjDFLaQsB9EKAVQPn5qlU6kRr7ZclvYZyYJiekvQZz/OW1/RKUksT47puUtISSW9l+UWFRCrhRvj9993HvD7RUFresFP8sJ4hFAFW98NjFGBJXQ3dSwV/wGFSYemH1efZKgW+35HP3vmts39wtkw0G4KiOjQ2Nu4Ri8Uut9aeLsmhIkAvBFhVLJVKzbXWLpX0JqqB0TDG/FLSonQ6/eeanL5amAjXdV9rjFlsrT1NUozFFmPgP8aYz6XT6XspBcbDsQ+5k6Zld75/2k51xzlOV2pBgKVxDbCslTo78j3+Otz9sPqO6sr7pc2dxdwnv332D+5jDUOYzJo1K1FfX3+2pCtFWwhgIARYVYh+zaiQkjHmLmvtZz3Pq6lR9lW9kriuWyfpHElfkDSV5RTj4NdBEFzQ2tr6J0qBsfI/33nnxZOnJr4wYYKZMFAIRYDV/fAYBliSVCiUVMiXBr6UcIA9rxnmyKnBX6v7v0MMsfpmWu357NO5Qum45ef98HHWNoy37rYQSyTNpBrAoAiwqkiPfs2XSZpCRVAh6yV9YebMmTctX77cr4UJqtoAq/uA5npJ+7NcYpwF1tpvlkqli9asWfMS5UClfOxb73zPxCl135g0xey2oxCKAKv74TEOsKyVsp0FBUHQHWIN9VLC8e2H1ffxwAa2PZf7pYoTP/zN87+5mbUP43Ccd3D3cd67qQYwJARY1XUeS79mjKXHgiBY2Nra+ttqnxBThSv8wY7jXGetfQ/LIUJmo6RrNm3atOSpp57KUw6Uy4n3HrWfM8V+a8o0503GOFs33wRYPSYxRAFW4PvKZosDjsKSwtsPq+9rFUqlYkchf923z/n+payJGAvz58+fUSgULpd0rmgLAQwHAVbI0a8ZIfCw7/vnPfbYY/+q1gmomgCLAxpUkSclXVbrd4BA5S1evDj+1Bt/f/OUnWKnx+LGGU4IRYDV/fA4BFiSVT5XUqnkl+1Swu3/prL9sPr+Tb5YWN9ezJ627JyHfsCaiQqd2NVZa08xxlwtaRcqAgwbAVZIzZ07d2ff9z/PeSxCIivphlwud9XatWvbq+3Dhz7A4oAG1cpa+4jjOBfU6h0gUFn//Z2jLpg8VV9M1Jv6LZtrAqzqCbCstcp2FmStBg6xRnIpYf//qFg/rN7FlDry2T8Hnc4H779w+VOspSiXpqamI4MgWCJpFtUARowAK4Tnserq13yFpGlUBCHznDHmM+l0+r7tj6DDK9QBFgc0qAE1ewcIVMZHHzhq3sRJ+takqWZm3801AVb1BFiSVCz6KuRLXZ98WP2whnopYc96D7xXH20/rL4/+kFgN+ezP9hln9zHbjz6p1wujRGbO3fugb7vf1XSMVQDGDUCrPCdx94g6WCqgZBbJWmh53mrquHDhjLA6j6guU7S+1ieUCPWS/pCQ0PDzStWrChRDvR14r1H7WYma9mU6eaIrW2u+myuCbCqK8CyknIdBQXWDvtSQskMMkJL49IPq++75YNioa0zd+WyT/7gKtZgDMecOXOmx2KxSyUtkjSBigBlQYAVAqlU6iBr7XWSjqYaqCJVc1OyUAVYs2fP3imRSFwi6QJJCZYj1KAnjDEXptPpn1IKSJKsnBMePOork6ea8+OJwfoiEGBVW4AlSaVSoHyu2PXpa6Qf1rbHu/7VWci/mC8W/+uBc77/G1Zo7ICTSqVOsNZeK2k3ygGUFQEW57HAaG2UdE0ul7t+7dq1hTB+wLAEWBzQIGoelrTI87x/UIro+p/vHHXyxCnmxgmT1DCUzTUBVvUFWFZSPluU7wddU1DOflgDNKyqdD8s088Ht7Jqy2X/VIoXj/72aT96nrUbfaVSqWZr7RJJh1ENoCIIsMZBc3NzfPPmzacaY66StCsVQY14UtKFnuf9OGwfbNwDrGQy+Q5jzPWSDmU5QcQUJd0i6fOe522iHNHx0QeObJw4yXlw+z5Xg2+uCbCqM8CyvlU2W5Rke4RL5e6HteNLCbf9Tfn6YfX94H7g++3ZzgeeiD1zqnemV2RtR1NT016+719tjDmRagAVRYDFeSxQVtbaR6y1C1tbW/8Sls9kxnGFP8AY80VJC1g0EHGvSrpy5syZNy1fvtynHLXrtGXvnlGK2/snTdN7HMcMc/tLgFWtAZasVCyUVCx2rd5j1g9rGKOw+n+ZoffD6jtCK18sdrYX8p/69jnfv5U1P5pc151kjLnYWnuJpHoqAlQcARbnsUAlFCXdEo/HP7dq1arN4/1hxjzAOvTQQycnEolPW2svFY07gZ4yQRBc0Nra+ltKUXv+5ztHXTllurk0nlB8pJtrAqzqDbAkq2y2IBt0T0kV9cMygxw19O2H1ffxjkJuXYef/fDysx5eyVYgMozruh+R9BVJe1MOYMwQYI3deSzBPKJonbV2cSaTuUNSMG4HGWP4Xlv6XH1Z0muY/8CAHo7FYuevXr36n5Si+p3wnfd8rL7B3jJhoqaNdnNNgFXNAZZUKvkq5LfdhHTc+2GN5FLCPr8zg3zwLT8FNlBbLveobwrHPXDmQ6+wVahdjY2NKWPMUmPMm6kGMOYIsCp4zpxKpU7kPBaQJHnGmIXpdPrRcVkZx+JNXNedJ2mJpDcxv4EhyUq6ob6+/upHH320jXJUn/+++12vnzDDLJ801ZSpYTEBVrUHWFZW+WxJQRBsq9y49sMa6qWEvefgUPth9Q29ir7vt+c77/zWmT84S6bvnEI1a2xs3CMWi11urT1dkkNFgHFBgFUBqVRqrqQl1tr5VAPodYj7oKSLPM/7z1i+cUUDrHnz5r2uWCx+0RhzgsJzx0Ogmjxvrb1ivIdqYuiOfcidNCO38/2TZpjjHKec2z0CrFoIsILAKp/d1ts8jP2wBgqwBv7d4P2w+v6QKxU3dxZy5z5w1g/uZ4tR3WbNmpWor68/W9KV0lDupgqgggiwyuiwww7bMxaLfYnzWGBQncaYa6dMmXLNihUrcmPxhhVZGXs07rxY0kTmKzDKFdWYtKRF4zVUE0Nz8vJ3XzyhQV+om1CJ/n4EWLUQYElSIV+SXwp6rN/975JrrR9Wr0VKVp35/NN5m3v/A2c8tJatR/VJJpPHGmOWSJpJNYBQIMAqg/nz508sFArnS7pM0hQqAgzJM8aYy9Lp9L0VPy8u9+t1N+68VtI+zEegrKykB4Mg+HRra+u/KUd4/M+333vUpMnBfYkp2q2Sm2sCrNoIsGwg5bNF9fzLquyHNcRLCQf5SLJWti3X+ctNG4sf+tElP+Jy6SqQTCYP7r5t/LupBhAqBFij374da4y5QdK+VAMYkV9JWuR53uOVOyMqk8bGxpTjOEskHc58Ayqq0xhzbV1d3ZdXrlyZpRzj5+MPvGdfM1EPTJxq32QqPricAKtWAixZqVQMVCyWeu+Mx6kf1kCjsPr/m6FeSqhB+2H1nZKCXyp05LLXffPs7/8/tizhNH/+/BmFQuFySedKilERIHQIsEbIdd2kuvo1v5VqAKNWMsbc5fv+Za2trS+X/4xolGjcCYybZ40xn02n0/dtf9qOSlq8eHH8n4f88eZJ03S6E7djtN0jwKqlAEtWyueLCoIhjMIacG9d/f2wei8bUraQX99W6Dxt2TkP/YAtTWhO7OoknSNpsaTpVAQILQKsYZo7d+7Ovu9/XgTzQCWsl/SFhoaGm1esWFEq3xnRCPW4PvizonEnMJ5WWWsXZTKZP1KKyjvxwaMumDjFfLFugurH9p0JsGoqwJJU8q2K+WLvuRzBflh9X81Kas9n/1wsBh/41jnffZqtzvhpamo6MgiCJZJmUQ0g9AiwhqhHMH+FpGlUBKioJ7rPVX9enjOiEei+PnippP2YH0AoBNbab8ZisYtbWlpeoBzld+IDR81LTHa+Vd9gx6lhMQFWrQVYVl0N3QO/9w1GK90PywxyBDCe/bBMn+FapcC3bdnsD2bsnf3YjUf/NM9WaOzMnTv3QN/3vyrpGKoBVA0CrCHoDuaXSnoj1QDG1MOxWOz81atX/3N0Z0TD4Lpu0hhzvbX2bdQfCKUOY8xXxvJWprXuxHuP2i3e4CybONUeYcb1ImkCrFoMsKy1ymdLvf6m9vphDe1SwoFGdRVKpVxnsfC5+8948CtskSprzpw502Ox2KWSFkmVuJsqgAoiwBpEKpU6yFp7naSjqQYwbrKSbqivr7/60UcfHdHNe4YUYHF9MFB1npL0Gc/zllOKEbJyTv7ue74ycZrOi8VtfPw/EAFWLQZYklQslOSXhjgKa8A9d8j7YY1kFFaP3xlJnfn8i52Fwn89cM73f8MGquycVCp1grX2WqmSd1MFUEEEWP2YPXv2TolE4hJJF0hKUBEgFJ4zxnxmJL2cBw2wuD4YqHq/stZekMlk1lCKoTvpwfecXD9JN9ZNtCHq70eAVasBlg2s8oWiFPSZ42Xqh2UG/kfo+2H1/WdgrdrzWS/vFN7/7dN+9Dxbq9FLpVLN1tolkg6jGkBVI8DqbUsw/xVJu1IOIJRWW2sXDqeX84ABluu6R0m6WdIB1BWoaiVJt+Ryuc+sXbu2nXIM7KQH3ttYN1nfrG8IDg7fpyPAqtUAS9bKLwUqFv3t53pU+mGZfqajn99t+Wcx8P3ObPbe7IzYJ5Yfv9xn6zV8c+fO3a9UKl1rjPkw1QBqAgFWt+4+V9dLOoRqAKEXSLqzWCxetmbNmpd2fEbUR3Nzc7ytrW2ppLM1irsUAgidf1prF2QyGY9S9HbGsgXTion2+yY2BMcYJ6zbPQKsWg6wJCmfL8oOcRRW79/1WU76f3pV9cMyg6RgPX+T80sd7dncpx44+3u3sSUbmlmzZk2ZOHHi/7PWXiiN9d1UAVRQ5AMs13X3l/RVSR9gcQCqziZJX5B0o+d5xYHPiHqYP3/+xGKx+D1r7XuoH1CT2o0xH0qn07+gFF3ef8P7PvSa1/sP1NXbkPdFIMCq9QArCKzy+eJ24Q39sDRw6NX9em3Z7D9Kjn3f/act/xtbtYE3IqlU6kRr7Zck7UE5gJoT2QBr1qxZifr6+sskXSxuQAFUu78GQXBaa2vryv5+2fOeWk4+n7+P8AqoaVOstd9LJpNu1Avx3hveO/W469/3HSfQdzs3ODT1xLgzjlEs5mzXydL2m9gN1vHSDt4Os5/XswO8oB3g9fr/SAM9qe/fDDIdtuc/7QCPb1+ghokT959aV/+X/779uCtZkrbnuu4813VXWmu/IcIrADWksbFxn/r6+tWSPifCK6AWHOw4zu9SqdRn+/ul0+Pg5kL6IACRMMUY8+Dhhx/eENUCvP/G9+9Rb2O/M8YcL0ntLxv5RRYMjL94XVz9JUl2gEBqwMcHCLHsjh4ZLMQa6C/tdu+8Y3ZoN5wZcoglq5jjODtPmnbZiV//8HdZkrocfvjhDclk8lZJKyXNoyIAakljY+MbHcdZKW5CAdSamLX2Ktd1v7bdLySpqalpprV2uaQ6agVEwvRSqTR53bp1P4vahL/3hvdOTVjziKTDZCRjjIw1CkpGE6fZEH/yvpfxDf7zdpcQDuNvd/xzn0sCR/Vz72ncUQ1G9rvqYUxXbfwgGPKlhL1/12eZGcmlhP28RTX0w9oysTFjDm6Yt9Mz//rlv1ujvJGfM2fO64Mg+K0x5ijR0xSIgsy6deseisrEuq77WmPMryW9jlkP1KymPfbYI1i3bt1vtzzgSFIQBJ+TNJH6AJFy5rx58yK306+3sXvU95s6I2U3OipmOcfD+IvFHRmZ7cYyDXQp4UAPDXYpYd9+YIO+jAa+lHAHz+73RQd6tyFdSjjo23Y9b92mDfKtvfWtV781GdVlKJlMHhyLxR4Vd5IGUJuMpLsl7UMpgJq32HXdt2z5wXFddxdJ/0NdgMiZUCqVzozSBH946bHHG+mDA8VUm9fFWCoQCvFErN+8aLj9sOwwQ6et/6pwP6x+JmjQlxjqpYTZQl4bOzokqc4Y3d28uDketWWnsbFxV2PMTyTtypoEoBYlk8n/lvRuKgFEgiPp6wsWLIhJkmOt/ZC4dBCIquOjMqELli2IBdIXur60M93/7S3fbpRrc1gqMP57ascoFjMqTz8sDRxIDanZe9+HRt8Pyw7lg2/3NzsOsZ7f+GrP5x1qE6WPRW/ZcW6StC9rEYCaPJ5bsCBmjLmcSgCR8oZ//OMfH5MkxxjTTD2AyDqwsbExEneksi/kP2CMDtr2SO8ga0uYtXmdM9TzaaCiYnVbRmENKQYa8KEdvsIwLiUc0lvbYT7e5we7w+np/2/acp1qz+X6PMl8KkrLTFNT05GK0BcTAKLnH//4x7skvZ5KANFijDlL6hqOlaQcQHQ5jtMYhem0sh816u7zvF236G1Np/2cUXYjo7AQih214nVOvyHWoJcSlrMf1jAuJRzk1Yfw4+j6YVlZrdu4ob93P+ytX3zrG6OyzARBwKgEALW+b/wIVQAi6c3z5s17nSPpNdQCiPSBQO1vA6yMZN6xdZo1eJDVvs6RDVg2MP5i8VjXwlrl/bCGNKpqFP2wNnZ0KFss9PuyjuyRUVhWUqnUQZLewloDoMa9lRIA0TxtLRaLb3YkNVALILqstdNqfRo/uuS4fSTtrD6drwYKsvySo45XaOiOcIjHt4wIHOolg2PZD2uQx8eoH5YNrF7ctGGQ55pIjDS31n6QtQVALZs/f/5EcXdVILKMMbMddV1GCCDC24Jan8BCPNizn+iq9099gqz2lxz5JcPSgXEXizkyzgCXEvbzr8EeKn8/LDus4KsS/bBead+kgl8a7EPsEZFF5U2sLQBqWalU2oVzVyC6rLW7OhriBQUAULUBQLBtpOlQgywbGHW8yCgshEM87mwNmIZ1KeE49cOyA7/6EH4c+qWEfhDo5bbNO6iemR6RxeRg1hQAtSwIgslUAYguY0yDowiMvgAwqNoPsY1ifbd0QwmyOjc4KuXYRCIEi7BjFIuZ7iDJhrMf1kB/WcF+WC+2bVAp8Hew+kfm2/oZrCkAavqA1VoOyoCIYwQWABONiTRdqdQwgixZqY1RWAiJWDwuY8y2hXO7I/uBDvgHeHywlxlmP6wdfiQ7gpfYQT+sol/Sq21tLBjb1FMCAABQy7iGGEBkQuyueGp4QVZ+s6NiB1/4IQTLr5FicdPjUsLw9MMa6FLCHTy73xcdaj+sdZs2DDIFAAAAqDWMwAIif1JsIrcN2C7IMn1/1/unzS8wCgvhEIs5MkbV2Q9rsGsHh9kPK1fMa3NnJwsEAABAhDACC0BkbQ2yNHiQVeyMKbeZzSXCIVYX09bRU7XUD2vAt91+OtZt2sjoKwAAgIjhjAxA7YsP/uuhBFlt6+I7askDjM2O2xg5Ts/dd430wxripYRtuaza81kWBAAAgKgdB4tLCIFIC4IgGtuAPsHUwE/pP8gKCkbZV7mUEOHQexRWFPph2a2f8sXNG1kAAAAAIogRWACiZRRBVvvLcdmAhu4Ix2LsxLu+g4pMPyxrtbGjXblingUAAAAgggiwAEQ3ARhmkGV9qeMlRmEhHOKxWNeNCKRx7Yc10AuWux9WYK1eatvIjAcAAIgoLiEEIi6KdyHsXQANK8jqXB+TX2QUFsIhFu+7Gx/7flh2B+9Trn5Yr3ZsVtH3mekAAAARxQgsANFgrAbN64cYZCkwan8pTj0Rjp24MTJO30sJa68flh8EerltEzMcAAAgyse+lABAZBj1CLLsIM8Z/GXyG2IqZhmFhZDsyGNOjxbnqng/rN4vMzb9sF5u36iA24ACAABE+7hXXEIIIGq2hlQjD7I6XqyjjgjH4my6RmL10k/YM+glg/0+boc4aKuy/bAKpZLWt7czowEAACKOEVgAohtijyLIKrQ7KrSzCUVIFuW4I9u9LNutK/bQm1KFuR/WS5s3DKHFOwAAAGodI7AAYIRBVvsL9MJCeBbhmNPfpYR9LhkcLGEa6FLCAYxFP6zOYkGbcp3MYAAAADACC0CEzvCH8pyhBllGKuUc5TbGqC3CsYg7XXfLHFU/rH7YceyH9dLmDcxYAAAASJLiYgRWFLUZY1qDIPi34zibJdVZa3eTdIik/Yd4qg9U18l993+shrDVM33P9M2Az2t/sU4TpvkyrDUIw3Iek2yp7yJrt1uGrVW/y+yAj6v7/gemn8cHe2TAvxnkL7v/0Z7LqqOQY6YCAABAUleAhWjIS7rfGHP/fvvt97vly5f7/T3Jdd3XGmM+bK09W9IbKVskRCrELneQFZSk7KtxTdqlxJKE8V++jZFxbFcQJSsrI2Mla6xMv0HskFIpactrDfQKg71Mv6+3g7e20kttG5mhAABEW6u19hbHcdLGmHVBEOxhrU0ZY86S1Eh5oocRWLUvkHRXPB6/YtWqVc9KUjqdHvDJnuetk3STpK+lUqn/stZ+UdK+lBE1d6Lf/Z9yBFkdL8c0caeSDFcTIgzLtmNkS1bWDB5ibRtt1TtJGiiQ6rr0z/QbRvX+m21/PHh2NfDrbci2K1cqMjOBHXtJ0t3W2r8ZY14v6VRJu1MWAFXuH5Iu8jzvB30ef0FSRtLtqVTqA9bar0g6gHJFhyMuF6tlqyS92fO8T2wJr4YhSKfTD+RyuYMkLZLURjlr9GTXmEiH2EbdJ/Gj6JFlA6OOl+tYmBCehdoxPVpNjWE/rH5eYbj9sHxr9Ur7JuYjMLiipBskHeh53qWZTOZuz/M+UywW9zfGXCGJ628BVKMOY8wVDQ0Nh/QTXvWSTqd/qK4rhhZJ4sAhIrgLYW161hhzsud58z3PWzWaF1q7dm3B87ylQRC8wRhzu7pGdAHVeVK/g1+PJsjqXO/IL/B9AEKyuDvqGhK13R5+qHcf7Blu9fN0O/THd/zWvX+xvqNNRd9nJgIDrUrWPhIEwRzP8xZ6ntfrpG3NmjUd6XR6seM4B1pr76NaAKpn02bvcxzngHQ6vXjFihVDCuE9zyt6nrc0Fovtr65QnwOIGsddCGtLpzHmikQicWA6nb5XZQwnW1tbn0+n02cGQTBP0qOUGtV5Vq/KBVlWan+RtoII0x5+22V8vUdhDTTaaqjhlh1khJYGvivhoIetXf/nB4HWd25m3gH9e1LSMZlM5l2tra1/GeyJLS0tz2QymZMkvUPSGkoHIKystS1BEByeyWROamlpeWEkr7F69epXPc9bKGmupN9R1Ro+vKUEtbHeS1oeBMEb0+n04pUrV2Yr9Uatra1pz/PeKul4Sf+m9NUvCAIbndWkW4WCrPxmR8Usm1WEhNHWUVg7DLEGu5RwgBBLQxqhNbxLCV9p3yQ/YKAv0McGSZfmcrnZnuf9eDh/6Hnerz3PazTGnKyuflkAEBbPGWNOzmQy81pbW1eW4wU9z8t4nvc2a+37Jf2LEtceLiGs9vMTY9LGmLd6nnd8a2vrWAVK1vO85ZLe2N1nIcucQHXo3buqEkEWo7AQtr38lr5VYe+HVfCL2pBtZ54B2wTW2vuKxeIbPM/78tq1awsjfZ10On1voVB4g6QvSypQWgDjKCvpy/X19QeX+6qhLTKZzEOJROKNki4VvZxr7dAWVep5a+2Z6XR6XjqdHpdL+jzP60yn04vj8fiWPguEoQinWH+ny5UJsoqdRvk2Nq0IkR6XuW6/Huz4IWls+mG93L5J1rIbAbr92lrbmMlkTlqzZk1ZRk49/vjjGzzPuzQWi82W9GNKDGAcPOz7/hs9z7v00UcfrWiwtHLlyqzneV8ulUoHc65aOxiBVX0Kkm6or69/QyaTCUVT9VWrVj3b3WdhvqQ/Mouq7Nw2Knch7Dd8suoVZpUpyGp/MS5ZGrojPHt626tdevj6YWWLBW3OdTKvAOmZ7hvxvCOTyVSkd9Xq1auf9DzvGMdx3iXpL5QcwBjIWGvf5nnesY899ti/xvKN//SnPz2XyWROchxnnjFmJbOi6g9rUUUejsVib/A8b2GlE+uR8Dxvled5h3f3WXiR2YVQGjB8Kl+Q5ReMshvZvCI8rCnTpYQV6of1cvtGZhKibsut47fciKfiWlpaHpE0R9yCHkDlvCpp0cyZM+dmMplxba7e0tLSkk6nD1dXL+dnmDXViTOs6tAaBMERnucdu3r16n+G/LMG6XT63mKxuH93f6w8sw+hNJwgy+zgZfp5TsdLMVl6USNEy/vAIZYd135YbfmsOgvsKhBZVtJySW8czq3jy4Vb0AOokGL3NmV/z/OWLl++PCzbFut53vJisXhw97lqjllVXbiEMNy2JNZNra2tv62mD75mzZqOdDq92Fp7SPeBGcJ98BzpE/sdBlmDPq/Hr3s8J/CNOl+JsXQhhKu6HdpmYIz6Yb3SxsAPRHT3Y0zacZy3eJ53vOd5/xnPz7LlFvTGmCZjzG+ZOwBGfLRh7SNBEMzxPG+h53mh3MlvOVd1HGdLL2dUCW6XFU5FSbdI+rzneZs8z6vaCclkMk9JOj6ZTL7DGLNE0mxmL8J5JjHQSbvt/QQz+Mm96f6PldS5Pq76nQLF6vieACE4oDTqTp+MjO362cjKbv3ZyvRIae3Wxd1qu/S2n4e05bX6e29JZuvfbPvjDdkO5f0iMwdR87y19grP8+5QCHqZ9pROp1slHZFMJo81xiyVtB+zC8AQ/c0Yc6HneT+plg/c0tLyjKSTXNe9W9ISSYcyG8ONSwjDdoJRBYn1SGQymV81NDQkrbVnSnqZOY0xN4S+VoM/b/gjsmSljlcZhYXwCJyuBTMM/bCstXq1g9FXiJTQ3YhnkOO2hxKJxCxxC3oAO7ZB0qW5XO7QdDr9k2qcAM/zfu15XmN3L+eXmKXhxSWE4fEXSe/OZDLvam1trck7wqxYsaKUyWRuTyQSb7DW3iSpxGzHmBvjICu/ISY/zx0JERZ26xlz7xBLY94Pa33nZpUC2u0gMh70ff+gsN6Ipz9bbkHvOM4sSQ9wzgCgj5Ix5uZEInGA53lfXrt2baHKpydIp9P3FgqFN0haqq6rohCmo1hrfUZgjb8tiXWj53n/F4UJXrly5fpMJnOeMeYQST9hEQjBGW0UjWGQ1f4SV2sjRCu8sX1bqffZDFS+H5YfBNqQbWdmIAr+aq19j+d5C8b61vHl0tLS8oznef/NLegB9PAra62bTqc/uXLlyvW1NGGPP/74Bs/zFsVisUMkPcysDtHpmzEbGIE1fkrW2ptqKLEetnQ6/TfP895nrX2/pL+zSGB8toSqeJBVaHdU7GAUFsIjMMHWpbf/SwkHGm011HDLDjJCS3q1fbP8gNt0oqa9bIw5a+bMmbMzmczPa2GCum9B/xZr7amSXmAWA5H0lDHmOM/z3pnJZNbU8oSuXr36Sc/zjpV0jKQnmfWh8DwjsMbHryQlM5nMebWWWI9EJpN5SNIsSYsk0RBljBljIhBiD+EypQoHWYzCQphYWQUKtv57LPthFfySNuU6ZQZo+A5UuaIx5nZJb0yn07eF6Nbx5RJkMpm7i8XiAdyCHoiUDmPMFQ0NDbPT6fQPozThnuf9WNIh3eeqG1kUxnEHFATpuBiBNZZeMMZ8Mp1Of5dSbLdhKEpaOm/evG/7vv81a+2HqMoYnchaG41zyC053Y4mdwd3Gdzx8/q/a2Ep5yi3Oab6qfT8QUgOAmR73Mll620Je24cJGP6bC+2e2jrUt//3QetTJ/XfbVzs2yP9dFsfSZQ9fvTnxpjLkyn00/U+rSuWbOmQ9Ji13Xvk/RVSR9gCQBq83DBWntPLBb7bEtLS2RHXm45V21sbPxWLBa7ylp7miTu1DS2OhzHWckIrLHze0mzCa8Gt2rVqhfT6fSHjTFniSbvYyIaI7B6TrDdFmYN+jyVfURWx8uxAXsGAWN+si2rku1xKaH6jMLSji4E7HvyPsgzu3+XKxXUkc/2s/4YRmShmv3NGPO+TCZztOd5T0Rpwj3P+4fnecc5jvMuSX9mUQBq6/zVWjs3k8mcFobw6rz7/2fquXecto/s+B0utLa2vpxOp890HCdlrf0Ni8iY+qHneZ30wBqbgOBnDQ0N7/I87xWqMTTpdPo2Y8xHRIiFiq2YYx9kBUWj3Aa+rEF4BCbYel/CgS8l7HPJ4ACXEg70UM8HX23f3P/qQpCF6rRJ0qfU9QVlpG9K09LS8khDQ0OjtfaTkl5l0QCq2jPGmI95nve2TCbjjfeHWXT3x6efffdpXy0W61/0Y/rXWd84bc1Zd33i3eO8zXssk8k0G2MWSPoXi0zlWWuvkyRGYFXen7LZ7IIVK1bQI2CYuq+vPp9KoKLGOMjqeDWuwOf0HOHh2z4jrkbbD6vfpd+qPZ9TtlTotZIQZKFaVxtjzO3FYvFAz/Ou6760JPJWrFhRymQyNycSiQOttTeJLyGBapPv7m33hnQ6/W2N80CXxYsXO2fec+pJOcWesNKFkuq7DyoOkQl+dtY9p//i3Hs+MWucz1cfbGhoONgYc5noCVhJD24JUwmwKrwRcBznf9auXcu9wkfI87xbJP2QSlROEAS1Pwozph2HT1uCrB2FWaMMsqxv1fkqm16EaBugQNb2vCOgHaS3W49HBrpkcIDH13e2DbiSEGShWhhjfus4TiqdTp+5Zs2al6jI9lauXLk+k8mc5zjOHEm/oCJAVfi34zhvTafTiz3P6xzvD3PW3ac3v7DPMxljzTck7T7AAceRvg1az7rr1KVn3HbGtPH6rCtWrMil0+mrjTFvlvQ0i1LZvRyPxz+55QcuIays61taWtZShtEplUrnikQboxDb/nx5B2colQ2ycutj8ouckiNE29muGKvreHDLcWH3fwe6lLDHEeQOH9qc71QxKMqY/lYbgixUx8mdpOPT6fQRLS0tj1GOHWtpaVnred5RxpgPSHqKigCh1eE4zvtaWlpaxvuDnHPXKXuddfdp90r2V5IOG8Kf1MmY852E/48z7z5t4YJlC8atV0c6nW41xhwtqY1Fqmxykj60atWqF7c8wDCAymlX111ZMEp/+tOfnrPW3kElMBq9TozHOciykjpfphcWwsPKKrDB1pBqtP2wejZuD6zVhs72XusCQRaqSMlauziRSBzsed5yyjGik7of5XK5WZIulZSnIkDoXD7egy7OuO2MSWfdffriwDhPSjpxiEfXPe1spCUzOqamz77rlCPGcXv3N0mXsUiVRYcx5sOe5/2+54MEWJU6WTbmBzRtL+PJFQFWZc9do7RuKhxBVm6zo1KOTTDCw7e+rFXZ+2FtynUosMH2KwlBFqrDyZlM5oqVK1dmKcXIrV27tuB53pclfVhc/QGESWehULhrHM9CzNl3n7bASfh/lezl2tLnauTH+XOscVacdc+pD51+7+n7jcckxePxe8QorNF60lp7RH83SOESwgoJguB7VKF8Wltb/ySGn6OMKh5kmR1/gPaXGIWF8LCSSvL7NLEaXT8sPwi0OdfRZzUjyELV+LPned+iDOXjed6PJf2eSgAh2fdb+9jjjz++YTze+8w7T02ddc+pv7fSMkl7l3fCzDFx3z5x1l2nLj31zlMbxnK6Vq1atVmSx9I1IgVjzLWSGge6A2acGlXo5NiYP1KF8tfUWnsAlcDIFqB+z7u3nvja7X4Y7LXslp3jjt9zkNcrZo0KHY4SkwPmD0LBt75ixpGjrmjI9lh1jKysjIyVrLEDxEZWPaOmDdl2BX3SrW2rRZ8VZEuIZfuuNgP+RY9fbfk0lm/lUE5rKEFFtEp6K2UAQnF+9e+xfs9P3nnqHkWjy40xp6uyV4QlZMz5CaOPnH3P6Vfs/q/X3bF48eJgjOr6T2ttM0vYsPw4FotduHr16icHexIjsCrjVc/z1lGG8rLW/pkqVGQDG51twCAjoyo2ImsHr9fxUmzA0SvAeChYv9fAq5H2wyoGvjoKWRljdrBabD8ia0uYZYb2Fz1GPjIiC+VdHSgBdQVq3JjdcXDBsgWJM+8+bWHJMU8YY87Q2LUz2sNae9sL+z6z6py7PvHmWqtrDfibMeZoz/OO2VF4pe6FhuO88nuVElBXhFiIgqxSwSi/mV5YCA9rA5Vs16WEo+mHtTHbvvX3xpixCbK2PkiQBQBAWJx592nH7tIx9QkjLZHUMC4fwioVmOD3Z9192rIz7j1jb+bKuGs3xlyxadOmw9Lp9E+H+kdxMQKrEkhcK5E5GNNhGaqCUey1tjvVHeQSv7G8tLDjlZgmTA1kONtGSJRsSXHjdK82PRZY27dZVT/rlZXyflGdxVx/2/Gup/SzLR/s0sJeq9eO/6LHr82O10cAAFARZ33jtEYFWiLpbSE5izOSFji+/76z7j792pxK19xzyj055tSYCiTdVSwWP7tmzZqXhvvHfO0PRFykLiGU1YBp1TiOyApKRtn1NHRHuNaUgvW7/223Prbt/we5lFDSxmzHoKvK8EZkmV6/2L7h+xBGZAEAgDFz7jdO2vmsu05dqkAtkt4Wwo84SbKX1yv25Jn3nHoSc2zMrLbWHu553idGEl5JNHEHEBW9mrjb/s9sx3FEVucGR/XTfDlslRESpSBQPGblWLN14JWVldn6c8+m7ttWi85iXnm/KGnHjdWHNiKrn5WuR8P3IY/IAgAAFXXGbWfUmTp/oR/oMhlNq4KPvJex5htn3nXax52YWXTLyXdw847KeM4Y85l0On3faA/PaOIOIMJN3MMzIssGRp2MwkLINg35oNg90mpH/bDs1rVpc75juw7rW/pRDbS6DG1EVj8r3UhGZAEAgLJbsGxBwkn4vzRG10pVEV71OA7R221gW86+59T3MyfLqiDphvr6+oPT6fS95Tjv5Lt+ANFjep2jKywjsrIbY6qfHiie4HsFhENgA5WCQHWO09WhvWc/rO2iIauOQk6lwO8arbXderElVLIDri5bR2T10yF+5COyAABApc1on/Z+GfvWKp6ERGDNFyX9iLlZFg/HYrHzV69e/c9yvigBFoBo63UePP5BVucrMU3do8R8QWgUbFExJeRsu2iwK77aeulg16M2sGorZLdfN0YSZHUnUuUJsgAAQOXZfav/tMDMZD6O2hPW2kWZTObnlXhxLiEEIi4IArYBW86Dt+ZJVv1eXjgGlxbm2x0VO7m/BkJ0OGqtikGpR9P2LWtJ70sJOwpZ+UGgAS/6M/2vKINeWqjuSwvNDta5IV1aCAAAKsUxtXDbX25dPAobJC1qaGiYXanwSmIEFoCoGPLoqL7P62dUVoVHZHW8EtP0vQPmGUKjGJQUN3E5xshYK2tMr6buvqzai7lBR0cNvG6MwYgsAAAAVELJGHOX7/uXtba2vlzpN4uLEVgAoqQSQVY/rzeaIKuYM8q3O5owhRAL4WAlFYKC6mMTuh/o3Q+rrdDZ616D4xlkdf0t9yEEAACosF9baxd5njdmd29kBBaAaJ7hlTPIGuT1RhpkdbziKDE5kGH4CEKiFPjyHV8xE9s2+kpGxSBQrljoWsB7XhJrxyfI6v1yrEBA6Ha/xlhrCZcBoIo9Y4y5rPvOgmOKRisAIn4krSH2q+r7PKsBz5x31K9nCO/pF42ym9hEI1xyfkHaMtaqOzvqKHT2WKx7LNz9/3Pwn8rYI2s4qzcAAAB2qNMYc0VDQ8OB4xFeSVxCCCAK4pJ2dDXeGI/Ikvq7O1ufPcT6mOqnBnLIsRASgbUqBCUlnDpZSSW/pLxf6mcZ7zF+qsdy3v8YrK5HKjkiCwAAACNmJT0o6aJ0Ov2f8T6tAxBhxphonO6NOKAa6vOGF2T1+tUAvbSsL2XXxzR5F58FFaGRLxVVl4jJyFFnIb+DVWQoQVbvFYUgCwAAIDQykhZ6nvf7MHwYvtcHEBF225nziC4ZHOrzhndp4Xa/6vO8zo2O/BIXQSFMa5JVzi8q7xdUtCUZY7ov9Bts+R7KpYW9HzE9fxrxpYWsOwAAACPwqqRFM2fOnBuW8EriEkIAETz97jrDNb1+HPTse0TPG8WIrD4/dLziaOpruCMhwqPgl9SrCbPpjpSset2NcPvle/gjsnr9NOwRWZJxCLEAAACGqCjpFkmf9zxvk+d5ofpwXEIIIKKqJ8hq22BV1xBo0iQGzSKE61CfhTeMQRYAAAB2cGRn7SPW2oWtra1/CetnJMACIi5SPbDsICfhIQ2yrKza2rPK/9tq/4MnssAiRKuUkdMdU9l+Fl6CLAAAgKrwd2vthZlM5uGwf1AuIQQQpTNuDXxmG84gK5stqljyVdwktW301TCd7x0QIo6RAjvw6hCCIAsAAAD9ajfGfHXjxo1feuqpp/LV8IE5EwIQPVUSZAXWqq0zt/VX6/5TIMBC6FYla0z34hzOIIvv6QAAAHoJrLXfrKur+/SqVaterKYPzggsAJHYBvR7KjukIKv7P+MQZLW35xUE214w1xlo/UslzdiNEAvhWrf6xEhDCrIGirIqF2QBAABE3mpr7cJMJvPHavzwnAUBiNzJ9nYn1jsMn+y2IGvQ56lsQVap5Kszu/1I3heeLWj6LjE53FkNYVux7PYL92BBlmRkxirIAgAAiLbnjDGfSafT96mKBzBwSysA0TnB7vOj6e85g57w2m1nz2YI72eG+LnM9u+xuT3X756lVAj0ygtF5idCpmu9MKa/hdsMvDoYScbIdD9n4FWkxyv0/89+V6ihroYAxk7Qc2gxAKDSspK+XF9ff3A6nb5XVX71DZcQAhxIRmcb0M9wkBGPyJKG1idrBCOycvmS8oXSgE99+bmiZuyaUF0dp+YID2u7Vomtq0U/K9WAdwgc9ogsSVtuoDqEEVkAAAAR9HAsFjt/9erV/6yVCeISQgDRE+Igy3aPvhqM71u9+FxBr9t3AvMSIWK7QyzTe7WoSJDV4wLFfoKsba/NGCwAABA5T1hrF2UymZ/X2oRxCSGA6Orn3HbMLi0c4HkdHQX5frDDj77+xYLy2YB5iFCxsts1njLbXVq4bUUY/aWFPf7V58WIrgAAQMSsl7SooaFhdi2GVxKXEAKIxDagpK683gx8JtynEhUfkdXP6/mBVXtnfmgzzUovPJvXPgdMYglGuDYoNpAxznYry3iMyJIIsQAAQO2f7Bhj7vJ9/7LW1taXa3lCuYQQQO2LdZ/MWqtBT2nHOcja3Jbtc3I/uI2vlrTL7r4mN8SYxwiNQFYxWRmZfu9DOF5BFgAAQA36tbV2ked5a6IwsQRYAKJj6xlu+IKsYrGkXK407El6/pmcXv/GycxbhIpvA8VNbPtQaVyCLOYHAACoOc8YYy7rvrNgZDjiu0kg0owx0dsGbG2OYwffBI5hj6xNm/IjmpTONl+bNhRZkBEq1loFNuhnFdl+Jah8jywAAICa0WmMuaKhoeHAqIVXEiOwAERZSEZkdXQWVSz5I56Mdf/Ja+r0RD8hADB+/CCQE3MGWJVGNiKr/3VuaCOyAAAAqpiV9KCki9Lp9H+iWgSauAPAOAZZQWDV3pYb1cfP5wK9+lJBu+6eYF4iREdZViUbKO44260LIw2y+v8LDSnIAhCSXW4UR34DUdjvGycYVjPXcCrXLb7LenmEtbbFWruwtbV1ZdSXM4dVDeBAMhoTqh0PxRiHSwvb2nIKyrCzf/G5nHyfcwKEix/4WzY0/a4LI720cPB1bvBLCwGM80mutayeQE2u2/prDZwv/KVMr1SuEVKvSlq0//77zye86kIPLIADyWgdSA4nyDKVDbKKpUCdneX5gqZUtHppXZ4FGqFT8kvbOloNOcja9qTRBll8UweEbDfMCCygJt328Tt+KplvVvEkbHICZ2E5Xsj3/T+O8iUKxphr4/H4TM/zli5fvtxnCevCcR3AgWQ0DySH2uG5V5Blh/xaQwmyNm8qb+D08rqCCoWAhRqh4ttAfndD96EHWf38NIogCwAAVPzY2t56yh0nWOn9kp6uok9uJS0PYrFDv3bq1/9QjhfsHi312Aj//OFYLDY7nU5fvGrVqs0sWL0RYAGI9jehwwqytpRr9EFWNldSoVAq66QEgdULzzEKC+FT8kv9rBdGZqyCLAAAMCZuO+XOh16dvPlgKy2SFO4AxijtWOctt55y5/G3n3R7WRujO45zhqThHJg/KekYz/OOXb169ZMsSQPUVVxCCEQd53rDOestQ5BlrVXb5soETRteKijbyShjhEtgrYpBaYDVhSALAIBasvz45YXbTrlzaRCPvcFae7vK1xy9XJ43xpz5mn/tNa9co676amlpaZF0oqTOHTx1k6RPSTrE87wfs/QMLk4JgMiLThP3oUztsJ83yJ0LB7hrYXtbQb4fVGhmWj3/bE4HHDiFJRuhUvJ91TkxDRQrdV1a2H0PQTvYqtTnpx3ctRAAAIyP20+8fZ2kM8++5/TbrbVLJR0+zh+pIGtvLVhddtdpd7ZV+s08z1vuuu4Tkq6UdIykWI9fr5d0d7FY/N81a9a8xNIyNHGO7gBEyngGWZL8UqD2jmJFJ7FtY1Ftm4tqmFrH/EZoWFkVSiVNiCe6fxpolapEkAUAAMbLLR+/w5PVW8++57SPWOlaSfuM/TmAfbjkOOffcdKd/xzLt/U873FJxzU2Nu5qjHmDpF0k/WfChAl/WblyZZalY3jiHN0B0RYEQURC7D4B03gEWZI2bc7L2sqX/Ln/ZHXQIfGuMAAIiWJQUtzGFTNO95I5VkEWAAAYV0b2Ft25/IzbzvixkwgulnSxZCeOwSlAq3W06LaP3/Xb8Zz81tbWlyW9zIIwOvTAAhAxfXpXDbv31VCft32PrHzeVy5bGpOpzHb62vBKkdmN0B295kuF7jt7dv1sdhCzjrZHFjchBEK5IwYQDvVj/Ya3n3l7562n3LG4VNKBku6r4DbhVSstenXK5qbbPn7nb5nVtYEeWACisaXzBzp+HqMRWdZo88bcmE72889mNX1GnRyHM3iER2ADFUu+6uLxHuuSqdiILAChw04JCI99xuuN7/jEHc9KOumMu065OWacpVaaV6aXLsraW4Ji/PO3n3n7JmZxbWEEFoDoHC73e8g8NiOyOjoKKpbG9gYsxUKgl1/MM+8RIl3rWr5U2Bbu9lqXhjkiywy2WnIfQiDUGwIAYTBn3rx5U8fzA9x+6t2rdv/3Xm+2xp4s6cXRHe+bR2LGabz11LsWEl7VJgIsANHaBoxDkBUEUlvb+ARJL67LyS+xmUfYNjpW+VKxb3Y1/CBLQw2yAABAP6aUSqWPj/eHWLx4cXDbx++61+mccIBkrpA0rANnKz1pjI659eN3vOvmj399LbO1djmUAEAkjWGQtXlTXkEwPpPpl6xeeJ4bnCBMK16XvF/UlntIjE2QBQyPtbaBKlTEVEoAhMqVc+fOPTAMH+Rr536t/dZT7lhs5c+WtHwIf7LBSJeun7x59i0fv/PHzMraR4AFIDKnzWZYvyhPkFUsBursGN9m6q+8mFch57MQIHQ6S7leK02/QZbp+mHoQZYhtUJ59hvGvOWAAw6YQCXKfu7xTsoAhMpU3/d/7Lru7LB8oNtOuefvt55y5/HW6EgZ/bmfpwSS7lOs7g23nHLnl5cfv7zAbIzOToRrS4BoH6BHYxtgtP0Jct/f9/vL0QVZmzaMfw+qwFo9zygshELvzU3J91X0S9utXNutZv0EWWbQVY8gC2Wx+7Rp025asGBBjFKUZ0+cTCa/JOkgSgGEzgGSVrmue9GsWbMSYflQt338zl8G+VjSSoskPa+u2zL9JJA/59ZT7jzp1pNufYlZFy3chRBAhA6dt51DD3qfsn5/Ofy7FmY7SyoUwjHyaf2rBe26W0mTp7DZR7jkinklYvEeq9K2lWu71WzrA1uCLjvgarj1GdyFE6Nz+tNPP31oMplcmMlk/kg5RiaVSh1irV0q6R1UAwitiZKura+vPyOVSl2UTqd/FIYPdfuZtxclLZW0dMGyBbHlxy/nsoII4xJCIOIiMwKr75ntjkZkDfhLq16jsgZ4AWutNm8M12jm557pYIFHCFa+3nwbKFcq9LMqDW1EloYwIgsYpbnGmD+4rrussbFxH8oxdPPnz5/huu5Sa22rCK+AavF6a+0PXdf9ZTKZPDRMH4zwCgRYAKJ9Lj3iIEsaLMhq31SU7wehmtz29pI2baRFAMZT/3l5rlhQYAP134u9PEEWUIY9xgLHcf6SSqUWz58/fyIlGVhzc3M8mUyeUSgUnpB0vrjqA6hG7zDGtCaTyXsPPfTQ3SgHwoAACwDKHGT5pUDt7eEMip57tlOWzocIGSurbKnQaz0jyEJITbLWXl4oFJ5MpVInsahtr7Gx8Z1tbW2txpjbJO1KRYDqzguMMSfW1dX9zXXdS7ixBcZ9gRRN3AHOHaNgKFdKlinI2rSpENqQKJf19eorOZZ6hE6hVFQp8Ldbz0YbZPFNHSrkddbab7iuu9J13XmUQ5ozZ87rXddd5jjOI5IOoSJATZku6Zpp06atcV13AeXAeOG4DkB0GFvxIKuQ85XrLIW6DOue7ZTv890Fwqczn99+/NSogyygouZJ+kMymbx33rx5u0exALNmzZqSSqUWx2KxxyVxYgvUtgMlLUulUo+4rjubcmCsMQILQPRUKMiykjZuyId+8oulQC+9mGU5QOj41ld+a0P3MgVZwBgcTxtjTiyVSv9IpVKLI3SJjZNKpU6qr69/ylp7uSQuLQIiwlr7TkmZVCp1W2NjI5cKY+x2PJQAiLYgCKIbYpc5yOpoK6lUrI5yvvBCVsViwAqA0Oks5mW7v1srW5AFjI3J1trLp02b9udav8SmqanpCNd1PWvtNyTtzqwHIilurT3DcZy/ua57yaxZsxKUBJVGgAUAZQiy/MCqbVO+aiY58K3WPd/BvEfoWGvVWcj3s+qZflfCHQVZwDg4QDV6ic28efNel0wm7w2C4NeS5jCrAUjaSdI19fX1a1zXfR/lQCVxCSGAaBjKmewogqzNGwqyVTag6eWXc8rmSiwbCJ18qdC7oft2q97wgixgPNTSJTau605KpVKLS6XSk8aYE1m5APTjIEkPJ5PJXzQ1Nc2iHKgERmABiE6IbYZ4TjvMIKtQCJRr96uyJM8928kagDFeCYem7yis/lbloQdZwLjpeYnNwubm5ni1rbTdl0P+pbvP1URmKYBBNxrGHBkEQWsqlbrNdd1dqAjKiQALQHTPo8sUZG1aX9jas6fabNqYV1tbkeUBY2To60kpKKkQlGSMGcJqPJQgCxhXO0la0tbW9udUKnV0NXzgxsbGlOu6v5O0TNI+zEIAw1BnrT1DUrWG9wgpLiEEEG2jDLI62ksq5P2qLsGzz7axHCCUOvNdd8s0xowqyAJC5CBr7Y+TyeQvGhsb3xjGD9jY2LhHKpW6zXGcVZIOZ5YBGIUZ6grvH0+lUu+lHBgtRmABEWeMqf0QOzaUQmjYQVZgrdo2FKo/JOgoaf36HCsDxmKLM6xnB9YqW8j13F6NLMgCwrfvPdJxnMdc113quu60MHymWbNmJVzXXeg4zhPdIyc4TwBQLm+w1v7Edd2HXNfdn3JgpBiBBSA6582mTM/rDrLaNxbl+7WxCX3uuQ5Z9gYIoc5iXn4Q9D357/rfDldjLiREqNVJOl/SP1zXXbhgwYLYeH2QZDJ5bH19/V8lLZHUwKwBUCHHSPprmMJ7VBe+WQEQLWUKskpFq7bNtdM7Kp/39eJLNHRHpY0sJe0sDDBCcMhBFhBqO0ta8vTTT69ubGx821i+cVNT05xkMrnCGPMjSTOZFQDGQGjCe1QfAiwg4iJxCeFozmwHeN6mVws1N371hec7VCoFrBQInYJfVMkvDbzK7iDIAqpE0nGc37iu+9DcuXP3q+QbzZ07d2fXdZcGQZA2xhxB6QGMgy3hfUtTUxPbIQwJlxACiAjb/+ZuBEFWttNXLuvXXIVKfqAXXmQUFipp5BFTez4ru6NVliALteEY3/fXuq57zeGHH17Wy/lc161zXXeh7/v/UNcICEY+ABhvjUEQrHBd96GmpiZGgmJQjMACEDGjC7KsrDavL9ZsdV56sVP5vM9igtDxbaBcsbB1ZSXIQo2bKOmSXC7311QqdZLKcDVsU1PTkZJa1dXnit4zAMLmmCAI/uq67tJ58+ZNpRzoDwEWgGiMwtzubHdkQVb7Jl+lYu1eZhdYq+fXtbNWIJSbm2wxp2Dr3QaGHmQBVWxPa+03ksnkqqampjeP5AXmzp17oOu6DwdB8AtJsygpgBBLSDq/VCo9kUwmz6A/FvriEkIA0TKKICvwpfaNxZov0auvZtXRWWRZQegE1ipbyPZZN4cQZAHVvusypikIgt+7rrvMdd29h/I3s2fP3sl13Wt8339c0vuoIoAq8lpjzG1PP/306mQy+VbKgS0YgQUgomcDGnaQtfHVgoIgGpn/M8+0sYwglHKlokq+L7PdOkyQhUjsuRZI+ksqlVrc3NxcP9DxfSqVOimRSDwh6RJ1jWgAgGqUNMb81nXdh+bMmbMv5QAjsABwOjCEIKuQD5RtL0WmLG3tBW3alGP5QOhYWXUUOretvgRZiJ7J1trL29ra1iaTyQ/1XNRTqdS7XNd9zFr7DUm7USoANeKYWCy21nXdKw499NDJlCO64pQAQBQYI8kOktibrWfHff5hZGW16dVC5Gr2n2fbdMjUekIAhE7R95UrFlRfl9i2+prutdb2XqkdvqdD7ZppjPmu67r/tNY+YYyZaa09iLIAqFGTJH2+rq7u1GQyeWkmk/mWGIwTOVxCCERcEJVr4rrPZ43ZwaiMfkZkdbb5KuSCyC0buVxJr77ayUqCUGovZNXVz930Xn23W4c51EHN288Y815JhFcAouB1xpj7U6nU6lQqdTjliBYuIQQQPcMIsoLAavOr0W1o/tzz7YpSxonqYa1VZzHXe4Xt+RPXEAIAUMvHASlr7e9c113W2Ni4DxWJBr6WBBDddGIIQVbbhpICP7olKhR9vfhSO2sJQilbyMsP/L7RVa+fCLEAAKjlo3ktcBznL67rXjNr1qwplKS2EWABwABBVqlo1bGxFPnyPP9iu4qlgOUEoWNl1d6zoXuv41mSKwAAImKSpEvq6+v/mkqlTuIgoHZxCSGA2hcb4m6sT5C18eUiG0hJgW/1/Lo2CoFQKpRKypeKPVfjvmOwAABANLzOWvsN13X/2NjYOJ9y1B5GYAERZ4yJQEbjS7JDH5RhpFyHr3ynzwLS7aVXOpTNMRoN4dReyG63bjMGCwCAyJrrOM6jrusuc113b8pROwiwAESI1ZCCLCttinDj9n5LYqVnn99EITBKlYmU/MBXZyHX77XAhFgAAET2oGOBpL+kUqnFzc3N9ZSk+nEJIYAIGjzI2ryhpFKBTWNfGzbm1N6RpxAIpY5CToENZIZ0m1EAABARk621l7e1tT1Jf6zqxwgsIOKicQnhQLYPsvySVdt6Rl8N5D/PbqYIGOU6V6FXtlbt+WzXdk3aFmRxpAMAAKS9rLXfSCaTv25qappDOaoTh3UAosHs6KS6K8ja+EpRlsFXA2rvKGj9hiyFQCVWxFHLFfMq+qVe72b4ohUAAGw5NjDmiCAIvGQyeW9TU9NrqEh14RJCANE6dx7kXDaf9ZVto3H7jjzz/GYFpHwIqc25DooAAAAG4xhjTgyC4Cn6Y1XZjKMEQORFL4noJ8iystr4MnfZG4p8vqSXXyEkQDg3N6XAV7ZIrzYAALBDW/pjPe667gLKEX6MwAIQXT2CrI5NgYq5gJoM0bPrNsv32X0gnNrynbKMEgQAAENzgKRlruv+qrGx8TDKEV4EWJU4JzaGYRwVYK2lrqiIILDa/AqN24ej5Ada9yIN3RHa/YXaC53cZwgAAAzH2x3H8VzX/ZrrurtQjvDhEsLKHDhvoArlZ4zZSBUwEjHHGXRo1eZXSgpofTVs615uV75Aroxw6izkVQp8SYahlQAAYMinDpLOlvT3VCp1geu6dZQkPAiwKuM/lKACC6vj/JsqYCT8kjYN9Ltiwap9E+nVSASB1XMvMAoL4dWW7ZD4UgkAaoIxhgacGEvTrbXXSXrcdd33UY6QZALiEsJKSFOC8lu9evXfpYGDCIxMEAQ1vw2os1o30O82vVhkKzgKr7zaqc4sl18inAp+SdliLhGRyWVLBkRbzW8DcrncemYzxsFBkh52XfdnjY2Nb6Qc48sRHSLKvvPwff9nlKEytbXW/pQycMAzXPct+L9/SXq17+PZNl+5Tq4uGt3CY/XM8xspBEIr7xc7IzKp7cxtINJqfkj02rVr28WVLhg/73Yc50+pVOq2xsbGXSnH+GAEVvn94bHHHvsXZaiYb1GCsjMRmEIrmRU9H7JW2vgy/ZvKYePmnDZtzlEIhPNAx+jbEZnUV5jbQKS9HJHp/COzGuMobq09w3GcJ1Kp1Cebm5vjlGSMj+soQXlZa79MFSonk8k8LGkNlSjvYhuFiTTqfRLb9mpJfpH8vlz+/fxGWb4PQcjEjCn8/FO/uj8S2zhj/sQcByJ9DvJYRKbzu8xthMAMa+2NbW1tf6Y/1thiBFZ5Dx5/2x2woKL7LXsxyy2Gq+BP+76kv0uSX7RqW8/oq3LqzBb06np6qyJc6uKxB7tGYEbC75njQHQPc4rF4uooTOiECRMekvQisxwhsaU/1sOpVOogylF5jMAqnzZr7akiWKm4TCbzc0l3UAkMx/Ljl/vW6nJJ2vRySZY1teyeWbdZAYVFSMQcpxCbUH92VKbX9/3vSSKZB6Lp/x5//PFI3HF15cqVWUnXMssRMu+z1j6eTCavmzNnznTKUTkEWGU6brTW/o/nef+gFGMjl8t90hjzSyoxesaYyCQOD3zkFw9kO4Lfd7b5zPgKyBdLeuHlzRQCg21xxuyd6hITLvjp+T+NzALZ2tr6sqTlLGNA9Fhrb4rYJN8gKcOcR8jUGWMuiMVi/3BddyH9sSrDidLJa4XkrLXHZzKZhyjF2Fm7dm0hFot9iBALw1XssB+tS5gslaiM517cpJLPnR0xvibWTfje/134f1+L4KR/QVKRJQCIlEe7r06IDM/zitbaUyS1MfsRQjMkLWlra8s0Nja+k3KUlxMEAQHWyP3DWvv2TCbzPUox9latWrU5m80eLWmpuHQTQ/Tw2b96buKU2Px4nclTjfLzfatnX9hIITCAym+qJyQSP//5px/5cBSr63neE5K+xHIGREbOWvuJKE54JpNZY61dIInjOYTVbMdxHnFd9/vJZPIAylEeXEI4MgVJX83lcnMymQy3ch1Ha9euLXiet8gY8w5Jj1OR4YviKMyHz/r1n6ZPdw6YOCX2L5aA8nvplXbl8wwCwRhvyxxjJyYSS39x0S/fE/FSXGWtfYQlAqh5VtJZmUzmr1EtQCaT+XkQBEdJWs/igBA7zhizNpVK/e+8efOmUo7RIcAa/sn+Q7FYbLbneRetXbu2nYqEQzqdXjFz5sxGSWdLeoWKYEe+94kVz/78/BX7TZoevzEWNzTFKqPAWv173QYKgf72ohV51UQ8/vzEeN28n1/0y0VRr7DnecW6uroPS+ILNqB2WWPMpZ7nfSPqhWhtbf1tPB4/zFr7UxYLhFjCWvvpUqn0pOu6p4scZuRHkq7rrpI0l1Ls0J+NMRem0+lfUIpwmzNnznTHcT5vjPmkpDoqsoONgDFHRX25Pva25l3yeT2Y7/CP4CZ65XPI61+rhkn1XcvZ1uDCSLbnz5LslgvLzLYrzGyP/9s6T0yP56r31WjW9Hlu98M9Huz9e9vrZ9v7D7Z7D9vjibbPG9gB3q/ve9o+bzbYe/Z6Vdv7FXsuo7b7/a21W39ne/y/evzebvkMW5+zpQY9n2O3TsOOXks9nt//39mtld/+OT0/98jFHFOYEI9f+bOLfnUVa1xvrutOkvQNSR+hGkBN6TTGnJVOp++jFL0lk8kPGmOulbQ/1UDItTqOc0FLS8tvKMXwkPzt2CuSzm1oaGgkvKoOjz322MZMJnNhLBY7RNLDVGRw3MhBeujMFa/83/krmhum182bMMl5mqWiPP79PCP60Vd5NjfGGFtfl/h+/aTJUwmv+ud5XqfneQuMMSdJepWKADXhd77vzyG86l8mk/l+Lpd7o7X2YkmbqAhCrDEIghWu6y6fO3fufpRjGMeAjMAaUNEYc7e19rOe53FJWhVLJpPvMMZcL+lQqrE9x3He1dLSQr+UHo6+tXlhrj34UqlgJ1KN0Tlov901Y+okRmCJEVjlGoE1IV73Zyde98GfX/jzp1jDhmbOnDnTY7HYpZIukJSgIkDVec4Y85nu4Iqx4kMwd+7cnX3f/7ykcyTFqQhCrCDp1ng8/rlVq1ZtphyDI8Dqh7X2kVgstqilpWUt1aidnCaVSp1grb1W0m6UY5sgCI5sbW39JZXorXlxc3ziLvbmXEdwuu8zWnWkJtbX6bAD95RjtpSQAIsAa2QBVl3cWZ+om3DaTy/4vx+wZo34hO5A3/evk/Q+qgFUhaykG3K53FX03h0Z13XfIOmrko6mGgi5ddbaxfvvv/+dy5cvpz/vAAiwevubpE95nvdjSlGbenwLvUjSBCpCgLUjH7rpHfu0B8G38x3BmywNskZk5p476zW7TNuy2yHAinSAZfv53INzHFOcMCF+3c8v+NWlrE3l0dTUdGQQBEslvZFqAKH1sO/75z322GP/ohRl2+4tkTSLaiDkMtbaRZlM5neUYnvGdd0/SpoX8TpskPTlXC53/dq1awssFrVvzpw5r4/FYldLWhD1WhBgDc17b3vHUaXO0n35rGUE3zDVxWNqfMNeisccEWCJAEtDDLCMbH088cvYhMSHf3r+TxlSX2au69ap69KaKyRNoyJAaLRaaxdy8lqZ7Z619hRjzNWSdqEiCLmHY7HY+atXr/4npehxeBjxAKtkjLnL9/3LWltbX2ZxiJ7GxsZ3Oo5zvaTZUa2BtfadmUzmVywNQ3PMLUdcnG3XF4rFgBF8w/C63XfS3q/ZSQRYIsDSjgOsRKLu6cQE57ifnPfI46w9ldWjT8y5kmJUBBg3r0q6cubMmTdx+VBlzZ8/f0ahULhc9MdC+GUl3VBfX3/1o48+2kY5ugKslZLeFMGT9kccx7kgnU7/mcUg2pqbm+ObN28+1RhzlaRdI7guEGAN07G3uZOKhYb7s53+cdbvmcRgII4xSh68txJ1cQIsAqwBA6x43GmrS9R98ueLHrmXtWZspVKpRklLrLVvoxrAmCpKukXS5z3P4855Y7vdO8ha+1XRFxDh97y19opMJnOHpCDKhYhigPWktfZTmUzmYdYD9DR79uydEonEJYrYXZoIsEbu/Te/+4BcKf9grsM/jGrs2O4zGrT/XrsRYBFgbRdgOTHHr6+L3/mzC355tky0D8zGWzKZPNYYs1QSt/UGKn8M9oi1dmFra+tfqMb46e6Pdb2kQ6gGQh3eGJO21l7ged7vo1qDKN1Za4OkS3O53GzCK/Tn8ccf3+B53qWxWGy2pOUR2hDSmXyEfnTuz5/6v4Ur5jTskvhYYoLDt6Y78OL6NnXmaDOIHtsfGU2oq3t0oj/ptT+78JdnEl6Nv0wm81AikZgl6VJJXK4AVMaTko7JZDLvIrwafy0tLY80NDQ0WmvPlERbGYSWtTYl6beu6y5rbGzcJ5LHjqlU6g/W2vk1PI30ucKIROjbmHd4nvdr5vjoHX1T85XZbHCpX7T0UxjATlMn6eB9X8sILDECK14XWzdpQnzBj877xaOsGeF02GGH7RmLxb5kjDmhawUEMErcOCrkonpFBqpSp6Qbc7ncVWvXrm2PykTXdIBljPll9xA7msBiRCLSH4sAq4yOvO3IafFi8b5se3CMDTjh688bZ+6hnaZM2vYAAdZ271m7AZYUjzmdjhO7+Oef+sXNrA3Voampqclau7TGv/AEKimw1n6zVCpdtGbNmpcoR/jNnTv3QN/3rxJ3LEf4PWeM+Uw6nb5v+yPh2lOrAdaTki7zPG85yzPKoZa/jTHGvD2dTq9gLpfXsbe9NZnLOt/Odwavpxq9TZ44QYe9/nXbRmERYG33nrUYYBlHQTwWe3DvyTNPuP3M24usCVV5zHiitfbLkl5DOYAh+7W1dlEmk1lDKapP9xUZ1ynCdyxHdbDWtnT31FtZ0wcjyWTyUWPMm2tkejZI+vKmTZuWPPXUU3kWY5RbLd6thACrst53W/PJufbgxmLeNlCNbQ7c6zXadacp3XtcAqy+71lLAZaRVSwe/9OkePyY753/02dZ+qvboYceOjmRSHzaWnuJpHoqAgzoGWPMZel0mruqVrkeV2RcKWk3KoIQs5IelHSR53n/qcUJNK7r/l7S4VU+HSVJt8disc+vXr36VZZbVJrruu+T9FVJB1X9RoAAayx2Jc57bm6+Id8RnOX7NkZBpAmJuNyD9pExhgCrhgOsWMy8EkuYE3583iM/Z6mvLclk8gBJXzXGvJ9qAL20S/piQ0PD9StWrMhRjtoxe/bsnSZMmPB5a+25kuqoCEK+Hbpq5syZX1m+fLlfSxNWCwHWLxzHuaClpWUtyynGkuu6ddbac40xn5e0U9VuBAiwxswHbzlqt45iYVm+wz/Ccu9H7fvaXbTnrtMJsGowwHIcFWIJffHh8x65giW9tqVSqXdZa6+XNItqIOKspPuCIPh/ra2tz1OOmt7uHWSt/YqkY6gGQu7XsVhsQS0N8qnmAOvvkj5LnyuMt/nz588oFAqXSzpHUtXdfc5xnOaWlpbfMCfHzrE3N78lW9D9hay/T5TrEI85ct+wr+KOQ4ClGgmwHGvjsfjDZkPdRx9a/FAna3s0ROSGJ8DAJ1TGpI0xC1taWv5ANaIjmUy+wxhzvaRDqQZC7FczZ848qlZGYhnXdX8n6S1V9Jk3SrpS0o2e59EEFqGRSqUOsdZeJ+ld1fS5CbDGz9G3vv3CXLt/dalgI9tHZs9dp2vf1+xCgKXqD7BicfN3Gw8+8ONzH/kra3c0zZ07d+cgCK6w1p6pKvxCBxiB54wx/y+dTt+vCNz9C9trbm6Ot7W1fULSFSLAR0hZa0/NZDJ318K0VFOA5Uv6uqTPeZ73CoshwiqZTB5rjPmKpAOr4fMSYI3zgc/i5vjEXezNuY7gdN+XE7Xpd4xR4+v31oQJdSLAUo/3qJ4Ay8TMBuPoEw+d9/PvskZD6vpCJwiC640xR1IN1KictfarpVLpS2vWrOmgHJgzZ870WCx2maTzVGN3LEf1M8ak0+l0U01MS5UEWL+y1l7A7WdRLbr7Y51ijLla0i5h/qxBEBzR2tr6W+ba+Dr260ftl88WvpXvCN5kI9Yga9fpU/T6vV4jAiz1eI/wB1jG2JLjmNt+eP7PPskajP50337+BkkHUw3UkIcdx1nY0tLyNKVAX8lk8gBjzBclLaAaCBEraYrneVXf3sG4rvtbSW8N6ef7uzHm0+l0+ocsc6hGjY2NuzqO8wVJn5AUyrvPEWCFy9E3N7+nWAjuzWdtpIahH7b/6zR50kQCrK3vEd4AS7Jy6vSb9rbSBx659JFNrLUYzAEHHDBh2rRpiyR9VlIDFUEV+5MxZhE3vsFQ0B8LYWOMeUM6nf5btU9HWC9XaTfGXLFp06bZhFeoZq2trS97nne2pEMk/YSKYEd+cu6Kn/3igt/uNnUn55J4nclHZbr/9cKrzPxqOGiIm387iSD1g3N/1kx4haF46qmn8p7nfVnSTEk3qKslBFBN1ktaNHPmTJfwCkOVyWR+5XleozHmZEkvUBGM+zGc49REGyaTSqV+Y619W0g+j2+tvaNUKn1+zZo1L7GYodakUqkPdN9294CwfCZGYIXXsbe5k4qFhvtzncFxgW9NrU/vwfvsoZ0aJnf9wAgsqdfPPT73OIzAkmM7YnF7wXfP/unXWTMxGo2NjSljzFJjzJupBkKuaIy5uVQqXfHYY49tpBwYqXnz5k0tFoufNcYslDSBimAcrPM8b49amBDH2tCcFP06CAI3k8mcRXiFWtU9ovCNkhZJCsXoBWMMd80JqYfO9Dp/dt6KD03aqe4N9ZNjf6r16f3XCy8rav2/ws448p06e3fd7pOnEV6hHFpbW9OZTOZwa+37Jf2LiiCMrLWPGGOS6XT6AsIrjNaqVas2ZzKZSxzHeb219j5xx0qMvZo5hgvDCKx/WGs/nclkvs9yhSg59NBDd0skEldaa0/TOPbHsta+LZPJ/I45En5Hf+3t/53P+V8r5uy0Wp3G/ffcXbvvNJURWOM9AstYGcd6ZqI9ZvkpP+HSB1SE67qTJF0q6SJJE6kIQuBJSRd6nvdjSoFKSaVSzdba6yQ1Ug2Mgf/EYrHk6tWra6Jfh0kmkyuMMUeMw3tvttZetXnz5hueeuqpPMsVoqqxsfEwx3Guk/SO8Xh/Aqzqc/RNzVdmO4NL/ZKN19q0JeJxJQ/cV47pGhxMgKUxD7AUsy86Jjh+2Vk/4dJijNV+cB/Hcf5X0vFUA+Nkk6Qrc7ncjWvXri1QDowBJ5VKnWKtvUrSaygHKmR9EATvbm1tTdfKBI1HgOVLuisej39u1apVL7JMAV2SyeQHjTHXStp/jN/6rZ7n/Z45UF3eedPcneNm4n259uA91ldN9cfae7ed9bpdZ0giwNr+PSsYYBk/Z2P2sgfP/PFXWcMwHhobG9/mOM4SMSoBYyeQdGexWLyMFiYYD4cffnhDLpf7f5IukFRPRVBGv5N0gud5/6mliRrrAGuF4zgXtLS0PMbyBGzPdd06SedIukLSWF0mRoBVxY772lvcjkJsWb4zmFkr0xRzHCVfv6/q4jECrO3eswIBlgIbxIMfaPrEjy4/fjkjDzDenFQqdYK19n8l7U45UEGrJC30PG8VpcB4a2pq2sv3/auNMSd0HfAAI/YfY8zn0ul0TfZbG6sA6xljzGXpdPpelidgx+bOnbuz7/ufl3SuKtwfyxjzlnQ6/ShVr25Hf+0dp+Ry/g2lXDClFqZn9xnTtP9rdyPA2u49yxlgBbIx/TlWV/rAt0798dOsRQiTWbNmTZk4ceJF1tpLxV27UF7PGmM+W6snd6huqVRqrqQl1tr5VAPDtEHSlzdt2rSklls0Gdd1fy2puUKv32GM+cqUKVOuWbFiRY5lChieZDJ5sDHmeknvrthGgACrdixT7L0vHfG1zo7gdOvLqfbJmXPAPpo4IUGAVYEAK4j566XSKd8+48c/YsVBqLcDc+a8PhaLXS1pAdXAKHVKujGXy121du3adsqBkJ+jf0TSVyTtTTmwA0VjzN2+71/W2tr6chRWjkoEWIG19puxWOzilpYW7l4EjFIymTy2O8gqe38sAqza88Fbjtqto1hYluvwj6jm75ZnNEzWQXvvQYBVzgDLCQpW/lcfOONHn2FNQTVpbGx8Z3d/rEOoBkbg4SAIPtna2vpvSoFq0X2n1vMkXSZpChVBf9s2SYs8z/tHVCbYuK77c0lHlfFk+LeSFqXT6VaWJ6B8DjjggAnTpk1bJOmzkhrK9bqO48xtaWlpocK1531fO/LIQr54dz4bvK5ap2HWvq/T1EkTt+xhCLBGGmApsIET/LLdCT70o9N+1MbagSo9mdvSJ/JySTtREQzhvCRtjFnY0tLyB6qBatXY2LiPMeYaY8x/if5Y6Dru+4O19qLW1taVkduuu657h6TTyvBaW/pccT05UEEV6I+1q+d5r1DZ2vXem5svymeDK0sFW3V3t5kysV6z99tryy6LAGsEAZYf858O4p3vf+DjP1/L2oBaMH/+/BmFQuFydYVZcSqCfrwi6aqZM2fetHz5cp9yoBY0NTU1+b6/xBjzZqoRWTXdoH0oTCqVOtNae+soXqNd0hcbGhqup88VMHZc100aY6631r5tFC/zd8/zDqSata/57ub6SZ36erbN/28/qK7+WAe+7rXaeeoUEWB1v8oQA6zAKW1UzJ5x3ynfX84agFqUTCYPNcYskfR2qoFueUlL6uvrr3700UcZbYpaPX8/wVr7JUl7Uo7IWG+MuSqbzd68du3aSN8x2sybN29qqVR6VsO/JCkwxnzDWvtZz/PWsUwB4yOVSn2k+3bj+w17A2DMhel0+nqqGB3vveEd+/s2+G6u0z+sWr63mZCoU+P++8gYhwBrCAFWYALfd/w77z/le2fJMCIakdgPfthae+1I9oOoKT+U9Kko9YJBdB166KGT6+rqLpZ0kaRJVKRmFSTdVCgUrnr88cc3UI7ua2hTqdRp1to7hvF3q4MgWBTFay6BMJo1a1aivr7+bElfkDR1KH9jrW3J5/NviXqKH1XH3Pr2o3PZ4J5CNti1Gj7vvrvvqtfuvBMB1iABlpWV7xR/U8rlP/itc37MQQ7YDyIq/tb9hdxPKAWi5rDDDtuzrq7u89ba06XqvwM1eolcg/ah2NoEznXdKyR9ToM3hvu3tfbiTCazXPS5AkLHdd3XGmOuttaevIOdWGs8Hn//qlWrnqVq0Xb0Tc1XZrPBJX7R1oX5c8ZjMTUesK/iTowAq58Aq2SKz9qYf/y9J3+fL5YQaY2NjXs4jvMlSSeKZse1br0x5vIpU6bcumLFihLlQMTPAeZJWiLpTVSjukW5QftQmD4L/lHq+uZqXp/nPWOtvXHChAk3rVy5MkvZgHBLJpOuMeYSSR9U7wa3L0m6LZFIfIl1GVscde2hk536GfflOoPjAt+G9oRvz51naO/ddiHA6vErX8XOYrz0qftO+v6tLMnAdidzS/s5pkX1K1lrb50wYcLlK1euXE85gG3n9q7rfkzSNZL2ohxV5x+S/p/neQ+KwUIDL+QDnPweLOkNkiYZY55qaGjw+GYDqD7ddyw82BizszHm3xs2bPjrU089lacy6M/RNzfPKZXst/Id9mAbwv2m4xjNmbmvEnXdg8UiHGBZJ/B9U3xgn3/OPmXx4sXsn4EBjnNpdlxbrLWPxGKxRS0tLdxVFRiA67qT1NUb62JJk6lI6NGgfTg7dkoAAOjpPbc2n1DqDG4u5Gzo+sjsOn2q9n/ta7rPZHqe1UQlwApUdEp/mpyIHX3Tx779PEsrMLSTOWPMxdbaSyTVU5Gq9JSkz3iex11VgSFqbGzcIxaLXU5/rNAqGmPu9n3/stbW1pcpx9AQYAEAtmflHH3rEV/Jttnz/JKNh2enZXTIfntrcv2EyAVYfqz0om/yH73nxB+sYAEFhm/evHmwnojEAABPZUlEQVSvKxaLXzTGnMAxcNXoMMZ8ZcqUKdesWLEiRzmA4etuLXK9pLdSjdCgQfuIzwUAABjAsbc175LP68F8h3+EDclVhVMnT9Qb994rMgFWIL9QcgpX3n3S965iiQRGr6mp6YggCJZKOoxqhJa11t4fi8UubmlpeYFyAKOXTCaPNcYslbQf1Rg3q621F2Uymd9RipEhwAIA7NCxt7+zKddZ+na+M5gZhs/zhr321PTJPdo61GCAZRXYUqz0g8kb2j924/k/pXcdUF5Od3+sayXtRjnCw1rbYq1dyB24gPKbNWtWor6+/mx13bhtKhUZM/8xxnwunU7fJxq0jwoBFgBgyI6+5e3n5zr8a0oFO3E8P8ekCQkdut++Pc54aifAslYqOYW/5o394P0nLv8bSx1QOXPmzJkei8UulbRI0gQqMq6eM8Z8hhM8oPJc132tMWaxtfY0STEqUjEbJH25oaFhKZdBlwcBFgBgWJoXN8cn7mJvznUEp/v++DUF3f81r9Gu07u/PKyRAMs3xfVFUzrtnhO/+wOWNGDszJ0790Df978q6RiqMeaykm6or6+/+tFHH22jHMDYcV03aa29zhhzBNUoKxq0VwgBFgBgRI657h17FuLBd3Id/uHj8V15XTyuOTP3Vcxxqj7AChQUS07hpjtPfPBClixg/DQ1NR0ZBMESSbOoxph4OBaLnb969ep/Ugpg/HT3x1oiaSbVGP12TTRorxgCLADAqBx96zvfVewsfSOfC1471u+91667aM+dZ1RtgGWNtSXlf5s1ifd/84RvbmZpqh7n3HzOlLaGNnvfSfd1UI3a4rpunaRzJC2WNJ2KVERrEASLWltbf0spgHDo0R/rCknTqMiw0aB9DBBgAQDK4phbjrg4264vFIvBmPWRiTmO5szcT3WxeNUFWCWn8HRBuePuOeGHj7P0hNe593xili/7Tll7mGTmSHbf7gP7WPeRVElWmyT7tGQes9Jjkv+L20655+9Ur7rNnz9/RqFQuFzSuaJHTLm8KunKmTNn3rR8+XKfcgDhM3fu3J193/88274ho0H7GCLAAgCUzbG3uZMK+al357KlBdYfm33M7jtN13677V41AZavUlspnj/3zo997z6WmHA6565T9gpM7CzJfljSQSM8xHpcCr5bKjm33vGJO16kqtWrqalpju/7S+gRMypFSbdI+rzneZsoBxB+yWTyYMdxrrPWvodq9IsG7eOAAAsAUHbvveEd+/s2+G6uwz+s8jsyo8P221cTEolQB1i+8f1SLHfnHR/97tkyClhKwuecO047IIjp/0k6QVKiTEto1kh3GOtf+7VT736GKlf1ydyxxpilkvajGkNnrX0kFostamlpWUs1gKrd9l0vaX+qIYkG7eOKAAsAUDHvueWID5ay9o5Czs6o5Pvs3NCgA/bYI5QBlrVWRSf/aKmu7YN3H/9TDnRC6Jybz5kSTCpcJNlLJVXoEliTtbI3FAN79V2n3cWd1qpUjx4xV0pqoCKDetJa+6lMJvMwpQCqW4/egFHvj0WD9nFGgAUAqLijb2q+MtsZXOqXbLxS7/HGvfdWQ/3EXo+Nd4BVNMV1JesvuPOEZY+yFITP4sWLnXX7/ucEY83/Stp9jA69nrMm+MxtJ991nwy9MqpVY2PjHrFY7HJr7emSHCrSy0ZJ12zatGnJU089laccQO3o0R/rHEnxCE06DdpDggALADAmmm9unlIf6N5sh3+cDcq//5kycaJm7bV3r8fGK8Dyjd9ZtJ0X33HC929mzofT2XedckRgnCVGmjM+n8C2WEcLbzv5rpXMjerV1NTU1N0f681UQ4G19pulUumiNWvWvEQ5gNrluu4bJH1V0tE1Pqk0aA8ZAiwAwJh67x1va/Q7zDfzHfZgW+ZjgdfvsadmTJmyLSIY4wArkA0KJvfgxrg9cfnxywvM7fA5/eunvy4et19UV5+r8T4OspLud+Rf/LVT7nmBuVO9x9Ou635E0lck7R3RGqwIgmBRa2vrn1gcgOhoamo6MgiCJZJm1dik0aA9rDtcSgAAGA/vvfXtJxU6/JuKeVu2PjL1iYQO3Xdfme7d29gFWFYFJ/8n348fc8cJ33yWuRs+Z9x2xiQnEVws6WLJTgzZwViHlflKXdvEL914/o1cclWlDj300MmJROLT1tpLJNVHZLKfNcZ8ltEJQHS5rltnrT3FGHO1pF2qfHJo0B5yBFgAgPFj5Rx96xFfybbZ8/2SjZXjJffdbXftPn1618uPQYBVNMVXSrHSCV//r2U/Z4aGchkzZ99z2kesdK2kfUJ+VPaUsfrMLafcuZwZV72ampr28n3/amPMiTU8mZ3GmGunTJlyDaMTAEjS/PnzZxQKhctVvf2xaNBeBQiwAADj7oO3HLVbR7GwLN/hH2FH+R1+XSymw/abqZjjVDTACkypkDf5q7/+0eVfYA6G05l3npoyjlki6fDq+uT2V4GCRbefcs/jzMXq5bru2yUtkXRoDU2WlfSgpIs8z/sPcxlAX6lU6iBr7Vclva9KPjIN2qsIARYAIDSOvu3t84rZ4Fv5zmDmaF5nz5131ut23qUiAVZgAlsw+Yft5M6P3n7sQ53MtfD55J2n7lE0utwYU713iDMq2cDelZC97MZT7+YyhurlpFKpE6y110rarcqnxTPGLEyn09xVFcAOdffHul7SISH9iDRor8rDIwAAQuboW464INepq0v5YES9ihzj6LB991NdPK5yBlhF5f/eZnIfuO+j3/8rcyl8FixbkJjRMfVsI31B0tQamawNVrritf/e6+bFixeXmMvVafbs2TslEolLJF0gKVFlH3+dtXZxJpO5Q1LA3AQwVD36Y10ladew7FdFg/aqRYAFAAil5sXN8Ym72Js7O4LTrT/8UTS7Tpum/XZ7jcoRYBVNYUPB5D7x9f/67neZM+F05t2nHWu6LteaWZtTaJ8wji685eS7fsrcrl7dl9Zcp+q49XxB0q3xePxzq1at2szcAzBSIQnxadBeAwiwAAChtuCWd+zZVgq+09nuHz6cAd5GRrP23luTJkzoOv3f+p+ufwwlwArkl/Kxwm23Lfj2J5kT4XTOvacfHPjB9ZJ5dzSO3OzDgeKLbv/47TSZrWLdl9YslfTGkH7Ehx3HWdjS0vI0cwtAucydO/dA3/evkrRgrLdpokF7bRwGUQIAQDU4+tZ3vquYK30j3xm8dqh/M23yFB20xx6ShhdgBbLKm9xv6jtzxy055QcbqX74nHbHaTPqHHu5jDlXUixik1+UtbfUJfKfu/GEbzIypkq5rlunrrt1XSFpWkg+1hPW2gsymczPmEMAKqU7xL9O/7+9O4+Psy73//++7knSjZal7NIFRfCAoiyigiIqqEfA5YupeqBtZibNJCmFFmWRRQcREQHbUpplmplJWurRRn8HFVGPiBsHF1ZFVBSBtiwF2wLdm8zc1+8PCoRa6DaT3Mm8no/HPB7tZPK5P3NdnyRXrtz355beVuZDsUH7EEMDCwAwqJzedsoXNq4Lv1ro8WE78vq3vOEQjRk5cocbWD1Bz9LNWn9Wx6Rb7iXa0dPQ3lAdGxbGXX61XPtWeDieNrP0AY8f0pFOp9mbaJA64YQTxhaLxS9JGshm7GpJXxk9evT8X/7yl+y1BqDsTjnllKo1a9YkzOwqlf4mF2zQPkTRwAIADDq133zPiLXDajo3rQtrw+Lr/ywbOWyYjho//sUfea/TwCpY7/oebbqgfVJ3hghHU1MucWpoNseko4jGq9wbhj4zk8zdSSgGr+OOO+5YvbiP2/v68bAFM8u5+2X33nvvSrIAoL/12R9rpqRhuzkcG7QPcTSwAACD1ifbP/imjZvD72xaHx7n/tp/YHvjAQdq7Jgx22xgFa1Y7LFNC1d6OK17UneRqEbPtK5ph8e8eIPcziAar8klfTdW1IXz67NLCcfgdeyxx55pZjdKmljWXwLMfu7us+69994HiTqAgfaOd7zjzbFY7Grt2v5YbNBeIWhgAQAGvTPaPvTpzZsKN/Zs8IN8G2eK11RX620TJip4+ceeqygPN2vTHVUq/Ne8Sd0UOxE0M1+310bFLrHS/FW2UmyQ7LoRo164dvak7o2EY3A67rjjRprZRe5+oaSRJR7+H+7++fvuu++HRBpA1Bx//PEnufsXJX1U27+seo2krjAMb7j//vv5400FoIEFABgyPtb2gU8UC+FFvZv82EKvD+/byzpk3/203+gx2ljo2VA1LFwSU/EiGlfRVLukNjZ23Zh6ma6StF/EKqeCXAvN/Ptuiim0T0v6rKQgYmF83N0ubE90fJcVNXi9853vHFcsFr9hZp8pQd2+RtJVmzZtuvGhhx7qIboAouzoo4/ev6qq6mNBEBwfhuEbzWwfST2SVrv7n4MguOv555//+SOPPLKZaFUOGlgAgCHpk/lT9urdWDzJg+r9Q4W9o0aO/Nv3Jt92n0xsdh1hjfn6UySfI+nt0Zud32FBMKt1asef+j7bkIsfG1gwR/27d9GOlnq/8jA8vz2Z+yOra/A6/vjjT3D3uZLevSsL191vjsViF919990riCYAYLCigQUAAAZccy4+LrTgakmTI1gtPWKuS1vj2e7Xe1kqnzzTpLLvXbQLQkmLFav+QtuUtmdZbYNWcNxxx50l6RJJx+7A63skfTcIgq/dfffdDxE+AMBgRwMLAAAMmIb2hpFBTXiR5BdLGh6xImm9y67fpMLXO+OdO3Q3o1lLakdsWj/mPDddLtceUXo/Lj0fSF+vWjtyzrzz5nHJxSB2zDHHHGlmp5vZ8Wb2RnffW1surZH0oJn9dvPmzT988MEHnyNaAIChggYWAADofy5r6kx+2qXrJY2P3OykmwMVL2qJd+7SJVeNXVPeoLD6GknnRK3ecunv5sHn2xILbmUhAgCAwYIGFgAA6FepbOJ4CzRXshOjNzu/2wOd3z4199tSjNacn/bO0MO5Mr0nelWg3R6TzZxft4DLywAAQOTRwAIAAP3i3Gzi4F7Tl82sXpG7a5896RZe2j41t0jW9/6VJeCyVFdisrldK+nAiKWlV+6tYW/VlzKpzAusUgAAEFU0sAAAQFnVLqmt2Wf9mCaTrpI0OmKl0EaX3xjbMOyrLdNb1pXzSJMXTh41qjjswiju9yVplUtXrR615qbuSd1FVi0AAIgaGlgAAKBsUvnkmYE016VDo1cF+a3ycEZbvPPx/jxsc0fysDCmr0mqjVxMXPd7oJntddlfs3oBAECkSjdCAAAASq15Yf1/hMVwtmQfiWD5c59JM1vjHb8ZyFk05uo/KPPZko6OXoj81kIQnNcxpeMxVjMAAIhEeUIIAABAqUzvmjK2WKz6ksymS4pFbHqRu0wunU4HT09cdo65XS9pv4iViRtdfmNv6Ffnkrm1rG4AADCglQkhAAAAu6uhvaHaaorNJl0pac+ITS/yG5U3LW7aO+zpudikWZJqIlYulm+DewAAgB2tSAgBAADYHU25xKmh2RyTjopepWO3e1g8vz2R/8ugiGU2cYQH9k1JH4ve7PxuD3R++9Tcb1n1AACg38s6QgAAAHbFtK5ph8e8eIPczojg9B522QXt8Y7bBmNsm3KJU91srqQjIzY1l3RzoOJFLfHOFXwVAACA/kIDCwAA7JSZ+bq9Nip2STQvd9NzJl27ctSa2d2TunsGc5yjfFmmSetddv0mFb7eGe/cxFcFAADoh/oDAABg+17ZcFzXSbZ/xCqagoeeq5FfPi+R/9dQinukN8Y3PWKuS1vj2W6+QgAAQHnLDgAAgO1o7kp8IAxttqS3R292focFwazWqR1/Gso5aOxKHqNQcySdHMUchApnZuKdD/LVAgAAyoEGFgAAeE3Nufi40IKrJU2OYBVTkWf/pPLJMwNprkuHRiwfQ/YsOAAAEIVSAwAAYCuTF04eNao47ELJL5Y0PGLFS8XvvzRrSe2ITevHnOfSZZJGR2x6z7l05UFLx81Pp9MFvpoAAECJakAAAIAtXNbUmfy0S9dLGh+52XEHvFdp7JryBoXV10g6J4J13cMW+KzWqbkfkykAALC7aGABAABJUnN+2jtDFedIdmIEp/cHD3xm+9Tcb8nUa+TOw7kyvSd61abfGqpqZqYu808yBQAAdrmkIAQAAFS2c7OJg3tNXzazeklBxEqVJ93CS9un5hbJ5GTrdbgs1ZWYbG7XSjowYrPrlXtrdc3mK+ads3gNyQIAADtdFRICAAAqU7T3UbKNLr8xtmHYV1umt6wjWzsuyvuXSXrazNIrR76Q7Z7UXSRbAABgh6tDQgAAQOWJ7J3sJMn8Vnk4oy3e+TiZ2nWRvoOkdG8Y+sxMMncnmQIAADtUIhICAAAqR2NX8hiFmiPp5AiWJfeZNLM13vEbMlU6zV2JD4ShzZF0dMSm5pK+Gyvqwvn12aVkCgAAvG6lSAgAABj6pndNGVssVn1JZtMlxSI2vVUuXbV61JqbuKysPNLpdPD0xGXnmOs6yfaP2PQ2SHbdiFEvXDt7UvdGsgUAALaFBhYAAENYQ3tDtdUUm026UtKeEZter9xbw96qL2VSmRfIVvk1LW7aO+zpudikWZJqIlaVPuHyy9iwHwAAbLtUAAAAQ1JTLnGqm82VdGT0KhC73cPi+e2J/F/IVP+b1jXt8CAMv2nS6REsT38VyGa2xBc8QKYAAMDLFQIhAABgaIl2c0IPu+yC9njHbWRq4EW4yRlKWlwo2IUd0zqeIVMAAIAGFgAAQ0SkLw+TnjPp2pWj1szuntTdQ7aiI8qXmbr0fCB9vWrtyDnzzpu3mWwBAFC5aGABADDIRXqDblPBQ8/VyC+fl8j/i2xFV8Q3+v+HPLigLbHgVjIFAEBlooEFAMAg1tyV+EAY2hxJR0dvdn6HBcGs1qkdfyJTg0djV/IYhZoj6eToVa52e0w2c37dgofIFAAAlYUGFgAAg1BzLj4utOBqSZMjWF08Yq5LW+PZbjI1eKXyyTMDaa5Lh0Zsar3unvfeqssyqcxKMgUAQGWggQUAwCAyeeHkUaOKwy6U/GJJwyNWVKx32fWbVPh6Z7xzE9ka/GYtqR2xaf2Y81y6TNLoiE1vtUtfWT1qzU3dk7qLZAsAgKGNBhYAAIOBy1Jdicnmdq2kAyM3O+nmQMWLWuKdK0jW0HNuNnFwr+nLZlYvKYjY6vurFMxqSyz4KZkCAGDoooEFAEDENeenvTP0cK5M74ng9P7ggc9sn5r7LZmqkLWo4hzJToxeVeu3FoLgvI4pHY+RKQAAhh4aWAAARFRj15Q3KKy+RtI50fuZbU+6hZe2T80tksnJVgVxWVNn8tMuXS9pfMRm1yP3th7X5blkbi3JAgBg6KCBBQBAxER73yHb6PIbYxuGfbVless6slW5orwfm6SnzOzKAx4/pCOdTodkCwCAwY8GFgAAERLhO79J5rfKwxlt8c7HyRReEuk7YsrvDjw2syWx4K4hn4f5zXsURmw8PGbBm2S2dxj6mCCwNa5wfRDGHrPY5ofnT124ihULABisaGABABABjV3JYxRqjqSTI1gu3GfSzNZ4x2/IFF5Lc1fiA2FosyW9PWJTc0nfDTz8fEsiv3woxbwhX/e2QMF/SfqQZMdKim0nFH+T2S8sDL9zwLIJv+HsNADAYEIDCwCAATS9a8rYYrHqSzKbvv1fPvvdKpeuWj1qzU3dk7qLZAvbk06ng6cnLjvHXNdJtn/Eit71Lrt+kwpf74x3bhqsMa5dUhsbu2H0WZJdKNfxuxGPx0L5bO+pymZSmQ2sXgBA1NHAAgBgADS0N1RbTbHZpCsl7Rmx6fXKvTXsrfpSJpV5gWxhZ83M1+21UbFLTJolqSZi01vu5pe31+UWDra4NnYmT5JrvrZ3lptpnVy9erEpPmY7vw48KfkX2uLZb7NyAQBRRgMLAIB+1pRLnOpmcyUdGb3KwG4PAp3XMqXjr2QKu2ta17TDgzD8pkmnR21u7vpFELOZrVM7/hT1ONYuqa3Zd/2Ya/zFhqBtVc2vk/yHFtodofvdXqj6R98zqmbcOGNYOGbTYUUPj5X0QUkfl7TPvwdEP4jFehPskwUAiCoaWAAA9JOmbOIID+ybkj4Wwek97LIL2uMdt5EplHzt5xKnhmZzTDoqYlMLJS2u9vDz8xL5f0Uxdg3tDfsG1cUfyPSevs+79PfAdd26qp7/XjRl0fodHa92SW3NPuv2/JTJL5bpmK0+vCxmwcfm1y14iFULAIgaGlgAAJT7l/fFTXuHPT0XR/RyqudMunblqDWzuyd195AtlEvEL5uN5NdB/YL6Q6qq/HZJR/R5eo3Mrjjw8UNa0ul0YZcHd1lTvv5sN79e0gF9Y+GBn94+NfdbVi0AIEpoYAEAUCavbGht10vaL2IVQMFDz9XIL4/qmScYmiJ+44LInIk4Ixffr9fs15K9pc/X7T0W+mdaE7lHS3WcxoWN+6vYs1Cyj/R5+jkL7JTBcHklAKBy0MACAKAMUl2J95hbRq63RnB6P4tZMIvLhDCQGruSxyjUHEknR21uLt1SHfr0m5K5pwbi+Ol0umrFhOV3SHrfK1W73xpurvpMOe4YWLukNrbv+j1vcnljn6eXxYLeY9kTCwAQFTSwAAAooVlLakdsWD/myyZ9QVE7u8T0iLkubY1nu8kUoiKVT54ZSHNdOjRiU3vBzC5qrevI9PeBG/OJayS7pM9Tt4U9sU9mUpnel56YcfPZYwo9w07Y/td9sE5h+NwBy8f/c3uXHDZ2Jlvkanrlc/3WtrrcmaxSAEA0SlkAAFAS52YTBxcCu03bu8V9/1sj09WrRq6Zwz5XiKJZS2pHbFo35vMyXeLSqIhNL3fg0nGp3dpvaic0diWPkesPclVtKdcfDHuCd2995lVjV/IEhfr9Tgy9yaTbwtCvaU/m7tnWC9LpdLBiwvIfqs+NJkw6uzWe/RarFAAw0GhgAQBQAqlc/Eiz4MeSxkdoWi7p5kDFi1rinSvIEqLu3Gzi4F7Tl82sXlIQnYrZbq+u2njWvHMWryn3oRrzif+T7MQtB95oYXhMazL38L+9bucbWC8pym1GW6KjdVsfnN41ZWwxrP6TpIO3PPV02BM7rByXLgIAsDMCQgAAwO5p6Gx4k1nwS0WoeWWmO83snW3x7BSaVxgsbkrmnmpP5FImO0nSHyIzMfdTe3tH/GDGjTOGlfMwqXz9aa80ryRz/9q2mle7KSbzeals4vhtfXD+1IWrZD6rz1MHxWoKDaxOAMBAo4EFAMBumN41ZWzgxR8pMncZtCfdfGrr1OzJrXUd95IhDEat8Y7ftdVl323SJEnLojErf39h9IYuefmuYAjkF/T574rhe6y5Yae++mVtJl3S9yHpW5K2Pnsqppid/1rjtNXllpheObvLZbPS6TS/NwAABlQVIQAAYFd/n5UVu2q+LfkREZjNBsm/EfbErsukOjaojvRgkDN5q7LdzfObf+yjNl/qrlmShg/sl7w+09SZvL9V2WtLPXb9gvpDXH5anwDMnT2pe+NOzc/85ra67P9t/fyWyw3vUp8bS5jrxNcbK3S7xsxv2fLf8U9PXP4BST9nYQIABgp/SQEAYBc15usb5X7qwP+i77dKxaPa4rkr2acGQ03L9JZ1rXXZSwMPD5e0aKDn49KVjR3Jt5Z63FhV+Cm91GAyFcKqoGunC/sw8G093zY1+wdJWze2Dnm9s6oOWnbIjyS9fPmxSWexGgEAA4kGFgAAu6A5Fx8n82sHeBr3yvTetrrcmW3xzsfJCoaylkR+eVs8OyUI/IOS/jSAUxmmmOdKf0mdffDlf7p+m5mceXpnRyjGiv46H1669RPpL6df8/XpdLpgsltenpLrQ6xCAMBAooEFAMAuKMoulzR6gA6/yqWZq0atede2LhcChrKWqblfHLh03DFuPlXyZwdmFvbOp8c/UVvSEaX3vPxv1y92ZQwvevg6Hz54q/8/JtPrNbwU+iuXDJp0eLIjuQ8rEAAwUGhgAQCwk5pz8XFmVjcAh+6V+41hT+xN7fHs3O5J3UWygUqUTqfD9rrcwuEKj3DpWkmb+3sOZv6lUp2F1bS4aW9JB7z0/9Dsj7tU2Me2fQlhKhc/UtIpr3rS/dbtjRcL/YG+/x8WBG9h9QEABgqbuAMAsJPcgpmSavr5sN8PivpCS33uETIAvGhOvPN5SZc05Bs6YyrOdumj/Xj4I5+esPx0ST/c3YGspzChb+cpCLRLX+fuGr2lGSZJ6t3QO6o6plM88Gvkr2zgLulpVdV8Y3vj/WvMmsfGbhhTkL/4O0NRPkHSXaw8AMBA4AwsAAB2QjqdDlz2mX485MMuO70tnv1kS32W5hWwDZl45m+t8ex/mvtpLj3UX8c16b9KMY7LX3U5ctGC53dpPq7bvadn9UuPqipf7uaL5Dqkz8v+GMTsQ21T2rZ7+WX3pO6iXGteeb8+htUGABgoNLAAANgJz0x44iTJ39APh3rOpZkHLh331vZ4x21EHti+1kTudu+JHWNmKZlW9sMhPz554eRRuztIKA1/1f83h2GpJ2rSesmvOnDpuONbpnT8dSc+ddNL//CB2/cPAAAaWAAA7Nxvgf6f5R1fBZlu6i3qsPZ4dm46nS4QdGDHZVKZ3ta6jkx1GB7p7hlJ5dwrbuTI4rD37/aXvfmGvv+vGVb6RpFLoyS7YsWE5ffUL6g/ZCc+ddQr355eaWYBANDf2AMLAICd+SXQdXwZR78j9HBmJt75IJEGds+8RP5fklLNC+vnhMVwtmQfKcuBzI+XtHtnSRb0Qt8dqoqh7yfpr7sw0j8lPf/KtxQFMk2UtHef17y9KqYbJG33UuiG9oaRUvGVywYDf46VBQAYKDSwAADYUS5Tp44t/S/AesRcl7bGc90EGSitLZfLfTSVT55p0hxJbyzpl2+o43Z3jLAYezSIFV2SSZK5HyHp1zs9UOAXtk3N/U/fp2YtqR2xcd2Y78n0n32+55yZyCZG55K5ta/7i0KNHx5umdOL8wr+yYoCAAwULiEEAGAHTV84ZR9JY0s5psvnrxq55qjWeJbmFVBG7fHsD0eMWvNWc1tY0oHND9/dITKpzAZJS18Z004o1fRmT+reaGbXbPWdZ8Qw8+0240P397zq21VN9cOsJADAQKGBBQDADur14XuVeMhft9flZnRP6u4hukD5zZ7UvfGAZYckJSvlZbr7lGIQN9350r/N9aFSvu9iT/CnfzueYkfuwKee1uffD7ae3colhACAAUMDCwCAHWTFwt6lHdFvlsmJLNB/0ul0QabvlPA7Q0m+L5j7z1/+ziAd2pSvf3epZphJZV7wvntjSXLT6545NjNft1ffm1aYdDurBwAwkGhgAQCwo2I2spTDuQfPElSg/1noz5RwuOraJbU1uzvIcIW3SLbxpf+HFjaU9D33vURRkskPfb3Xb/JYXNLwl+cT+n+zcgAAA4kGFgAAADDA5sQ7n5f85Q3Yze2c6R3JCSU7gL+6gSXZa25mP2tJ7QiZvvDKS/Xn9mTuHrIEABhINLAAAACACPDQvyG9fFlxdbHKry/V2Ga2VQPL31S7pDa2rdduXD/6i5IO7vPar5MdAMBAo4EFAAAAREB7MvdHmX/v5SfcPt3YmTirFGO7bX0GlkbuvX7Uv23k3tRZf5xkF738edJDq0au/TbZAQAMtCpCAAAAMHBql9TWHLB29L690n6xmA4Ipf0U2t5mGiVJLhvj8lggVbvJ3NUjSYFrnUy9kiSzdWGo1bEgXFUsarUF4crq6t7V885ZvIYIDy5B6BeEgX1Urj0kyd06Uvm6P7XHO/+xO+N6qKVmr37OPHaGpJfvyDi9a8rYYujfkTTspU+Tqbl7UneRzAAABhoNLAAAgH7QlEu8UWZHb7n725vl9mbJD9d6HVQIJJMUvnTxmKnP7Sldpi3/9xdfJ0netxnhLjMpdJMFkhRTb29Mjfn6jZI/5tJjZnrM3R+zQI9ZUX9sTeQeJSvR05LIL2/qrP+8y9u3LIW9TLGfnptNvPemZO6pl15X/cLIPxb2WP+mvp+7znpfc3P6kXu88KNN60a/6vWFYrD+pX83z2/eo1jc/EOZ3tRnXc1rj+d+TVYAAFFAAwsAAKDEZtw4Y1hxz/Uneqj3SPZul7/LZfu/2BR4uTvQDzPxEZKONOnIF5tfJoUvNr8a88nnJN3nsvvkurdY1C87pnU8Q/YGXmtdRybVmXyfuc7ZslIOLQT2m+aO5Eda6rOPSNK88+ZtlrTDTcjZk7o3vtbrZ+Ti+/Xa5lslnfDScyb9fuUeay8kGwCAqKCBBQAAyi7ZkdxnWJUf72577uznhtKmmIcPtCTyy6P8HusX1B9QVeWny+2M3mDDaQptj1c+alGc8t6SPmTyD8mkqip5Kp/8o7n+1wP9b82akXduaZJgANSsGVnfO3rDQZI+tOWpN4Yx/SGVq4+3Jzq+X6rjNOemndhr4bcljevz9D88Vv3x7kndPWQCABAVNLAAAEBZpXL1n7HAO0Lv29DZcSYptKDYlEte3ZrIfjlK723WktoRG9eP+bSkesnfKymQef+cXFV6ZtI7ZHqHuS7qHb1hTVO+vltSV2tdx52yQfquBql5583bnMgmPlUT2P/olSbW3mZ+S2Nn4r9lhQvbpi58clfHb1rctLd6eq8MFTZL6ns3wodjRX1kfrztWbIAAIhUoUIIAADYManO5Mnm+lWpxnO3T5byTIooaljUcFBQKD4iaWRJYmY6tb0u+/MBXwu5+JEya5bsbJP2qoDl/6jkCxWraW2bMvgbG025ZL2bFpRqvFWj1gwr19lKM26cMax39IYFkiZv9aFNMuXNrK11asefdnjt5uvebAoSkjVLGrPVh38d9sTOyqQyK/mODwCIGs7AAgAAZRMUCydKNrJkA7pOkzRgDazpndOOCj28wqVaSUEFpfKNkqVV7L2oMZ9cUCjY9R3TOp5ghZfflss4p6Q6E78y2ZyX7k4oabhcTe7e1JhP/kXutyvQH7yoh4vVwarqWPXzwcaeMR4L9g6teLhCO05mp0p+7L8dxFRQqGsPXDYunU6nC0QdABBFNLAAAEDZuLRXKU/3HqiznRrzdRPlVdcWPfy0KqtxtbWRks6vqvKmpnx9rtgTXMHZOv2jvS6Xbeya8hPz6htcmqRXX0lxpMxe3Kg/kKqKLi/2qBiTXt6137Z8Rf67X5vZjNbEjp/FBQDAQAgIAQAAwLal0+mqxs76z5tif5b5JGqnl9W4vDGoKf6tKVcfl7MtRX9om7rwydZ49rOhim+XtEiyjbs4VFGuHweBf7Atnn3/zlyCCADAQOEMLAAAgG1o6qo/ekX4RF7ux7J7+Wsa6+a5xs5kneeL9e3xzn8QkvLLxDsflDRlxs1nn1voGfFxSafJ/H0uTdRr73H7jNzucvPbvSr2P5nJmaeJJABgMKGBBQAAsJXGzsTZHnpGJdp8vgKcbIrdnconJ7fHsz8kHP1j3jmL10i6ectDDe0NI1XT86aYqvaSh8PcgkIge75GvY/PiXc+T8QAAIMZDSwAAIAt0ul01dMTln9VrouJxk7b06Tvp/LJbxy0dNyl6XQ6JCT9K5PKbJD0IJEAAAxF7OMAAAAgacaNM4atmLjsf0w0r3aDmXTxivFP/Hc6neYPpQAAoGRoYAEAgIpXu6S2pnePDUvkdgbRKAHzSSsmLqOJBQAASoYGFgAAqGjpdLpq7IbR35Pp40SjhNw+vWLisoW1S2pjBAMAAOwuGlgAAKCirRi/7OuceVUmbp8bu27M1wgEAADYXTSwAABAxWrKJz8pswuIRBmZLmzsTJxFIAAAwO6ggQUAACpSc0fyMJcWSjKiUVYmt2xzR/IwQgEAAHYVDSwAAFCRwpjmShpNJPrFnmFMnXKahQAAYNdwZxgAAFBxUrn6T0j+sYhNa4VMK+W2Sq7VCnyVhx5aYOvd1fPSi8y9yrc03sxsb0kyabTLa6RgP8n3k7S/oveHypNSXYnJ7cotZAUCAICdRQMLAABUlNoltTXBep/tAzeFpZLukeweuf3ZVXh05B7rHps9qXtjqQ6QTqeDp9741CFBITzMAh3mYXiUTMdLwTGSjxioN25u1864+exb5p2zeA0rEQAA7AwaWAAAoKKMXT/mMy4d2m8HNBXc9VNz+1GhSj/pmNLxWLkPmU6nQ0nLtjzu6PN81YqJy98lt49Jfoako/s5/Af29gy/TNLFrEQAALAzaGABAIAKYzOlfjn/6mnJbgy80NkS71wRhXeeTqcLkv5vy+Oyxq7kMQpVL6lO0sj+Cb8aZ9x89tWchQUAAHYGDSwAAFAxUp3Jk+V+bDmPYdJ6ya8s9lTNz6QyG6Icj7ap2fslTa9fUP+Vqir/oqRmSdVlPuyYnt5h9ZK+yYoEAAA7irsQAgCAimGuc8p8iD9YUe9ojeeui3rzqq+OaR3PtMWzMz30d8p1f9nzIJuRTqf5QyoAANhhNLAAAEBlcJlkHyvj+D8Ie2IfaKnPPjJYQ9SezP1x1R5r3i2pq8yHmrhi/JMfZVECAIAdRQMLAABUhIZ8/BjJ31Cm4X9TvW7kpMF01tVr6Z7U3dNWl41L/vWyHsjCs1iVAABgR9HAAgAAFcEUfKQc47r0fFXon5133rzNQyhY3hbPfdHdM2U8yplcRggAAHYUDSwAAFAZRY/p7eUZ2a+6KZl7aijG7KBl46dLfleZhh/79MTl72dlAgCAHarlCAEAAKgEbjqqDMOu7Q21YKjGLJ1OF8w1WdLacoxv0umsTAAAsCNoYAEAgCGvob2hWq7DSz2uSbflkrm1Qzl2rYnco5J9rSyDh3o3qxMAAOwIGlgAAGDIi1UXxkmqKfW4ofTrSojfiFEvzJW0vOQDm46pXVJbwwoFAADbQwMLAAAMeR6zPcsysOnhSojf7EndG+WaXYahh++zdvTRrFAAALA9NLAAAMCQZ8VwTFnGNa2ulBgOt2JepnWlr0btBFYoAADYbslACAAAwFDnqhpdjnGt6C9USgznxDufd3l3yWNoOowVCgAAtocGFgAAqICKpzisHMMWLRxVUWE0lbyBpdAmskABAMB26xBCAAAAhrwwtq4cwwaqGltJYSxuqrrdpedLO6pPZIECAIDt110AAABDvuIJ15VnYB9XSWHMpDK9kn5Z0kFNE1mgAABgu+UcIQAAAEOdma0tx7hu+nDlRdPvKPGAe9YuqY2xSgEAwOuhgQUAAIa8ogXPl2Ncc9VO70hOqKRYulXdJslLOOQ/uyd1F1mlAADg9dDAAgAAQ97Bjx78hKQNZRh6WDHm35q1pHZEpcQyU5f5p8lyJRquKPMvskIBAMD2VBECAAAw1KXT6bAxl3xYpmNKP7qduHH9mJ+dm01MuimZe6oS4nnA0kMan5n4xB881EcVaPQuRc211NxyLfEFd7FCAQDA9tDAAgAAlcHsL5IfU6bRT+oN7KGmfOLKYk9VJpPKbBjKoUyn0wVJmS0PAACAsuMSQgAAUBHc/YFyjm/SXi6bHdQUHmvM11/dkG94C1EHAAAoDc7AAgAAlVH0BMGPix5eV/4j2f6SXxqoeGljPvlHyX4k89vCzbE/ZFKZXjIBAACwC7UcIQAAAJVgft2Ch5ryycdcOrQfD/t2yd8u16VBTbG3MZ/8k9z/zwPdax7+ui3e+TiZAQAA2D4aWAAAoGK46UdynTtAh6+WdJzMjjOXpJga88nHJd0t2V9M/lDo4UPeW/0PztQCAAB4NRpYAACgYgQeZEOF50ZoShNffLhcklkgqyn2NHYm/26uh1z2kCz8iwr28KZY8ZHOeOcmsggAACoRDSwAAFAxWuILHmjMJ38m6bQIT7NGrre69FbJJTcpJg1/8Yyt5yQ9+uLjxbO2ZPZoVdXGf8w7Z/EaMgwAAIYqGlgAAKCiBObXh26nDdLp7y3puBcfL561JXf19g5XYz75tKRHJP1DpofN9feiYn97btRzj3ZP6u4h8wAAYDCjgQUAACpKy9Tczxq76m+X+6lD7K0dtOXxPrnkkgIVNXbDmEJjZ/Jxdz0cSA/L7GF3/T2sCh7OTM48zYoAAACDAQ0sAABQWUxuuTDlZg9KGjnk36+rStJhJh3m0ulylyQFhaIa88k1kh6U6X657leg+1eNWPMQZ2wBAICooYEFAAAqTmsi92gqn7jCZDdUeCjGSDpJrpMkSaE0dv2YnsZ88gGZ/s/d7oypcFdLvHMFqwYAAAwkGlgAAKAiHbR0/JxnJiw/waXPEI1XqZF0glwnmHxWqJgaO5OPyPVzBf7T6tjmn7NhPAAA6G8BIQAAAJUonU6HG1WsM9OdRGM7XIdJSim0/6+3d/jKxnz9L1O55Beac/FxBAcAAPQHGlgAAKBidcY7NwXW+0nJ7iMaO6xa8veb6brQgscb88lfp/LJ5uldU8YSGgAAUC40sAAAQEWbP3XhqvWxzSfL/FaisUu15PtMml8Mq59szCcXprKJtxMWAABQjqIDAACgoi2asmj9gY+P/5SkFqKxy4ZJmmyBPZDKJe9oysXfT0gAAECp0MACAACQlE6nC23x7HSX/lOyJ4nIrjPTB9yCXzZ21v+sIV/3NiICAAB2Fw0sAACAPtrj2Z/0Fv1oSYskORHZDe6nBha7r6kzed2MG2cMIyAAAGBX0cACAADYSrY+u7otnp2ioo6W1E1EdoOryl1f6Bm94V72xwIAALuKBhYAAMBraKvP/rktnp1kHp6yZZP3kKjsGpOOssB+l8rVf45oAACAnUUDCwAAYDtaE/lftdXlzjT3N7vsOkmriMouGW7mNzd21p9HKAAAwM6ggQUAALCDWhO5R9vjHRetGrXmYJed7uZ5Sc8RmZ2sP93nNuWSlxMKAACw4wUEAAAAdkr3pO6e9njHbe11uUTYEzsgMP+Ima536QGx8fsOcdNXGvPJzxIJAACwI6oIAQAAwK7LpDK9kv53y0MzcvH9ehT7oJm/R/J3SnaspOFE6t+YZLlUNvFIezJ3D+EAAACvhwYWAABACc1L5P8l6TtbHmpob6hWde/bArPjJDtKZkfJ/a2SDiRaPkKBLZ5x44yj5503bzPxAAAAr4UGFgAAQBltOUPrvi2PlyU7kvtUVfsRKgYTzTTBpAnuPkGmCZIdKvmISoiPSYcX9thwoaSvsloAAMBroYEFAAAwALL12dWSfrvl8W8aFzbuHxSLE4ruEyzQBIXheJlNkGyc5OMk7TdUYuFmlzbm625ui3c+zsoAAADbQgMLAAAggtqmtD0r6VlJd2/r47OW1I7YtHb0eJnGScE4N01wC8ebgnFynyDpjZJig+Pd+gh5MEvS+WQeAABsCw0sAACAQWj2pO6Nkh7e8vg3De0N1dXD/PDQwyNddpTkR0o6StJbFMU7UZvFE9nE5blkbi3ZBQAAW6OBBQAAMARt2XvroS2P7peen7xw8qiRvdX/EVjwNjd/l2QnSn6UBr6pNbrG7L8ktZM9AACwNRpYAAAAFWTRlEXrJd2z5ZGXpBk3nz2mp3fEewPpo6H8IyYdPiCTM9WKBhYAANgGGlgAAAAVbt45i9dIum3LQ9O6ph0eC4ufk+xzko7ox6m8t6G9YWQmldlAVgAAQF80sAAAAPAqC6Yu+LukKyVd2Zir/6CbX2DSxyRZmQ89zGqKJ0v6CVkAAAB9BYQAAAAAr6Ut0XFHezx7hgK9W9Lvyn08k7+fqAMAgK3RwAIAAMB2tU3N/qGtLnuiSZdIKpbtQB4cQbQBAMDWuIQQAAAMWals4niLWUqyibs0QKi1buH/HrR0fEc6nS5UfEBN3qrstY35xDOS5VSGSwrd/HBWLgAA2BoNLAAAMCQ15uo/qMB/KleV5Ls2iEkm+9SKCcvfLamOqL6oLZ7rbMon3+bSBaUe26Q31S6pjXVP6i4SaQAA8BIuIQQAAEOTefrF5lVJTE3l695MUF9R7IldIWlVGYYevt/6UfsRYQAA0BcNLAAAMFS9paSjWXAyIX1FJpXZINN/l2XwYmwPIgwAAPqigQUAAIaq3pKO5sFbCelWIQntV+UYt2g+iugCAIC+aGABAIChalMpBzOFRxPSrcTCJ8sxrMWMM7AAAMCr0MACAABDkksbSzqg2QnpdJob4PQRKlaOPbAUmNcQXQAA8Kr6gBAAAIChyOTPlHRA1x7PTnjyGCL7iljY21OWgcPYOqILAAD6ooEFAACGJPPgiVKPWbTwP4lsnxgHVWPKMa6HxTVEFwAA9EUDCwAADElh4MtKPaa5/h+R7RNj9/3KMW6xpooGFgAAeBUaWAAAYGgWOaE9WoZh396Qr3sb0d3C/ciyjLtBLxBcAADwqtqOEAAAgKEo9PC+shRPFjuP6L7IZO8sw7BPZVKZDUQXAAC8qgYjBAAAYCg6aPn4hyTbWPKB3c5uzsXHVXp8t9yR8fQyDP0QqxcAAGyNBhYAABiS0ul0Qe4PlH5kHxFa8PVKj++KQ5edKWmfMgz9F1YvAADYGg0sAAAwZJn0szIN/bmmrkTl3pHQZQr1xbLkzPVnVi4AANgaDSwAADCEKx37QZlGNg9tUcPChvGVGNbGfLJB5dn/Sr1V9nMWLgAA+LeyjhAAAIChqnVqx30yPVGm4ccGheJPmvN1B1ZSTJu66o820w1lGv4vHVM6HmPlAgCArdHAAgAAQ5fJ3e27ZRz/P0IFv6hfWH9oJYQzla97s4f+U5dGleUArltZtAAAYFtoYAEAgCGu0CIpLN/49pZY0e9L5eo/MZSjmOpMfsgsdpeksp1xFij4PusVAABsu04AAAAYwtrjnf+Q66flPIZJe5n5LY355JLGfN3EoRS/5vnNezTmEteb9BO59i3bgVz3tyQW3MWKBQAA21JFCAAAwFDnphtN6o+7BtZKsTMb88lcqNi8TDzzt8Eas8kLJ48aFQ5Lhtp8odwOkZc5R4HPYaUCAIDXQgMLAAAMee3x7E8a88lfSjqlHw43XFJzoGJTYz55u7mWVCn8/rxE/l+DIVYNufi7Atl/qWhnSz62nw67ombNqO+wUgEAwGuhgQUAACpCoGBWqPAeSbF+OqRJOs1Np/UqaGvMJ38n2a/M/C5V19zVenbrc1GIy/SO5IQwppNc+pCkUyWN7/dJmF0z77x5m1mlAADgtdDAAgAAFaElvuCBxnwyJ2naABw+JukkyU9yl9TTo8Z8cplLfzPpr2b2Dylcbh57OgiLT+67fPyz6XS6UIoDp9Ppqqfe9NR+1lPYP4hpglxvlII3uuk/5H5sUdpnIPPi0gOrR74wnxUKAABeDw0sAABQMXqLuqQ6po9oIM4y+nfj7cV5fNjdJZlcocLAtGLCcqXyyedNWitprUlr3WytJMm9R9L6PuMEMttzy8f2liSZ9pQrkDR6hZbvGxRkCkz+8j5WrnLvabWDQgXe3D2pu8jqBAAAr4cGFgAAqBjZ+uzq5ty0z4UW/lJSdZTnatJeevHxYq/JX6fjtPXHfHDkw+Wt7VNzv2VlAgCA7QkIAQAAqCQtiQV3mXQFkRhwv6tZO+rzhAEAAOwIGlgAAKDitNZlvyHZYiIxYFZUhX4WG7cDAIAdRQMLAABUHpMfuPSQOknfIxj9HXqtDzw466Zk7imiAQAAdhQNLAAAUJHS6XQh7Il9Tua3Eo3+YdJ6C/zMlsSCu4gGAADYGTSwAABAxcqkMr2bPKyV9C2iUXYvhIGf1jI19wtCAQAAdhYNLAAAUNE6452b2uLZs01+kaQiESmLxxXoA9xxEAAA7CoaWAAAAJJa47nr5MHpkp4jGqXkdyhW/a62qdn7iQUAANhVNLAAAAC2aEss+GmhYEe7dAvR2E2mgpu+fODS8ae1TWl7loAAAIDdUUUIAAAAXtExreMJSZ9qzE07QxbOlzSeqOwk0z2BB80t8QV3EwwAAFAKnIEFAACwDW2JBbf2hP5Wl11n0noisgNMKyUl26ZmT6B5BQAASokGFgAAwGvIJXNr2+MdFxV7YhMlu1Lsj7VtppWSXWnVNYe3xbM5mZygAACAUuISQgAAgO3IpDIrJaUb2htmx2oK0102XdLBREZPu/z6DUFv+6IpizhLDQAAlA0NLAAAgB2USWVekPS1dDr99afGLTvRTJPN7LOSxlRQGIoy+4W5Z1aOWvP97kndPawMAABQbjSwAAAAdlI6nQ4l3SnpzllLamduXD/mEy59xqQPSNpzCL7louS/N6nbYzXf4q6CAACgv9HAAgAA2A2zJ3VvlPRtSd+uXVIb23fDnu8I3d9r0kmSPqzB2tAyrZTrF2Z2u3nhBy3xzhVkGwAADBQaWAAAACXSPam7KOneLY+5De0N1Ta8cLwV7WgFeqvcj5TsbZL2i9jUN0i6X9I9Mr+7aLG7F0xZ8A82YwcAAFFBAwsAAKBMMqlMr6Tfbnm8bEYuvl8xZm8thjrCFBzoHh4UmB3k0gEyHSzX/pJqSjkXl543+Qq5PWZmj7jpEXc9EoThPw9YPv6f6XS68KpPmEr+AABAdNDAAgAA6GfzEvl/SfrFlsc2NbQ37BurLoyxqmCYhxrp5jEr+hhJChXsFZhbKD8wkI10V48Ftl6S3H2NzHvlwSoVfWUQK64s9NSs2tJMAwAAGJRoYAEAsIM8DDebBSUbz8zHEFW8lkwqs1LSSiJRhq9laXQJhyse9ZejCt3qJrAAAJRRQAgAANjBX3pjVc+VcjyTTieqwAAw/0gJR3thy10pAQBAGdHAAgBgB8Us9nwpx3NpUiqfaCSyQP9pzCXPlayUDazniCoAAOXHJYQAAOygVcNXrRq7Ycw6ufYo0ZBmstamfPITFrMLWqZ0/JUoA+WRyte92Tx2vUwfL+3IvpToAgBQfpyBBQDADuqe1F006YFSj+vSR8PQ/5TKJdob2hv2JdJA6UxeOHlUY74+bYo9WPrmlSS3e4gyAADlRwMLAICdEJbrl1VXlZk1BDXFh1P55PnpdJqzpIHd+5qyVGdiyqhizSOSf1nSsPJU034vwQYAoPxoYAEAsDM/OM1vL/Mh9jFpzooJy+9t7kp8gIgDO68hm3hvY2f9PebWJenAsh3IVFBQ80siDgBA+fHXXQAAdkJxc+x/g5riakn7lPlQR4eh3dHYmbjVQp3fmsg9SvSB19fYNeUNCquvkXSO5Fbu47nrjvYpbc8SeQAAyo8zsAAA2AmZVKZX0i39dkC3M9zsocZ8/dXN85v3IAPAv2tobxjZmK9PK6z+u6TJkqw/jmvSd4g+AAD9gwYWAAA7+0trYHMleT8ecrjkl4YjNz/cmE9OlvfPL+cliVUY1JR4yCIrEC9zWSpX/7mgpvi3LftcjezHoz8T9sS+TRIAAOgfNLAAANhJrVM7/iS3Wwbg0AdLWtjUmfxtQy7+rsEQK7Nw75IO6L6RFQhJauqsP66xM/kbM/+WpHEDsLivy6QyG8gEAAD9gz2wAADYld9dY0q760x5//8sdeldgQW/bcwnb64K/ZKbkrmnohonl72ppOMFRgOrwjXn6w4MFbva3es0YH+MtSfXB5vbyAYAAP2HM7AAANgFW87C+sYATsEkTS7E7OGmfOLSunzd8IiG6riSFi6cgVWxZtw4Y1hjZ/KiULGHJSUGso51qWHRlEXryQoAAP2HBhYAALuoeu2Ir7j00IBOwrWHy64eodhfGjsTZ0UpPg0LG8ZLOrqUY4ay51l5lSeVq/9E75gNf5brWkljBng6ne3xjtvICgAA/YsGFgAAu2jeefM2B6GfJWn1QM/FpUPl9t1ULnlHU1f90VGIjxWKZ6vEd4MLzJ9g5VWO6Z3TjmrsrP+Zmd8i12ERmNK962M955IZAAAGoLYkBAAA7J6mfP37XP4zScMiMqVQ0mLFqr/QNqXt2YGYwIwbZwzrHb3hMUkHlXTgQMe2Tc3ez6ob4l9Ti5v29s2b0wqseSD2mXuNsvnJQkHv7pjWQRMVAIABwBlYAADsptZ4x2/kwaclReWOZIGkySr2/i2VT57f0N5Q3d8T6B29/hKVunklqboY0jwYwtLpdFVjLnmu9/Q8IrPzotK8MumxYmAfpHkFAMCA/jwGAACl0JCLvyuw4IeS9ovUxFx/ddMF7fHsT/rjcI1dyWMU6neSako89L/a4tn9WWlDUypff5rks006KmLl8n2BCqe3xDtXkCUAAAbwJzIhAACgdOoX1h9aVVRe8vdH76e+31q02OcXTF3w93Id4txs4uBCzH4v1yGlH91/2hbPfZRVNrQ0dyQPCwPdINPHIzY1l9QRbBh2Qcv0lnVkCgCAAS5lCQEAAKWVTqeDpycsnxFIV7s0KmLT65H7vLC36qpMKvNCKQdu7kgeFlbpx+XabNtM17TWZS9lhQ0NM24+e0xvz/DLZJqp0p+tt7sV8hNm3tA6NfdjMgUAQFR+PAMAgLKoX1B/SFWVXyvpc5H7mWtaKffWQGFLKS6NSuXqP22Bt8q1b7mm7G6fbE90fJ+VNbil0+lgxYTldZKulnRgxKa3SbJvBhtqruGsKwAAooUGFgAAZdacm3ZiaMU5kr0zgtPbbG7fcdm3wl67I5PK9O7MJzd2JU+Q+xVyO6PM8+zpCX3fXDK3lhU1eDV2Jk+Sa66k4yI4ve8VYnZhx5SOx8gUAADRQwMLAIB+8OJZJ8umSPY1leHufCWy2k23BbLfmdsf1sY2/WXRlEXr+75gZr5urx6vPtKteIrL/p/6rRHhd7TFcx9iJQ1Ozbn4uNCCb0j6TATrzz8Fgc9smZr7BZkCACC6aGABANCfv8jPb94jHLnpMslmSho+CAqF9ZKedVmNy0eZtNeATMR1QVsiO5sVNLg0tDeMDGoKF0p2kaSREVvcK939itWj1i7ontRdJFsAAES+LgUAAP1tyxkpV0uaTDS2q0ex6nFtU9qeJRSDRyqfPNOkGyVNjFj1W/DQc95bdVkmlVlJpgAAGBxoYAEAMIAa8/WnSD5H0tuJxmvqbotnJxGGwaEhFz82sGCOpPdFcHo/V1Ez2+qzfyZTAAAMLjSwAAAYYLVLamP7rB89zcyuKudd/AYttw+1JTruIBDRVr+g/oDqKl3t8rikIFJLSPp7YLqgtS77IzIFAMDgRAMLAICImJmv22ujYpeYNFPSMCIimenO1rrs+4hEdDW0N1RbTbHZpCsl7RmxSned3G6oXjvimnnnzdtMtgAAGMR1ISEAACBapnVNOzzmxRvkdkbFFyoentKayP+KVRFNTbnEqW42V9KREZtaKGlxoWAXdkzreIZMAQAwBOpCQgAAQDSl8vUfM/k3JR1Rie/fpVva49lPsRKiZ3rntKOKHs6WdFoEp/drBZrZNjV7P5kCAGDooIEFAECENbQ3VMeGhXGXX11J+2O59LwFvW9tm7rwSVZBdDQtbto77Om52KRZkmoiVtU+4fLL2qfmFsnkZAsAgKGFBhYAAIPAjFx8v14LrpJULyk25AsUt8mtiY6byXw0pNPpqmcmPpFy9ysljY3Y9Da46dqRI9dcN3tS90ayBQDAEK0PCQEAAINH88L6//Cif9Oljw7h6qSjrS47jWxHQ2Ou/oMyny3p6OitFb81VrBz59dnl5IpAACGNhpYAAAMQql88kyT5kh641B6Xy7970FLx52eTqcLZHlgNXckDwtj+pqk2giWsPeFYXh+Jpm7k0wBAFAZaGABADBI1eXrhg/z2CwLdKlcewyBt/Tr6upNZ847Z/EasjtwEtnE6Bqzy2U6X9KwiE1vhbldesCyQ7rS6XRItgAAqBw0sAAAGOQaFjUcZL2FtJnVSwoG43tw6UcjR62pZQ+jAU2CpboSk83tWkkHRmx2vXJvra7ZfAUNTgAAKhMNLAAAhoimzvrj5H6pS5/U4GlkuUxzws2xizOpTC9ZHBiNncmTJM2R6/gITu/7ocU+n6nL/JNMAQBQuWhgAQAwxDRlE0coCC50+WRJNRGe6iqX4u3x7A/J2sBozsXHhYFdK7fPRq0udOmhwH1mayJ3O5kCAAA0sAAAGKIau6a8QcXq8xQoIde+EZpa0d2zNfLL5yXy/yJT/a+hvWFkUFO4ULKLJI2M2PRWm9mXDnj8kHY28wcAAC+hgQUAwBBXl68bPsyCSebWJOndAziV0KUfxBRc2RJf8ACZGQAuS+XrJ5n5NySNj1hVWpDU1lvQl7P12dUkCwAAvLpUAAAAFaOpq/7oMPT/Mumzkib0U7WxUqF/KwyqbmQfo4HTkIsfGwuCue56b/QqUrs9Jps5v27BQ2QKAABsu6QEAACVx2XN+WnvCc1Pl8LTJDtOpdv4PZT0N7nfHsR0y79GrP1196TuIkEfGPUL6g+ortLVLo8rapv7mx7x0L7Qnuj4PpkCAACvXzYAAICKl+xI7jOsyo8PZe+w0I5y8/GSDpK0r6TAJTNpry3lw0bJN0l6QbK1snCpZI+b+zK57q+q2fyHeecsXkNUB1btktqafdePPt9ll0saE7HprZXpq9VrRs6dd968zWQLAABsDw0sAACAIaYplzjVzeZKOjJiU3NJNwcqXtQS71xBpgAAwI6igQUAADBENGUTR3hg35T0sejNzu/2QOe3T839lkwBAICdRQMLAABgkGta3LR32NNzsUmzJNVErNx80i28tH1qbpFMTrYAAMAuVRSEAAAAYHBKp9PB0xOXnWNu10vaL2Jl5kaX39gb+tW5ZG4t2QIAALtVWRACAACAwae5K/GBMLQ5ko6OXoXptxaC4LyOKR2PkSkAAFCS8oIQAACAwaZ5fvMexZE9Hw7MN68cueZn3ZO6eyrlvTd0NrzJvHi9SZ+M3ORc95vZ+a3xjt+wSgEAQCnRwAIAAINGOp2uenrCsnqTpSUdsKWYecwD/3zb1Nz/DOX3nsgmRlcHdplJMyUNi9bs/Flzu+yAZeNy6XQ6ZKUCAIBSo4EFAAAGhaZc4lS34JuSv23br/A7YhY7b37dgoeG1Bt3WaorMdncrpV0YMRm1yv31rC36kuZVOYFVikAACgXGlgAACDSUl2J91hoX5N0yg68vEeuOcHGYVe1TG9ZN9jfe3Nu2olhEM6V6/joVZF+a9Fin18wdcHfWaUAAKDspQchAAAAUfRi86b4RbmdsQuf/rSbX9I+NbdIJh9s772xa8obFFZfI+mcqNVrLv09MF3QWpf9EasUAAD0FxpYAAAgMtLpdNWKics+IbdztWNnXG2v1PlVqMKMTLzzwcHw/mctqR2xYcOYC811saSREZvecy5d6T2xlkwq08tqBQAA/YkGFgAAGHCN+bqJ5rG4m+olHVziaqeg0FuGW/jlOfHO5yMZAJc1diVq5XadpPERm13RZAuKPcEVmVRmJasVAAAMBBpYAABgQMzM1+210YKPm4LJcv9QP9Qlq136ykFLx82L0p3yGruSxyjUHEknRzBNv/TQZ7Ync39kxQIAgIFEAwsAAPSr5s7Eh8MwaJT56ZJqBqD4+X0Y+rntydw9AxmH+gX1B1RV+1flSkgKIlYgPhbKvtAe7/j/WLEAACAi9QkAAED/aMonb3DpgghMJZSUDXtil/b3ZXG1S2pr9lk35jwzXS5pz4hVhus81Nc2W3F2Z7xzEysWAABEp0wBAADoJ025+i43nxKhKa126YrVo9a0d0/qLpb7YKl88kyTbpD05oilxs1tUczDL96UzD3FSgUAAFFDAwsAAPSbZEdyn+qYbpH0vijNy6UHPPQZmWTuznKMn8rFj5QFs036cASLwd8XPTw/k8j/nhUKAACiigYWAADoV+l0uurpCcunm+mrcu0RrcrIbw1Cb25J5JeXYrimxU17hz09F5s0SwOw39d2PGVmVx7w+CEdUdrUHgAAYJtlGiEAAAADoX5h/aGxon/TpE9GbGprZPaVcHNwYyaV6d2VAbY06RpM+oqksRF7f5sk++b62OavLZqyaD0rEQAADAY0sAAAwIBqzNV/0M1vNOmoKM3Lpb9LOr89nv3Jznxec1fiA2FocyQdHb3Kz2+1UOe3JnKPsvIAAMBgQgMLAAAMuIb2hmqrKTZvOWNpTLSqJb9VHs5oi3c+/nova87Fx4UWXC1pcuQC7PqrFMxqSyz4KasNAAAMRjSwAABAZDQsajgoKBSvlXROtOoU2yjpG5tU+HpnvHNT349MXjh51KjisAslv1jS8IiFdLVLX1k9as1N/XGXRQAAgLJVY4QAAABETaozebK5bpT09ohN7Z/mljYr3B4GYUzFmo/L/ApJB0Vsnr0umz9ChSvnxDufZ0UBAIDBjgYWAACIpHQ6HTw9cdk5JrtBrn2JyI5Wd3a7Cj6rrT77Z4IBAACGTIlDCAAAQJQlO5L7VAf+ZZlNlxQjIq/pHyZd1hrPdhMKAAAw1NDAAgAAg0JDLn5sYDZPshOJxququXVyu6F67Yhr5p03bzMBAQAAQ7PkAQAAGCxclupKTDa3b0g6oMKjEUpaXCjYhR3TOp5hcQAAgKGMBhYAABh0Zubr9tqo2CUmzZJUU4EF3O+LHp6fSeR/z2oAAAAVUv8AAAAMTk3ZxBEeaK5kH6mQyu0Jl1/WPjW3SCZnBQAAgEpBAwsAAAx6qXzyTJPmSZowRN/iBpfmxTYM+2rL9JZ1ZBwAAFQaGlgAAGBIaGhvGBnUhBdJfrGk4UPkbbmk78aKunB+fXYpWQYAAJWKBhYAABhSmjuSh4VVPltuZwzyt3JvGPrMTDJ3J1kFAACVjgYWAAAYkppyiVPdNE+ytwyyqT9tZumVI1/Idk/qLpJJAAAAGlgAAGAIa2hvqLaaYrNJV0kaHfHp9sq9tbpm8xXzzlm8huwBAAC8ggYWAAAY8hq7prxBYfU1kiZHsyLzW0NVzczUZf5JtgAAALZRLhECAABQKRrz9adIulHyt0VjRv43C3RB69Tcj8kOAADAawsIAQAAqBRt8Y5fHrj0kGNdminphQGcynMuzTxw6fi30bwCAADYPs7AAgAAFWl615SxxWLVl2R2rvrrj3qmgoeeq5FfPi+R/xdZAAAA2NEyCgAAoIKlsonjLbB5kt5d3iP5HaHCmZl454NEHQAAYOfQwAIAABUvnU4HKyYsS0p2maQJJR3cdb+bvtwez/6QSAMAAOwaGlgAAABb1C6prdl33Zgpbv55yd6yG0OFku6UB9e1xRf8SCYnugAAALuOBhYAAMA2pLKJt1sQTJL5h+U6WlLNdqqqlXK/16SfeFDobpu68EmiCAAAUBr/P0u8MbjOl5NGAAAAJXRFWHRkYXRlOmNyZWF0ZQAyMDE3LTA4LTIzVDA3OjMxOjE5KzAwOjAwuZQWFQAAACV0RVh0ZGF0ZTptb2RpZnkAMjAxNy0wOC0yM1QwNzozMToxOSswMDowMMjJrqkAAAAASUVORK5CYII=;arcSize=20;" vertex="1" parent="ILJUOrgNbJTJBXLJUpU8-7">
          <mxGeometry x="140" y="150" width="120" height="50" as="geometry" />
        </mxCell>
        <mxCell id="ILJUOrgNbJTJBXLJUpU8-23" style="edgeStyle=orthogonalEdgeStyle;rounded=0;orthogonalLoop=1;jettySize=auto;html=1;entryX=1;entryY=0.5;entryDx=0;entryDy=0;" edge="1" parent="1" target="ILJUOrgNbJTJBXLJUpU8-2">
          <mxGeometry relative="1" as="geometry">
            <mxPoint x="780" y="210" as="sourcePoint" />
            <mxPoint x="540" y="70" as="targetPoint" />
            <Array as="points">
              <mxPoint x="780" y="70" />
            </Array>
          </mxGeometry>
        </mxCell>
        <mxCell id="ILJUOrgNbJTJBXLJUpU8-24" value="&lt;b&gt;&lt;font style=&quot;font-size: 16px;&quot;&gt;3&lt;/font&gt;&lt;/b&gt;" style="edgeLabel;html=1;align=center;verticalAlign=middle;resizable=0;points=[];" vertex="1" connectable="0" parent="ILJUOrgNbJTJBXLJUpU8-23">
          <mxGeometry x="-0.7171" y="-1" relative="1" as="geometry">
            <mxPoint as="offset" />
          </mxGeometry>
        </mxCell>
        <mxCell id="ILJUOrgNbJTJBXLJUpU8-8" value="Proyecto Power Bi" style="label;whiteSpace=wrap;html=1;image=data:image/png,iVBORw0KGgoAAAANSUhEUgAAA5gAAAOYBAMAAABC5kGOAAAAIVBMVEXxyRMAAADn5+f/////3BV6bDO2n0A7NyvoyD3JvIfx4JVUAzu3AAAXpElEQVR42uydS4/TyBaAMzMW02I1lghmiS6bK1Yj7uaKlUdyHsuJlO5mSUuBZnkj0R2WwARoza9A9GbEr7xJ6FccOy5X7Pic4+/bMQ+Grm/Oo0657M5/fvDsXz8o+OWzp98v3ndgDxxcfP/uJuXml50SMp/+g8c9c/H3t1pkPsVkMxH6rXKZqGxSZ6Uyn1+wpE1y/7I6mf+wnE3zd0Uyn31lLQUE55MqZD6nWsqonJe7y/w3yygm1e4qk3Ipz6avTFwKtOkpk9ZHWhvkL5O4FBmbXjJxKdOmj0z6WJF83CLz6q88ufpLt798zrrJ5DJXWa7MZ8wKpPKttEwaWdktbRmZFEzxNp1lPmXFxCdaZ5msl2zKyKRgKki0jjJJsgp2m64y2ZWI58BV5mPWSkOidZJJktXR0TrJpPvREZouMhkXKOHSQSaBqaUHKpZJYKrhrw2Z6cMxtiWatifbD6f/yxqpmhxslUlgqgvNXJlUTH2hmSuTVlZfaObJJDCV8W2LTAJTGffzZTKV1RiaOTIfszja+DlXJmujjzyZtD8qdyfZMhkYqGyBMmXS/uhsgTJl0v7obIEyZZJldZJ1C4xbX3q3mhuH019ZFq0t0KZMsqxSDjZlkmUVbzXTMulllefZuzLJssrz7B2ZTAy097N3ZJJlNc8NUjLJstrz7K1Msqz6PHsrk9Mv9ZuTW5lfWRDtm5NbmZRM9UXzRiYlU3/RvJHJxkT/5uTmFhglU3vRvHM4TcnUXjRvZXJiop7LG5lcylTPXzcy6X/0d0A3MimZBormtUzWQj/XMul/LHRAVzLpfwzwy5VMRgYWOiBkGuqArmSyEhb4IZP+xwTfVjLpf0zwcSXzdxbCRAe0ugVG/2OC+6vD6fcsBDJBFiuZLIMNnixk8jCXES4XMnn+2Qh/LWQ+Zhls8AsyDW00FzLZZprZm3TYmVjhYCGTVTCz0USmJZlsM+1sNJFpSSYzA0MyOZo2w0dk2uHnzu8sgh2Zj1kEZII47ne+sgjIBGRCfRx03rMIyARkQp0yAQAAAAAAAAAAAAAAAAAAAAAAAAAAAAAAAAAAAAAAAAAAAAAAAAAAAAAAAAAAAAAAAAAAAAAAAAAAAAAAAAAAAAAAAAAAAAAAAAAAAAAAAAAAAAAAAAAAAAAAAAAAABwJkitYCu0kycXrwyVHb+ZJzHqoVvn5OLxmdjQnPBW7vHercsXhS6JTa7F8NQ1TRIvoZGUUuhyOwgyiNwSnFZcLztBpxuUiOM/Jtbp6n5NwCxGNkKbA/BJuZ5FrWSUlLnthEfS1WoinYTFdcq2KwDwNnTgjOOW77IeOREcM+KTLPAmdIdcKpx+WgVxrJTDJtaYCc5VrGfAZCUwGfIIZTkMPohfkWoGBOQj94DBFoMyRp0xyrYX2Z+3gGp2SAvNDuAvkWhtZllxrKsvykJCRXpaDaxsTgwwY8ImQOa1EJg8JSS2Z0eHri4vXx7OQwxRdDDKtJHGQJMNXU3Kt8pJ5fp0vg2R4ymGK6pJ5fie6grt3wsi10hlu1Mv52t9PkpK5loPr5th4XHaczpOlcy0DPin9TzcjrMrmWgZ8DZXMD0WBubIZl821HFw3ITM1ZY+yHSz62mNyrbZm9lGegUVfOyLX6mpmx1u8x69KPyREcDbYzEbbgskr17LEjcl8uD2UFrm2ZCN0HqCzqZ3J26J/PolPObiW2v/85Fwyb4OzbK6dEJz7kZkas88d/p0k+cSAT4HMyC0jcpiiYWbQdVxyDlMUzAweOsdP6QEfB9f7lvnIPRkGHKaIk7m+3g9K/cscpshiWHZnks613AKUw8H6Yk/KBjaHKXIjc1L6N+AwRQ798jODDZ0cptiRuQjOPocpAmV6RkzpAV/IYYpYmR4DPm6myJXJgM+STI+npRnwyZXJzRRLMsm1pmT6PC1NrhUrkwGfJZkM+JqjV71Mn8MUcq1YmX4DPnKtTJlLnaUHfORaqTJ9Bnx/EpxSZfpsOjlMkSrTa8DHYYpUmT5PS3NwLVbm8gm+sq/5mqBTqkwOUyzJXObaYw5TrMhcbjpHHKYYkcmAz5RMBnyWZDLgMyXT53UI3EwRK9NvwEeulSlzuUt5Ra61ItPjCT5upoiVucq1Mw5TjMj0eh0ChykuDBqQ6fEEHwM+sTJ9Np0M+MTKXPW1IbnWiEyPAR+5VqzMpU42nWZkLmzy6hkzMhnwmZLpMeDjZopcmT4DPoJTqsyOzxN8DPjEyvQ4TDki10qV6THgI9eKlek14OM9/lJlejzBx9PScmUy4LMkk8MUUzJ9nuAj14qVWf7F7wz4BMtkwGdJps+mk8MUqTI9n+Aj18qUSa41JdMn17b+3dJiZXptOlt+mCJYptcTfK1uhETLXA74RuRaIzJ9nuBr8YBPukyfJ/ham2vFy1xtOqccphiR6bfpjJEpdAk8Np1tfAxBh0yPAV/0IkGmWMrm2vbZDL6okVk+17bOpp7IXOn8VCrXTmJkCqbcgC9qmU1lMksO+LqtSrSaauZ1cJY5TDmPiUzpufaUsmlF5kKnc67tzpEpvjw4bzrftSc0FdbMspvOOZGpQafbgO9hjEwVjZBTrp0j006ubU3VVFszb3QWD/iiOZFpJ9e+jZGpJjiLNp1dZKrKtduDc0LN1JVrt8l8FBOZZnJtF5nadG5phCbI1GYzP9e2Y6tppGZel87Po1bn2YElmfmbzjkyVebazIPrMTKVbjrbujmxVTOvcm3GCKEdRXNgT2YnIzYjZKq1+aWdO02TMjvJqI0dkMWaufyx+hsdEJFp5n/SdjwJZFRmZ9jGdtaqzOAkZfM9NVMv/RYO9KxG5kZDO0am4pzzAZl2frLUp9HfUjM197PrE9rfYiJT8f+no9ZtNA3LPEGmHZmDtk0NDNfMVAfUJTLtjA0iZKpuZ+3+aO2TGUxbJtNyzWydTNOROWrbsUl7ZM6RiUxqJjKJTGQiE5nIpGYik8hEJjKRqVRmkFwRI1N7zUzie4fTMIzOXgcJMnVH5p03Gs6OKglOZDaWYtdeRXAexMhUKzM5Tb8nP0am0pqZbLwi5CxBps7IDHp1vFQLmY38IYbTOj4vg8xGAvO0lu94pWTaf0WFiJrZr+dt3K2TKSEyNy45VxSayGyiYua9WHSMTG0yU3dCqrvrQ81s4I8wqulbQUSmmPZn9xYImY3/Caq7uYVMSVl2xzxLzZQx/amknyUy9/4H6NX27UtkSiqZOxZNZEoZ/1RQNKmZe/8DbP8k2xiZiiJzWPDpS2Qqktmv7+vfyBTV/+zWAVEzhcmMkKknMtMvEt0gQKYemScFMifI1COz4Nvfu+xNqJnIJDJrmhmE4QNk6pFZ4HKXLwUhc8//+bhQZoxMOTUz6Gz7PQ+KZD5EppjIXF6EXt6Izvv7Q2RqkRkMPx/OptHs7Gie8xv3kalEZtI/vrmhN0mQqblmrn8t+EXiJbOLTAmRmf7yc6ZNZKqQuXmBdhwjU6fMoL8x24kmMTJ1yjxxuqOHzCqpqQEKMh+H3XxPATIVRGaSOUCP5sjcn8yqPsuTd+dyIzSRqUBmzjHlRmgiU77M3Ask6dBEZpX06pCZ/2RPuqFFZpX06/gu4dD5MRBkipfZcx6cI7NKhjXI3Pb8ZJQgszaCGj7MHLtfhkZmpTKn1cvsuT/Ug8xKZY6qfS/okj/c7SCzUpknVV2HdCqZ6cvQhTIjZJb4iX+t8G11WZl7e9EkMuubGlTyAxc8cfeOyNzPRvN97f1PqskiMmtrZ6vZZpa5DE1kVivzQyV3AbJ/w0w9AZG5jzxbyc9beH92TmTuYadZ0TCv6MrlxL2+7haZJy2U2d/2LOSuA8KCvUmvzshsocxO8OlHD3RezcfxCu8CvSUyayT5fDibHb6pxmWxzAdEZq02V9SxcS0atROZiqYQRVMDIrNNMonMmhum7Vm5R2QqUnnx+nB2ePQmT2ePyFTTKw2vP6nXfZnERKZql5/uzOWz31RAZKpxubY+Z3MiU/GsKO0lITK1uty8DZ3xBBiRqSPJZpyHTOLSMpkASQjMXx1uAiFTB9lf7fpfjEyFgfml+CkQZCoh7wbJ2xiZ6gJz4LjcxTI7yGxa5sjxAweFfh4gs2n6rvdnkam1/cnY1yNTcZZNLxMyFWfZ9IPwyBRPz3nBkSk+y267QLL+3i1kai6ZqfuzyBQ/l3XWU+yHJ9oF9z+pDqjQzxiZzTJwX3EiU3P/E66/cxiZ0mWeuN+fRabqZrZkGaRmNixzWqEfIrNZ4ir9IFPyzmT9QSBkKpf5WxmZ1Mx6SQruThet+d3z6QGR2azKz8ez2ews95YeMvW4vHe98YheJsjU7fLubaCjxEtmt4xMamZ9Lk/XfuTslwENqpRJZNbmMv2gVqbNP5CpYbSzuZovYmTqZLg5dI0mNcukZtYUmFlPw2Zch0am2snOOEamwsDMPqbcvECLTL0j1zEybVTMzBVEpvw95tTxlh4y5dNzvD2CTLXtz2qvmSBTmcyp6y09ZKrtZTPyLOM86Qzc1xCZektm6rFm0qzqkpmeGxCZiktm+i1qyFS7y0w/1YNM1f1PehGpmcL5yf2WXqHMiMgU3Mym2lnSrHCZBbf0Jsi0sjNJ7U0qTbPUzOpllogfIlM4Q2Ta4aBKmXSzbY1MaqbsyCTNyo7Md6RZK3P21IehaovMPjL3IfNRXFdkjpFJZCITmcgsKTNCpp2a6b3PRCZpFpmkWdIsaZZ9Zj4PkLlvmQ9ri0xkGkqzyCTNIpPIRCY1kzSLTNIsMolMZFIziUxkkmaRSZpFJjKRWYlM0iyRicw9yewSmUQmMpGJTBogZFZfM4lM0iwySbPIJDKpmUQmkekq8wCZdmQOkWmnASIyDe0ziUxqJjIlplkik8hEpsR9JpFJZCKTfSYy2WeyzyQyqZlVyhwh084+E5lEJvtMIpPIJDLZZyKznEwD9zOR6SWzi8z/t3cuPW0kQQCekNldixMcyHBEw2WV04q5rHKaQ9v4imQgxyA5j+NainGOBByD8isiuET8yvUD/BjPo2c8Y3c133cKIUSkv1R1VU33QJpFJmkWmaRZZBKZ7JnIJM0ikzSLTCKTPROZpFlkblDmNyLzhcokMolMZFLNIpM0i0wiE5nINGvPdEizYsg6SvXVITLFUCtTJpFJZCLTxMhE5mZxSbPIJDJNlHmSvootZNojs02aFSTzIn0V+0SmIJmv0lcxJDIFcZxjEYlMw6nrn+dCpuwR0A4yRW2aHe3OBJmyy9k2Mq2pgLwQmaJo6B7nQqbsTXNxy0Sm5E3T6yPTmk7zTYhMYagTzSyLTAF59jZpBRUy5Q2BEkqgVohMW0JzKTCRKTc0lwITmSJC84+4UnYpMJEpo6C9yOwxkSkn0UbbE68d2imzb79Mt7G4bXrvw5wzeWSaZPN83uUXlW9WhEyztk31cfoPvuwrp4jMN8g0RmfzY2/E2RcVOsiUnmqVat7dKaWS/gAyhfl0Uz6b59Ukpsq8ckBrzXcEyAzROCHMcWWsbozMDjJj6YiX6SEzPmOlPsw2Rma4i8wiMtsmymyU9RfZJvO7/v0/Y2TWkRlPjitjxsg8Tj2j9oLJcWXMFJmRbLKDzGea2nrMkbn4qPY/ZCb0bGknM6uXqcbk/Ja/IjHhv3lK/VO9TDU43+2efVBhrqlVC4lTmcfaC161TDU5Uuh1+ypPzYZMvVXfX6dMtz47FJEWnNFc0seh1tig7axT5tw30m0nB2f0FCn1j9bYIDIoq1jmwld4Z4nBWd9lZlAgz+6vU2b0EP5eO15n9AwpMwO9PNt21ilz6ds464ca//d2MKhTz0aXu1qZMdOLbszRpaXD3RSzC4SaV8aqlRn7BZeuSip5X9B59lyhqXllrFqZ8flhbzE43eVz+nQm6cV+wpWxSmUmFdXe/Ilfd/kGDcWsk5W7Yq+MVSszcazofXge16rwc+ZLGsDVujK2IZnjQmjM4Dz9kBIkJNpWuGaZqedXeqefPp32NNonWL4ytvteOWuW2dktAqe5Mm16cS43GZl6RyFgWvTPNqS9D4Wu/1W2Z2qe64W5sn9wMo7OvU+q2PW/SlqTXf2joDA/KVPNu8HozljC5zcxNKjuiJ/90em6YZi4PhsY52XxDZkFqfipSYcsu0YaeaqR/DIvyLL2yCyQZ78iszKZrVVkFglNnpgUplatzMRXcTIxqGKAm6ccKSDTrVP+rK9x6eTIeoVOtP+g/FmbzIzxqeeuKHNoM0+mbSFzBZkXOZ5gFLsFppqf9QNToWQFma9y6Cl4pc/VD052zJU4zlFcFr6fGXc2hFJ27fO8facMmcPg/FMjODmVV21v0ipH5vj9jR2qn832Ju1cTWlaY+Gq5nn6V19S/VRazi4ex6mt1iW6atBL2zBxubLMY307zVVb/rRcu8eGuToN/QfFtZXnN8m5dq/PhlnxDKjllBqZyU3nJS5LIeXUlbe4jdVKmayq5mlUZ8qdaiir04w08c1SZI5y7cfIDVxqn5JQHc0sW1JkTqJzcN7rebsdr9cdqiQsS9s0v+tOZJqlyXRcd/RTA4ZcKVSupZ6NjkrLi8yJzzGs/3rq2bZTWWRCVTLrmmpqyBRQAp3ozb2JTAmh2dCblRKZImzeaj31JzJF0DzRub9DZApJtB2NB1JEpsyKNvaBlItMIRXtYD42u/2wiEwOZJkSm3Nv5Il/9yQyBcXm0wuWvMTJt0KmoOBUzfH7D5KUZEbmPjKN0pny/gMNmaygHNVZJ195gw8yYRMys16fxr0fZMImZGa9boJiVpDM70zz7OGYmYE91JkZ2EODzuTFNJoUs/b0Jrxb3aJylmLWogpoB5miaLJlvoxN0+NenjCZt4wMXkSnyU8wtSfPkmXlyfyLWZ5F9WyHWtYebil/rA9NAtOe0CQwZRKe8KZYewraRoc3xdpj8wdvirUH9RmXFtn8gUuLbDamVZD3BZfS9001OO0N6SbcywVZwTn6OdauUri0pOMMMQkAAAAAAAAAAAAAAAAAAAAAAAAAAAAAAAAAAAAAAAAAAAAAAAAAAAAAAAAAAAAAAAAAAAAAAAAAAAAAAAAAAAAAAAAAAAAAAAAAAAAAAAAAAAAAAAAAAAAAAAAAACZzxRLYQg2ZyAQjZf5iEZAJxrGNTGSCgWw5BywCMsE4XiPTJpl/swi2cINMe3hw3rIIyAQDZfosgi0EyLRK5hWrYAe1ocxfLIMdbA9lHrAMdrCFTHt4PZTJ1MASbgIneMcy2MG97wRHLIMd+EOZAb0JMsGwNnMsk0bTjjZzLPMfFsKKNnMs818WwgauxzLpTSypf0YyAxbCBo4mMilnbah/nmQesBT2yKQCsoCbJ5lUQBbw8CSTCsgCgmeZVEDiqY1lDtsTTo7IZ8s/HGbYkUyeT4vneiqTg9DiuZ/K5LilePyZTDZN6SODOZkHLIf0+mcmk01T/JY5k8mmKX7LnJPJpil9y5yTSacpvMucl8mmKX3LnJPJpimZmr8ok+ZEdmOyIJM8KzzLzss8JM+KbkwmMoMJRzQnchuTicGnh9OjX9KciOVhSSb1rFiCZZnkWam1bIxM6lnRWXZRJm93Ep1lIzKZG0jOshGZ5FmZE4NYmZRAEqn58TJpNQVynSCTEkggfpJM8qw4thNlUgLJK38SZRKaAgMzUSYlkLjyZ0Hm8/PMye9csT6i+pKRs5nBiExuxIviJlUmoSkuMFNksmtKC8wUmTyjlhaYaTIJTWGBmSaT0BQWmKkyGQPJCsxUmYyBZLB9qCOT0BTBvZZMQlNEYPp6MqmBBFQ/vq5M2hPjudaWSaI1P8nqyyTRGo4fL3Pheeb04RhPT4zmIUbZ0sPp2Wd+s2LmshXkk0miNXjDDPLKfItNUznMLZNBkKncB/ll0m2a2mEWkelTBBnIT7+YTGyaOS0oJpNJkIkui8okNg10WVhmgE2z9suVZHL20jiXK8gM3jE9MILaw9HqMoN3lEEmuDwMypAZsHEakGKzHMXcAgtiPzx6i86Ncnd/lOUo5eH00ofM3TeYYR/1HGnLDNC5KZX3gV+6zGEl9IjPtQflQ4aUojJHHz7+vsPoejze/Xw+56zr6H8057gJ5zv/bwAAAABJRU5ErkJggg==;arcSize=20;" vertex="1" parent="1">
          <mxGeometry x="710" y="210" width="140" height="60" as="geometry" />
        </mxCell>
        <mxCell id="ILJUOrgNbJTJBXLJUpU8-12" style="edgeStyle=orthogonalEdgeStyle;rounded=0;orthogonalLoop=1;jettySize=auto;html=1;entryX=-0.05;entryY=0.517;entryDx=0;entryDy=0;entryPerimeter=0;" edge="1" parent="1" source="ILJUOrgNbJTJBXLJUpU8-9" target="ILJUOrgNbJTJBXLJUpU8-8">
          <mxGeometry relative="1" as="geometry" />
        </mxCell>
        <mxCell id="ILJUOrgNbJTJBXLJUpU8-15" value="&lt;font style=&quot;font-size: 16px;&quot;&gt;&lt;b&gt;2&lt;/b&gt;&lt;/font&gt;" style="edgeLabel;html=1;align=center;verticalAlign=middle;resizable=0;points=[];" vertex="1" connectable="0" parent="ILJUOrgNbJTJBXLJUpU8-12">
          <mxGeometry x="0.0238" y="1" relative="1" as="geometry">
            <mxPoint as="offset" />
          </mxGeometry>
        </mxCell>
        <mxCell id="ILJUOrgNbJTJBXLJUpU8-30" style="edgeStyle=orthogonalEdgeStyle;rounded=0;orthogonalLoop=1;jettySize=auto;html=1;exitX=0;exitY=0.5;exitDx=0;exitDy=0;entryX=0.5;entryY=1;entryDx=0;entryDy=0;" edge="1" parent="1" source="ILJUOrgNbJTJBXLJUpU8-13" target="ILJUOrgNbJTJBXLJUpU8-3">
          <mxGeometry relative="1" as="geometry" />
        </mxCell>
        <mxCell id="ILJUOrgNbJTJBXLJUpU8-31" value="&lt;b&gt;&lt;font style=&quot;font-size: 16px;&quot;&gt;5&lt;/font&gt;&lt;/b&gt;" style="edgeLabel;html=1;align=center;verticalAlign=middle;resizable=0;points=[];" vertex="1" connectable="0" parent="ILJUOrgNbJTJBXLJUpU8-30">
          <mxGeometry x="-0.3354" y="-1" relative="1" as="geometry">
            <mxPoint as="offset" />
          </mxGeometry>
        </mxCell>
      </root>
    </mxGraphModel>
  </diagram>
</mxfile>
